<?xml version="1.0" encoding="utf-8"?>
<!-- Generator: Adobe Illustrator 25.2.0, SVG Export Plug-In . SVG Version: 6.00 Build 0)  -->
<svg version="1.1" id="Layer_1" xmlns="http://www.w3.org/2000/svg" xmlns:xlink="http://www.w3.org/1999/xlink" x="0px" y="0px"
	 viewBox="0 0 120.5 120" style="enable-background:new 0 0 120.5 120;" xml:space="preserve">
<g>
	<path style="fill:#12395F;" d="M44.4,39.3c-13.1,0-18.9-11.4-18.9-11.6c-0.2-0.5-0.1-1,0.4-1.3c0.4-0.3,0.9-0.1,1.2,0.4
		c0.4,0.7,9.2,18.1,30.9,6.8c11.8-7.5,22.2-13.4,30-10.4c3.6,1.4,6.3,4.8,8.1,10c0.2,0.5-0.1,1.1-0.5,1.2c-0.4,0.2-0.9-0.1-1.1-0.6
		c-1.6-4.7-3.9-7.6-7-8.8c-7.1-2.8-17.5,3.2-28.6,10.2c0,0,0,0-0.1,0C53.2,38.2,48.5,39.3,44.4,39.3"/>
	<path style="fill:#00969C;" d="M99.6,40.5c0,0-0.1,0-0.1,0c-0.5-0.1-0.8-0.5-0.8-1.1c0.4-3.3-2.8-4.6-3.6-4.8
		c-1.2,0.3-2.2,0.8-2.7,1.7c-0.9,1.4-0.6,3.1-0.6,3.1c0.1,0.5-0.2,1-0.7,1.1c-0.5,0.1-0.9-0.3-1-0.8c0-0.1-0.4-2.5,0.9-4.5
		c0.9-1.3,2.2-2.2,4-2.5c0.1,0,0.2,0,0.3,0c2,0.5,5.6,2.7,5.1,7C100.5,40.1,100.1,40.5,99.6,40.5"/>
	<path style="fill:#00969C;" d="M106,50.4H84.3c-0.2,0-0.5-0.1-0.6-0.3c-0.2-0.2-0.2-0.4-0.2-0.7c0.3-5.3,3.1-9.1,8-10.6
		c2.7-0.8,5.5-0.7,8.1,0.3c6.9,2.8,7.4,10,7.4,10.3c0,0.3-0.1,0.5-0.2,0.7C106.5,50.3,106.3,50.4,106,50.4 M85.3,48.5H105
		c-0.4-1.9-1.6-5.8-6.1-7.6c-2.2-0.9-4.7-1-7-0.3C89.2,41.5,85.9,43.6,85.3,48.5"/>
	<path style="fill:#12395F;" d="M28.9,91.6c-0.3,0-0.6-0.2-0.8-0.5c-0.2-0.3-0.2-0.7,0-1l17.5-33.3c0.2-0.3,0.4-0.5,0.8-0.5h15.7
		c4.7,0,9.2,1.8,12.7,5c4,3.7,6,8.8,5.6,14.5C79.3,91.2,66.1,91.6,66,91.6H28.9z M30.4,89.7H66c0.5,0,11.8-0.5,12.7-14
		c0.4-5.2-1.3-9.5-4.9-12.9c-3.1-2.9-7.2-4.5-11.6-4.5H46.9L30.4,89.7z"/>
	<path style="fill:#12395F;" d="M100.5,90.6c-9.1,0-16.5-8.2-16.5-18.3C84,62.2,91.4,54,100.5,54c9.1,0,16.5,8.2,16.5,18.3
		C117.1,82.4,109.7,90.6,100.5,90.6 M100.5,55.9c-8.2,0-14.8,7.3-14.8,16.4c0,9,6.6,16.4,14.8,16.4c8.2,0,14.8-7.3,14.8-16.4
		C115.3,63.3,108.7,55.9,100.5,55.9"/>
	<path style="fill:#12395F;" d="M93.3,64.7c-0.5,0-0.9-0.4-0.9-1v-6.8c0-0.5,0.4-1,0.9-1c0.5,0,0.9,0.4,0.9,1v6.8
		C94.2,64.2,93.8,64.7,93.3,64.7"/>
	<path style="fill:#12395F;" d="M102,70c-0.3,0-0.5-0.1-0.7-0.4c-2.6-3.5-1.1-7.4,0-8.9c0.3-0.4,0.8-0.5,1.2-0.2
		c0.4,0.3,0.4,0.9,0.1,1.3c-0.1,0.1-2.3,3.4,0,6.5c0.3,0.4,0.2,1-0.1,1.4C102.4,69.9,102.2,70,102,70"/>
	<path style="fill:#00969C;" d="M18.7,92.2H9c-0.5,0-0.9-0.4-0.9-1c0-0.5,0.4-1,0.9-1h9.7c0.5,0,0.9,0.4,0.9,1
		C19.6,91.7,19.2,92.2,18.7,92.2"/>
	<path style="fill:#00969C;" d="M13.9,91.8c-0.6,0-1-0.5-1-1.2V78.5c0-0.6,0.5-1.2,1-1.2c0.6,0,1,0.5,1,1.2v12.2
		C14.9,91.3,14.5,91.8,13.9,91.8"/>
	<path style="fill:#00969C;" d="M19,78.8H8.8c-0.6,0-1-0.5-1-1.2V41.1c0-0.6,0.5-1.2,1-1.2H19c0.6,0,1,0.5,1,1.2v36.6
		C20,78.3,19.6,78.8,19,78.8 M9.8,76.5h8.1V42.2H9.8V76.5z"/>
	<path style="fill:#00969C;" d="M13.9,42.2c-0.6,0-1-0.5-1-1.2V25.4c0-0.6,0.5-1.2,1-1.2c0.6,0,1,0.5,1,1.2v15.7
		C14.9,41.7,14.5,42.2,13.9,42.2"/>
	<path style="fill:#00969C;" d="M18.7,36.6H9c-0.6,0-1-0.5-1-1.2c0-0.6,0.5-1.2,1-1.2h9.7c0.6,0,1,0.5,1,1.2
		C19.8,36.1,19.3,36.6,18.7,36.6"/>
	<path style="fill:#00969C;" d="M18.3,52.2h-3.8c-0.6,0-1-0.5-1-1.2c0-0.6,0.5-1.2,1-1.2h3.8c0.6,0,1,0.5,1,1.2
		C19.3,51.7,18.9,52.2,18.3,52.2"/>
	<path style="fill:#00969C;" d="M18.3,60.5h-3.8c-0.6,0-1-0.5-1-1.2c0-0.6,0.5-1.2,1-1.2h3.8c0.6,0,1,0.5,1,1.2
		C19.3,60,18.9,60.5,18.3,60.5"/>
	<path style="fill:#00969C;" d="M18.3,68.8h-3.8c-0.6,0-1-0.5-1-1.2c0-0.6,0.5-1.2,1-1.2h3.8c0.6,0,1,0.5,1,1.2
		C19.3,68.3,18.9,68.8,18.3,68.8"/>
</g>
</svg>
