<?xml version="1.0" encoding="utf-8"?>
<!-- Generator: Adobe Illustrator 25.2.0, SVG Export Plug-In . SVG Version: 6.00 Build 0)  -->
<svg version="1.1" id="Layer_1" xmlns="http://www.w3.org/2000/svg" xmlns:xlink="http://www.w3.org/1999/xlink" x="0px" y="0px"
	 viewBox="0 0 200 200" style="enable-background:new 0 0 200 200;" xml:space="preserve">
<style type="text/css">
	.st0{fill:#37A0A5;}
	.st1{fill:#113A60;}
</style>
<g>
	<path class="st0" d="M69.9,113.6c-0.1,0-0.2,0-0.3,0c-2-0.6-5.7-2.9-5.7-7.6v-4c-2.6-1.7-14.1-10.1-16.4-25.1c0-0.1,0-0.1,0-0.2
		V36.4c0-3.2,2.6-5.7,5.7-5.7h41c3.2,0,5.7,2.6,5.7,5.7V78c0,0.5,0.9,13.2-15.1,23v6.1c0.1,2.1-1.1,6.2-6,6.5c-0.6,0-1-0.4-1.1-0.9
		c0-0.6,0.4-1,0.9-1.1c4.2-0.2,4.1-4.3,4.1-4.4v-6.7c0-0.4,0.2-0.7,0.5-0.9c15.4-9.2,14.7-21,14.7-21.5V36.4c0-2.1-1.7-3.7-3.7-3.7
		h-41c-2.1,0-3.7,1.7-3.7,3.7v40.2c2.4,15.5,15.8,23.8,16,23.9c0.3,0.2,0.5,0.5,0.5,0.9v4.6c0,4.4,4.1,5.6,4.3,5.7
		c0.5,0.2,0.8,0.7,0.7,1.2C70.7,113.3,70.3,113.6,69.9,113.6"/>
	<path class="st0" d="M74.4,124.7c-0.6,0-1-0.4-1-1V98.9c0-0.6,0.4-1,1-1s1,0.4,1,1v24.8C75.4,124.2,75,124.7,74.4,124.7"/>
	<path class="st1" d="M74.8,154.4c-4.4,0-8-3.6-8-8v-15.8c0-4.4,3.6-8,8-8s8,3.6,8,8v15.8C82.8,150.8,79.2,154.4,74.8,154.4
		 M74.8,124.7c-3.3,0-6,2.7-6,6v15.8c0,3.3,2.7,6,6,6s6-2.7,6-6v-15.8C80.8,127.4,78.1,124.7,74.8,124.7"/>
	<path class="st1" d="M149.1,143.3c-4.4,0-8-3.6-8-8v-15.8c0-4.4,3.6-8,8-8s8,3.6,8,8v15.8C157,139.7,153.4,143.3,149.1,143.3
		 M149.1,113.6c-3.3,0-6,2.7-6,6v15.8c0,3.3,2.7,6,6,6s6-2.7,6-6v-15.8C155,116.2,152.3,113.6,149.1,113.6"/>
	<path class="st1" d="M136.7,174.3c-7.4,0-13.4-6-13.4-13.4v-42.2c0-6.3-5.1-11.4-11.4-11.4c-6.3,0-11.4,5.1-11.4,11.4v42.2
		c0,7.4-6,13.4-13.4,13.4c-7.4,0-13.4-6-13.4-13.4v-20.8c0-0.6,0.4-1,1-1s1,0.4,1,1v20.8c0,6.3,5.1,11.4,11.4,11.4
		s11.4-5.1,11.4-11.4v-42.2c0-7.4,6-13.4,13.4-13.4s13.4,6,13.4,13.4v42.2c0,6.3,5.1,11.4,11.4,11.4c6.3,0,11.4-5.1,11.4-11.4v-18.7
		c0-0.6,0.4-1,1-1s1,0.4,1,1v18.7C150.1,168.3,144.1,174.3,136.7,174.3"/>
	<path class="st0" d="M149.1,134.9c-1.3,0-2.4-1.1-2.4-2.4v-9.3c0-1.3,1.1-2.4,2.4-2.4c1.3,0,2.4,1.1,2.4,2.4v9.3
		C151.4,133.8,150.4,134.9,149.1,134.9 M149.1,122.8c-0.2,0-0.4,0.2-0.4,0.4v9.3c0,0.2,0.2,0.4,0.4,0.4s0.4-0.2,0.4-0.4v-9.3
		C149.4,123,149.3,122.8,149.1,122.8"/>
	<path class="st1" d="M149.1,113.6c-0.6,0-1-0.4-1-1V75.5c0-0.6,0.4-1,1-1s1,0.4,1,1v37.1C150.1,113.1,149.6,113.6,149.1,113.6"/>
	<path class="st1" d="M150.9,76.5h-3.7c-0.8,0-1.6-0.4-2.1-1c-0.5-0.7-0.7-1.5-0.4-2.3l3.3-11.7c0.1-0.4,0.5-0.7,0.9-0.7l0,0
		c0.4,0,0.8,0.3,1,0.7l3.6,11.6c0.2,0.8,0.1,1.7-0.4,2.3C152.5,76.1,151.8,76.5,150.9,76.5 M148.9,65.3l-2.4,8.4
		c-0.1,0.3,0,0.5,0.1,0.6s0.2,0.3,0.5,0.3h3.7c0.2,0,0.4-0.1,0.5-0.3c0.1-0.2,0.2-0.4,0.1-0.6L148.9,65.3z"/>
	<path class="st1" d="M148.9,62.8c-0.6,0-1-0.4-1-1V35.2c0-0.6,0.4-1,1-1s1,0.4,1,1v26.6C149.9,62.3,149.5,62.8,148.9,62.8"/>
	<path class="st0" d="M85.9,63.8c-1.4,0-2.4-0.7-3.2-1.2c-0.3-0.2-0.5-0.5-0.9-0.9c-0.9-1-2.4-2.6-3.7-2.5c-0.6,0-1.2,0.5-1.8,1.3
		c-1.4,2-3,3.1-4.8,3.2c-1.8,0.1-3.5-0.7-5.3-2.5c-1.9-1.9-4.1-1.8-6.7,0.5c-1.8,1.6-3.4,1.7-4.5,1.6c-1.5-0.2-3-1.2-4-2.7
		c-0.8-1.2-2.4-0.9-2.5-0.9c-0.5,0.1-1.1-0.2-1.2-0.8c-0.1-0.5,0.2-1.1,0.8-1.2c0.1,0,3-0.6,4.5,1.8c0.7,1,1.6,1.7,2.6,1.8
		c0.9,0.1,1.9-0.3,2.9-1.1c3.4-3,6.8-3.1,9.4-0.4c1.3,1.4,2.6,2,3.7,1.9s2.2-0.9,3.3-2.4c0.9-1.3,2-2,3.3-2.1
		c2.3-0.1,4.2,1.9,5.3,3.1c0.2,0.2,0.5,0.5,0.6,0.6c0.9,0.6,1.6,1.1,2.8,0.8c0.5-0.1,1.1,0.2,1.2,0.7c0.1,0.5-0.2,1.1-0.7,1.2
		C86.8,63.8,86.4,63.8,85.9,63.8"/>
	<path class="st0" d="M61.4,79.7c-3.5,0-6.4-2.9-6.4-6.4s2.9-6.4,6.4-6.4c0.6,0,1,0.4,1,1s-0.4,1-1,1c-2.4,0-4.4,2-4.4,4.4
		s2,4.4,4.4,4.4s4.4-2,4.4-4.4c0-0.6,0.4-1,1-1s1,0.4,1,1C67.8,76.8,64.9,79.7,61.4,79.7"/>
	<path class="st0" d="M71.3,92.4c-2.3,0-4.2-1.9-4.2-4.2c0-0.7,0.2-1.5,0.6-2.1c0.3-0.5,0.9-0.6,1.4-0.4c0.5,0.3,0.6,0.9,0.3,1.4
		c-0.2,0.3-0.3,0.7-0.3,1.1c0,1.2,1,2.2,2.2,2.2s2.2-1,2.2-2.2s-1-2.2-2.2-2.2c-0.6,0-1-0.4-1-1s0.4-1,1-1c2.3,0,4.2,1.9,4.2,4.2
		S73.6,92.4,71.3,92.4"/>
	<path class="st0" d="M98.2,82.5H81.7c-0.6,0-1-0.4-1-1s0.4-1,1-1h16.5c0.6,0,1,0.4,1,1S98.8,82.5,98.2,82.5"/>
	<path class="st0" d="M98.5,73.1h-8.2c-0.6,0-1-0.4-1-1s0.4-1,1-1h8.2c0.6,0,1,0.4,1,1S99,73.1,98.5,73.1"/>
	<path class="st0" d="M98.5,63.4h-8.2c-0.6,0-1-0.4-1-1s0.4-1,1-1h8.2c0.6,0,1,0.4,1,1C99.5,62.9,99,63.4,98.5,63.4"/>
	<path class="st0" d="M98.5,53.6h-8.2c-0.6,0-1-0.4-1-1s0.4-1,1-1h8.2c0.6,0,1,0.4,1,1C99.5,53.1,99,53.6,98.5,53.6"/>
</g>
</svg>
