<?xml version="1.0" encoding="utf-8"?>
<!-- Generator: Adobe Illustrator 25.2.0, SVG Export Plug-In . SVG Version: 6.00 Build 0)  -->
<svg version="1.1" id="Layer_1" xmlns="http://www.w3.org/2000/svg" xmlns:xlink="http://www.w3.org/1999/xlink" x="0px" y="0px"
	 viewBox="0 0 200 200" style="enable-background:new 0 0 200 200;" xml:space="preserve">
<style type="text/css">
	.st0{fill:#37A0A5;}
	.st1{fill:#113A60;}
</style>
<g>
	<path class="st0" d="M63.4,77.6c-0.8,0-1.5-0.6-1.5-1.4c-0.4-7.3-0.9-24.7,2.5-27.5c0.6-0.5,1.6-0.4,2.1,0.2
		c0.5,0.6,0.4,1.6-0.2,2.1c-1.5,1.4-2,14.1-1.4,25C64.9,76.9,64.3,77.6,63.4,77.6C63.5,77.6,63.4,77.6,63.4,77.6"/>
	<path class="st0" d="M141.5,77.6L141.5,77.6c-0.9-0.1-1.6-0.8-1.5-1.6c2-30.1-7.3-40.1-22.9-46.5c-34.7-9.9-46.5,11.6-47,12.5
		c-0.4,0.7-1.3,1-2,0.6s-1-1.3-0.6-2c0.1-0.2,13.4-24.6,50.6-14c0.1,0,0.1,0,0.2,0.1c16.9,6.8,26.9,17.5,24.8,49.5
		C143,77,142.3,77.6,141.5,77.6"/>
	<path class="st0" d="M101.7,124.3c-3.9,0-7.7-0.7-11.3-2.2c-7.1-2.9-16.5-9.4-20.8-23.8c0-0.1-0.1-0.3-0.1-0.4V70.5
		c0-0.3,0.1-0.5,0.2-0.7c0.4-0.7,9.6-16.6,32.5-17.5c15.9,0,30.7,14.3,32.7,20.3c0.1,0.2,0.1,0.3,0.1,0.5v23c0,0.1,0,0.1,0,0.2
		c-0.1,0.8-2.6,19-22.5,26.1C109,123.6,105.3,124.3,101.7,124.3 M72.5,97.6c4.1,13.1,12.6,19,19,21.7c6.2,2.6,13.3,2.7,19.9,0.3
		c17.7-6.3,20.4-22.1,20.6-23.6V73.3c-2.1-5.4-15.7-18.1-29.7-18.1C82.8,56,73.9,68.7,72.5,70.9V97.6z"/>
	<path class="st0" d="M71,92.2h-8.6c-0.2,0-0.4,0-0.5-0.1l-2.1-0.8c-3.1-1.2-5.1-4.1-5.1-7.4s2-6.2,5.1-7.4l2.2-0.8
		c0.2-0.1,0.4-0.1,0.5-0.1H71c0.8,0,1.5,0.7,1.5,1.5s-0.7,1.5-1.5,1.5h-8.4l-1.9,0.7c-2.3,0.9-3.2,3-3.1,4.6c0,1.6,0.9,3.7,3.2,4.6
		l1.9,0.7H71c0.8,0,1.5,0.7,1.5,1.5C72.5,91.5,71.8,92.2,71,92.2"/>
	<path class="st0" d="M142.2,92.2h-8.6c-0.8,0-1.5-0.7-1.5-1.5s0.7-1.5,1.5-1.5h8.4l1.9-0.7c2.3-0.9,3.2-3,3.2-4.6s-0.8-3.7-3.2-4.6
		l-1.9-0.7h-8.4c-0.8,0-1.5-0.7-1.5-1.5s0.7-1.5,1.5-1.5h8.6c0.2,0,0.4,0,0.5,0.1l2.2,0.8c3.1,1.2,5.1,4.1,5.1,7.4s-2,6.2-5.1,7.4
		l-2.1,0.8C142.5,92.1,142.3,92.2,142.2,92.2"/>
	<path class="st0" d="M117.4,120c-0.4,0-0.9-0.2-1.2-0.5c-0.5-0.6-0.4-1.6,0.2-2.1c4.1-3.4,10.4-12.9,10.8-20.2
		c0.2-2.6-0.4-4.7-1.8-6.1c-13.5-11.8-38.3-6.8-44.7-1.6c-1.9,1.6-2.9,3.6-3.1,6.1c-0.7,9.4,10,21.8,10.1,22
		c0.5,0.6,0.5,1.6-0.1,2.1s-1.6,0.5-2.1-0.1C85,119.1,73.8,106,74.7,95.4c0.3-3.3,1.7-6.1,4.2-8.2c7.2-5.9,33.7-11.4,48.7,1.7
		l0.1,0.1c2,2.1,2.9,4.9,2.7,8.4c-0.5,8.2-7.3,18.5-11.9,22.3C118.1,119.9,117.8,120,117.4,120"/>
	<path class="st1" d="M97.7,124c-0.8,0-1.5-0.7-1.5-1.5v-12.3c0-0.8,0.7-1.5,1.5-1.5s1.5,0.7,1.5,1.5v12.3
		C99.2,123.3,98.5,124,97.7,124"/>
	<path class="st1" d="M106.6,124c-0.8,0-1.5-0.7-1.5-1.5v-12.3c0-0.8,0.7-1.5,1.5-1.5s1.5,0.7,1.5,1.5v12.3
		C108.1,123.3,107.5,124,106.6,124"/>
	<path class="st1" d="M102.3,112.5c-6.3,0-11.4-4.9-11.4-10.9s5.1-10.9,11.4-10.9s11.4,4.9,11.4,10.9S108.5,112.5,102.3,112.5
		 M102.3,93.6c-4.7,0-8.5,3.6-8.5,8s3.8,8,8.5,8s8.5-3.6,8.5-8C110.7,97.2,106.9,93.6,102.3,93.6"/>
	<path class="st0" d="M89.2,74.4h-5.6c-0.8,0-1.5-0.7-1.5-1.5s0.7-1.5,1.5-1.5h5.6c0.8,0,1.5,0.7,1.5,1.5
		C90.6,73.8,90,74.4,89.2,74.4"/>
	<path class="st0" d="M120.3,74.4h-5.6c-0.8,0-1.5-0.7-1.5-1.5s0.7-1.5,1.5-1.5h5.6c0.8,0,1.5,0.7,1.5,1.5
		C121.8,73.8,121.1,74.4,120.3,74.4"/>
	<path class="st0" d="M59.3,141.8c-0.6,0-1.1-0.3-1.3-0.9c-0.3-0.7,0-1.6,0.7-1.9L83,128.3v-11.1c0-0.8,0.7-1.5,1.5-1.5
		s1.5,0.7,1.5,1.5v12.1c0,0.6-0.3,1.1-0.9,1.3l-25.2,11.1C59.7,141.7,59.5,141.8,59.3,141.8"/>
	<path class="st0" d="M145.5,141.8c-0.2,0-0.4,0-0.6-0.1l-25.2-11.1c-0.5-0.2-0.9-0.8-0.9-1.3v-12.1c0-0.8,0.7-1.5,1.5-1.5
		s1.5,0.7,1.5,1.5v11.1l24.3,10.7c0.7,0.3,1.1,1.2,0.7,1.9C146.6,141.5,146,141.8,145.5,141.8"/>
	<path class="st0" d="M166.9,165.9H37.5c-0.8,0-1.5-0.7-1.5-1.5v-10.6c0-8.1,6.6-14.7,14.7-14.7h103c8.1,0,14.7,6.6,14.7,14.7v10.6
		C168.3,165.3,167.7,165.9,166.9,165.9 M39,163h126.4v-9.1c0-6.5-5.3-11.7-11.7-11.7h-103c-6.5,0-11.7,5.3-11.7,11.7L39,163z"/>
	<path class="st1" d="M110.3,165.9H94.6c-0.8,0-1.5-0.7-1.5-1.5v-31.5c0-5.1,4.2-9.3,9.3-9.3c5.1,0,9.3,4.2,9.3,9.3v31.5
		C111.8,165.3,111.1,165.9,110.3,165.9 M96,163h12.8v-30.1c0-3.5-2.9-6.4-6.4-6.4s-6.4,2.9-6.4,6.4V163z"/>
	<path class="st1" d="M110.3,144.9c-0.8,0-1.5-0.7-1.5-1.5c0-3.5-2.9-6.4-6.4-6.4s-6.4,2.9-6.4,6.4c0,0.8-0.7,1.5-1.5,1.5
		s-1.5-0.7-1.5-1.5c0-5.1,4.2-9.3,9.3-9.3c5.1,0,9.3,4.2,9.3,9.3C111.8,144.2,111.1,144.9,110.3,144.9"/>
	<path class="st1" d="M110.3,157.2c-0.8,0-1.5-0.7-1.5-1.5c0-3.5-2.9-6.4-6.4-6.4s-6.4,2.9-6.4,6.4c0,0.8-0.7,1.5-1.5,1.5
		s-1.5-0.7-1.5-1.5c0-5.1,4.2-9.3,9.3-9.3c5.1,0,9.3,4.2,9.3,9.3C111.8,156.6,111.1,157.2,110.3,157.2"/>
</g>
</svg>
