<?xml version="1.0" encoding="utf-8"?>
<!-- Generator: Adobe Illustrator 25.2.0, SVG Export Plug-In . SVG Version: 6.00 Build 0)  -->
<svg version="1.1" id="Layer_1" xmlns="http://www.w3.org/2000/svg" xmlns:xlink="http://www.w3.org/1999/xlink" x="0px" y="0px"
	 viewBox="0 0 120.5 120" style="enable-background:new 0 0 120.5 120;" xml:space="preserve">
<g>
	<path style="fill:#12395F;" d="M21.2,100.5c0,0-0.1,0-0.1,0c-0.7-0.1-1.2-0.7-1.1-1.4c0.1-0.5,1.5-11.8,9.9-15.1
		c1.8-0.7,3.8-1.3,6-1.9c7.6-2.1,15.5-4.3,15.4-12.7c0-0.7,0.5-1.3,1.2-1.3h0c0.7,0,1.2,0.5,1.2,1.2c0.2,10.3-9.5,13-17.2,15.1
		c-2.1,0.6-4.1,1.1-5.7,1.8c-7.1,2.8-8.4,13-8.4,13.1C22.4,100.1,21.8,100.5,21.2,100.5"/>
	<path style="fill:#12395F;" d="M101.6,100.5c-0.6,0-1.2-0.5-1.2-1.1c0-0.1-1.3-10.3-8.4-13.1c-1.6-0.6-3.6-1.2-5.7-1.8
		c-7.1-2-15.9-4.6-17-12.6c-0.1-0.7,0.4-1.3,1.1-1.4c0.7-0.1,1.3,0.4,1.4,1.1c0.9,6.4,8.5,8.6,15.3,10.6c2.1,0.6,4.1,1.2,5.9,1.9
		c8.5,3.4,9.9,14.6,9.9,15.1c0.1,0.7-0.4,1.3-1.1,1.4C101.7,100.5,101.6,100.5,101.6,100.5"/>
	<path style="fill:#12395F;" d="M61.6,74.6c-2.2,0-4.8-0.8-7.6-3.2c-0.5-0.4-1-0.8-1.5-1.1c-4.2-3.1-8.1-6-7.9-10.6
		c0.1-4.2,0-14.4,0-15.3c-0.1-0.6-0.4-5.3,2.3-8c1.4-1.4,3.3-2,5.8-1.8c0,0,0.1,0,0.1,0c1.7,0.3,3.2,0.8,4.7,1.3
		c2.3,0.8,4.3,1.4,6.6,1.3c1-0.1,2.4-0.3,2.9-1.2c0.4-0.7,0.3-1.8-0.3-3c-0.1-0.3-0.2-0.7,0-1c0.1-0.3,0.4-0.6,0.7-0.7
		c0.9-0.4,2.2-0.2,3.8,0.6c2.9,1.5,6.3,4.8,7,8.5c0.1,0.7-0.3,1.3-1,1.5c-0.7,0.1-1.3-0.3-1.5-1c-0.6-3.2-3.9-6-6-7
		c0.3,1.5-0.1,2.6-0.5,3.3c-0.6,1-1.9,2.2-4.9,2.4c-2.8,0.2-5.1-0.6-7.5-1.4c-1.4-0.5-2.8-0.9-4.3-1.2c-1.6-0.2-2.8,0.2-3.7,1
		c-2,2-1.6,6-1.6,6c0,0,0,0.1,0,0.1c0,0.4,0.2,11,0,15.4c-0.1,3.3,3,5.6,6.9,8.5c0.5,0.4,1.1,0.8,1.6,1.2c6.5,5.6,11.5,0.4,11.7,0.2
		c0.5-0.5,1.3-0.5,1.8-0.1c0.5,0.5,0.5,1.3,0.1,1.8C69.1,71.4,66.1,74.6,61.6,74.6"/>
	<path style="fill:#12395F;" d="M45.8,61c-0.1,0-0.1,0-0.2,0c-0.2,0-4.4-0.6-5.9-5.6c-1-3.2-1.7-6.4,0.1-8.4
		c1.2-1.4,3.2-1.9,6.1-1.5c0.7,0.1,1.2,0.7,1.1,1.4c-0.1,0.7-0.7,1.2-1.4,1.1c-1.4-0.2-3.1-0.2-3.8,0.6c-1.1,1.3,0,4.6,0.4,6.1
		c1.1,3.4,3.8,3.8,3.8,3.8c0.7,0.1,1.2,0.7,1.1,1.4C47,60.5,46.5,61,45.8,61"/>
	<path style="fill:#12395F;" d="M41.6,48.2c-0.5,0-1-0.4-1.2-0.9c-0.1-0.4-3-10.7,1.8-18.9c4.8-8.2,11.4-11.6,21.2-11.1
		c5.9,0.4,21,5.6,20,24.7c0,0.7-0.6,1.2-1.3,1.2c-0.7,0-1.2-0.6-1.2-1.3c1.1-20.6-17.5-22.1-17.7-22.1c-8.9-0.4-14.6,2.5-18.9,9.9
		c-4.3,7.3-1.6,16.9-1.6,16.9c0.2,0.7-0.2,1.4-0.9,1.5C41.8,48.2,41.7,48.2,41.6,48.2"/>
	<path style="fill:#12395F;" d="M61.4,87.8c-0.5,0-1.1,0-1.7-0.1c-9.5-0.7-12.1-8.6-12.2-8.9c-0.2-0.7,0.1-1.4,0.8-1.6
		c0.7-0.2,1.4,0.1,1.6,0.8c0.1,0.3,2.3,6.6,10,7.2c9.2,0.7,12.4-4.9,13.4-7.3c0.3-0.6,1-1,1.6-0.7c0.6,0.2,1,1,0.7,1.6
		C74.5,81.6,71,87.8,61.4,87.8"/>
	<path style="fill:#12395F;" d="M71.7,69.2c-0.4,0-0.7-0.2-1-0.5c-0.4-0.5-0.3-1.3,0.2-1.8c1.9-1.5,4.8-4.5,4.8-5.9V47.1
		c0-0.6,0.4-1.1,0.9-1.2c0.4-0.1,3.7-0.9,5.8,0.9c1.2,1,1.7,2.7,1.4,4.8c-0.7,5.9-3.1,7.8-5.6,8.8V61c0,3.1-4.8,7.1-5.7,7.9
		C72.3,69.1,72,69.2,71.7,69.2 M78.2,48.2v9.5c1.4-0.8,2.7-2.4,3.2-6.4c0.2-1.3,0-2.2-0.6-2.6C80.2,48.1,79.1,48.1,78.2,48.2"/>
	<path style="fill:#00969C;" d="M76.5,74c-9.4,0-17-7.6-17-17c0-9.4,7.6-17,17-17c9.4,0,17,7.6,17,17C93.5,66.4,85.8,74,76.5,74
		 M76.5,42.5c-8,0-14.5,6.5-14.5,14.5c0,8,6.5,14.5,14.5,14.5C84.5,71.5,91,65,91,57C91,49,84.5,42.5,76.5,42.5"/>
	<path style="fill:#00969C;" d="M98.6,83.1c-0.9,0-1.8-0.4-2.5-1L84.9,70.8c-0.5-0.5-0.5-1.3,0-1.8c0.5-0.5,1.3-0.5,1.8,0l11.3,11.3
		c0.4,0.4,1,0.4,1.4,0c0.4-0.4,0.4-1,0-1.4L88.1,67.6c-0.5-0.5-0.5-1.3,0-1.8c0.5-0.5,1.3-0.5,1.8,0l11.3,11.3c1.4,1.4,1.4,3.6,0,5
		C100.5,82.7,99.6,83.1,98.6,83.1"/>
	<rect x="67.7" y="61.8" style="fill:#00969C;" width="2.4" height="2.5"/>
	<rect x="64.6" y="55.9" style="fill:#00969C;" width="2.4" height="2.5"/>
	<rect x="70.8" y="57.5" style="fill:#00969C;" width="2.4" height="2.5"/>
	<rect x="70" y="46.2" style="fill:#00969C;" width="2.4" height="2.5"/>
	<rect x="65.3" y="50.6" style="fill:#00969C;" width="2.4" height="2.5"/>
	<rect x="71.9" y="51.1" style="fill:#00969C;" width="2.4" height="2.5"/>
</g>
</svg>
