<?xml version="1.0" encoding="utf-8"?>
<!-- Generator: Adobe Illustrator 25.2.0, SVG Export Plug-In . SVG Version: 6.00 Build 0)  -->
<svg version="1.1" id="Layer_1" xmlns="http://www.w3.org/2000/svg" xmlns:xlink="http://www.w3.org/1999/xlink" x="0px" y="0px"
	 viewBox="0 0 120.5 120" style="enable-background:new 0 0 120.5 120;" xml:space="preserve">
<g>
	<path style="fill:#12395F;" d="M72,102.1H50c-0.6,0-1-0.4-1-1V82.9L34.2,93.3c-0.5,0.3-1.1,0.2-1.4-0.2l-12.7-18
		c-0.2-0.2-0.2-0.5-0.2-0.8c0-0.3,0.2-0.5,0.4-0.6l20.2-13.6L20.3,46.4c-0.2-0.2-0.4-0.4-0.4-0.7c0-0.3,0-0.5,0.2-0.8l13.3-18.4
		c0.2-0.2,0.4-0.4,0.7-0.4c0.3,0,0.5,0,0.8,0.2L49,37.1V18.9c0-0.6,0.4-1,1-1h22.8c0.6,0,1,0.4,1,1v18.2L87.6,27
		c0.2-0.2,0.5-0.2,0.8-0.2c0.3,0,0.5,0.2,0.7,0.4L101.4,45c0.3,0.5,0.2,1.1-0.2,1.4L81.7,60.1l19.5,13.6c0.4,0.3,0.6,0.9,0.3,1.4
		L89,93.1c-0.2,0.2-0.4,0.4-0.6,0.4c-0.3,0-0.5,0-0.8-0.2L73,82.9v18.2C73,101.7,72.6,102.1,72,102.1 M51,100.1h20V81
		c0-0.4,0.2-0.7,0.5-0.9c0.3-0.2,0.7-0.1,1,0.1L88,91.1l11.2-16.4L79.4,60.9c-0.3-0.2-0.4-0.5-0.4-0.8c0-0.3,0.2-0.6,0.4-0.8
		l19.8-14L88,29.2L73.4,39.9c-0.3,0.2-0.7,0.3-1,0.1c-0.3-0.2-0.5-0.5-0.5-0.9V19.9H51v19.2c0,0.4-0.2,0.7-0.6,0.9
		c-0.3,0.2-0.7,0.1-1-0.1l-15-11.3L22.3,45.3l20.6,14c0.3,0.2,0.4,0.5,0.4,0.8c0,0.3-0.2,0.6-0.4,0.8L22.3,74.7l11.6,16.4l15.6-10.9
		c0.3-0.2,0.7-0.2,1-0.1c0.3,0.2,0.5,0.5,0.5,0.9V100.1z"/>
	<path style="fill:#00969C;" d="M63,53.2c-0.4,0-0.8-0.2-0.9-0.6c-0.2-0.5,0.1-1.1,0.6-1.3c3.8-1.4,5.8-3.7,6-6.8
		c0.1-1.5-0.5-2.7-1.6-3.6c-1.3-1-3.1-1.2-4.7-0.7c-0.3,0.1-0.6,0.1-0.8-0.1c-2.1-1.2-3.9-1.2-5.4,0.1c-0.2,0.2-0.2,0.4-0.2,0.5
		c0,0.2,0.1,0.4,0.3,0.5c2.2,1.7,5.3,0,5.4-0.1c0.3-0.2,0.7-0.2,1,0c1,0.7,2.4,1.4,2.7,1.6c0.6,0.1,1,0.6,1.1,1.2
		c0.1,0.6,0,2.2-3,3.3c-0.5,0.2-1.1-0.1-1.3-0.6c-0.2-0.5,0.1-1.1,0.6-1.3c0.9-0.3,1.4-0.7,1.6-0.9c-0.4-0.2-1.1-0.6-2.3-1.3
		c-1.3,0.6-4.4,1.6-7-0.4c-0.7-0.5-1.1-1.2-1.1-2.1c0-0.8,0.3-1.6,0.9-2.1c1.2-1.1,3.7-2.5,7.3-0.5c2.1-0.6,4.4-0.2,6.1,1.1
		c1.7,1.3,2.6,3.2,2.4,5.3c-0.2,3.9-2.8,6.8-7.3,8.5C63.2,53.2,63.1,53.2,63,53.2"/>
	<path style="fill:#00969C;" d="M62.5,75.5c-0.4,0-0.8-0.3-1-0.7c-0.2-0.5,0.1-1.1,0.7-1.2c0.1,0,6.3-1.9,6-6.2
		c-0.3-3.7-4.8-5.9-8.2-7.5c-0.6-0.3-1.1-0.5-1.6-0.8c-1.5-0.8-2.3-1.7-2.3-2.8c0-1.8,2.2-3,2.6-3.2c0.5-0.2,1.1,0,1.3,0.5
		c0.2,0.5,0,1.1-0.5,1.3c-0.7,0.4-1.5,1-1.5,1.4c0,0.2,0.2,0.5,1.2,1c0.5,0.2,1,0.5,1.5,0.7c3.8,1.8,9,4.2,9.3,9.1
		c0.4,5.9-7.1,8.2-7.4,8.3C62.7,75.5,62.6,75.5,62.5,75.5"/>
	<path style="fill:#00969C;" d="M62.5,71.4c-0.4,0-0.7-0.2-0.9-0.5c-0.2-0.5,0-1.1,0.4-1.3c1.1-0.6,2.3-1.6,2.3-2.1
		c0-0.2-0.3-0.4-0.7-0.7c-0.7-0.4-1.6-0.8-2.6-1.2c-3.4-1.5-8.1-3.6-9.4-7.7c-1.7-5.6,3.8-9.2,7-10.4c0.5-0.2,1.1,0.1,1.3,0.6
		c0.2,0.5-0.1,1.1-0.6,1.3c-0.3,0.1-7.3,2.7-5.7,7.9c1,3.2,5,5,8.3,6.5c1,0.5,2,0.9,2.7,1.3c1.4,0.8,1.7,1.8,1.7,2.5
		c-0.1,2-2.9,3.6-3.4,3.8C62.8,71.4,62.6,71.4,62.5,71.4"/>
	<path style="fill:#00969C;" d="M66.7,92.1c-0.1,0-0.1,0-0.2,0c-0.3,0-0.6-0.2-0.8-0.5c-0.2-0.3-0.2-0.6,0-0.9c0-0.1,0.1-0.2,0-0.6
		c-0.4-1-2-2.3-3.6-3c-0.4-0.2-0.8-0.3-1.3-0.5c-2.7-0.9-6.7-2.3-7.9-5.9c-1.9-5.9,6.1-9.6,6.5-9.8c0.5-0.2,1.1,0,1.3,0.5
		c0.2,0.5,0,1.1-0.5,1.3c-0.1,0-6.7,3.2-5.4,7.3c0.9,2.7,4.2,3.8,6.7,4.7c0.1,0.1,0.3,0.1,0.4,0.1c0,0,0,0-0.1,0
		c-3.1-1.5-6.4-3.1-6.5-5.8c-0.1-2.7,3.7-4.2,4.1-4.4c0.5-0.2,1.1,0.1,1.3,0.6c0.2,0.5-0.1,1.1-0.6,1.3c-0.9,0.3-2.9,1.4-2.8,2.4
		c0.1,1.5,3,2.9,5.4,4.1c1.7,0.9,3.4,1.7,4.4,2.6c1.9,1.8,2.2,3.9,1.6,5.2C68.1,91.6,67.4,92.1,66.7,92.1"/>
	<path style="fill:#00969C;" d="M61.1,93.5c-1.3,0-2.4-1.1-2.4-2.4v-5.9c0-0.6,0.4-1,1-1c0.6,0,1,0.4,1,1v5.9c0,0.2,0.2,0.4,0.4,0.4
		c0.2,0,0.4-0.2,0.4-0.4v-5c0-0.6,0.4-1,1-1s1,0.4,1,1v5C63.5,92.4,62.4,93.5,61.1,93.5"/>
	<path style="fill:#00969C;" d="M59.6,83.6c-0.6,0-1-0.4-1-1v-19c0-0.6,0.4-1,1-1c0.6,0,1,0.4,1,1v19C60.6,83.2,60.2,83.6,59.6,83.6
		"/>
	<path style="fill:#00969C;" d="M62.5,85c-0.6,0-1-0.4-1-1V65c0-0.6,0.4-1,1-1c0.6,0,1,0.4,1,1v19C63.5,84.5,63,85,62.5,85"/>
	<path style="fill:#00969C;" d="M59.2,59.6c-0.6,0-1-0.4-1-1V42.9c0-0.6,0.4-1,1-1c0.6,0,1,0.4,1,1v15.7
		C60.2,59.2,59.8,59.6,59.2,59.6"/>
	<path style="fill:#00969C;" d="M63,60.9c-0.6,0-1-0.4-1-1V42.5c0-0.6,0.4-1,1-1c0.6,0,1,0.4,1,1v17.5C64,60.5,63.5,60.9,63,60.9"/>
	<path style="fill:#00969C;" d="M63.2,40L63.2,40c-0.6,0-1-0.5-1-1l0-4.2c0-0.3-0.1-0.6-0.3-0.8c-0.4-0.5-1.2-0.4-1.7,0
		c-0.2,0.2-0.3,0.5-0.3,0.8l0,3.5c0,0.6-0.4,1-1,1h0c-0.5,0-1-0.4-1-1l0-3.5c0-0.9,0.3-1.7,0.9-2.3c1.2-1.2,3.3-1.2,4.5,0
		c0.6,0.6,0.9,1.4,0.9,2.3l0,4.2C64.2,39.5,63.7,40,63.2,40"/>
</g>
</svg>
