<?xml version="1.0" encoding="utf-8"?>
<!-- Generator: Adobe Illustrator 25.2.0, SVG Export Plug-In . SVG Version: 6.00 Build 0)  -->
<svg version="1.1" id="Layer_1" xmlns="http://www.w3.org/2000/svg" xmlns:xlink="http://www.w3.org/1999/xlink" x="0px" y="0px"
	 viewBox="0 0 120.5 120" style="enable-background:new 0 0 120.5 120;" xml:space="preserve">
<g>
	<path style="fill:#12395F;" d="M32.4,27.9c-0.3,0-0.5-0.1-0.7-0.3l-4.1-3.7h-8.8c-0.6,0-1.1-0.5-1.1-1.1c0-0.6,0.5-1.1,1.1-1.1H28
		c0.3,0,0.5,0.1,0.7,0.3l4.4,3.9c0.4,0.4,0.5,1.1,0.1,1.5C33,27.8,32.7,27.9,32.4,27.9"/>
	<path style="fill:#12395F;" d="M30.7,41.9c-0.3,0-0.6-0.1-0.8-0.3l-3.4-3.6c-1.7-1.7-1.6-4.5,0.1-6.2l12.9-12.8
		c1.7-1.7,4.3-1.7,6.1-0.1l3.8,3.5c0.4,0.4,0.5,1.1,0.1,1.5c-0.4,0.4-1.1,0.5-1.5,0.1l-3.8-3.5c-0.9-0.8-2.3-0.8-3.1,0.1L28.1,33.4
		c-0.9,0.9-0.9,2.3,0,3.2l3.4,3.6c0.4,0.4,0.4,1.1,0,1.5C31.2,41.8,31,41.9,30.7,41.9"/>
	<path style="fill:#12395F;" d="M34.1,47.1c-0.8,0-1.5-0.2-2.2-0.5l-4.4-2.1c-0.3-0.2-0.5-0.4-0.6-0.8c-0.1-0.3,0.1-0.7,0.3-0.9
		l24-23.1c0.2-0.2,0.6-0.3,0.9-0.3c0.3,0.1,0.6,0.3,0.8,0.6l1.8,3.4c1,2,0.7,4.3-0.9,5.9L37.7,45.6C36.7,46.6,35.4,47.1,34.1,47.1
		 M29.7,43.2l3,1.5c1.2,0.6,2.5,0.3,3.4-0.6l16.1-16.4c0.9-0.9,1.1-2.3,0.5-3.4l-1.1-2.2L29.7,43.2z"/>
	<path style="fill:#12395F;" d="M39.2,47.6c-0.6,0-1.3-0.3-1.7-0.7l-1.3-1.3c-0.4-0.4-0.4-1.1,0-1.5c0.4-0.4,1.1-0.4,1.5,0l1.3,1.3
		c0.1,0.1,0.1,0.1,0.2,0.1c0.1,0,0.1,0,0.2-0.1l1.6-1.7c0.1-0.1,0.1-0.3,0-0.4l-1.2-1.3c-0.4-0.4-0.4-1.1,0.1-1.5
		c0.4-0.4,1.1-0.4,1.5,0.1l1.2,1.3c0.9,0.9,0.9,2.4,0,3.3l-1.6,1.7C40.5,47.3,39.8,47.6,39.2,47.6L39.2,47.6z"/>
	<path style="fill:#12395F;" d="M45.2,41.3c-0.6,0-1.3-0.3-1.7-0.7l-1.3-1.3c-0.4-0.4-0.4-1.1,0-1.5c0.4-0.4,1.1-0.4,1.5,0l1.3,1.3
		c0.1,0.1,0.2,0.1,0.2,0.1c0.1,0,0.1,0,0.2-0.1l1.6-1.7c0.1-0.1,0.1-0.3,0-0.4l-1.2-1.3c-0.4-0.4-0.4-1.1,0.1-1.5
		c0.4-0.4,1.1-0.4,1.5,0.1l1.2,1.3c0.9,0.9,0.9,2.4,0,3.3L47,40.6C46.5,41,45.9,41.3,45.2,41.3C45.2,41.3,45.2,41.3,45.2,41.3"/>
	<path style="fill:#12395F;" d="M51.4,35.1c-0.6,0-1.3-0.3-1.7-0.7l-1.3-1.3c-0.4-0.4-0.4-1.1,0-1.5c0.4-0.4,1.1-0.4,1.5,0l1.3,1.3
		c0.1,0.1,0.1,0.1,0.2,0.1c0.1,0,0.1,0,0.2-0.1l1.6-1.7c0.1-0.1,0.1-0.3,0-0.4l-1.2-1.3c-0.4-0.4-0.4-1.1,0.1-1.5
		c0.4-0.4,1.1-0.4,1.5,0.1l1.2,1.3c0.9,0.9,0.9,2.4,0,3.3l-1.6,1.7C52.7,34.8,52.1,35.1,51.4,35.1L51.4,35.1z"/>
	<path style="fill:#12395F;" d="M99.8,52.8H64.4c-1.6,0-2.9-1.3-2.9-2.9V27c0-1.6,1.3-2.9,2.9-2.9H89c0.6,0,1.1,0.5,1.1,1.1
		c0,0.6-0.5,1.1-1.1,1.1H64.4c-0.4,0-0.8,0.3-0.8,0.8v22.9c0,0.4,0.3,0.8,0.8,0.8h35.4c0.4,0,0.8-0.3,0.8-0.8V27
		c0-0.4-0.3-0.8-0.8-0.8h-6.4c-0.6,0-1.1-0.5-1.1-1.1c0-0.6,0.5-1.1,1.1-1.1h6.4c1.6,0,2.9,1.3,2.9,2.9v22.9
		C102.7,51.5,101.4,52.8,99.8,52.8"/>
	<path style="fill:#00969C;" d="M71.5,30.6h-5c-0.6,0-1.1-0.5-1.1-1.1c0-0.6,0.5-1.1,1.1-1.1h5c0.6,0,1.1,0.5,1.1,1.1
		C72.6,30.1,72.1,30.6,71.5,30.6"/>
	<path style="fill:#00969C;" d="M71.5,35.5h-5c-0.6,0-1.1-0.5-1.1-1.1c0-0.6,0.5-1.1,1.1-1.1h5c0.6,0,1.1,0.5,1.1,1.1
		C72.6,35,72.1,35.5,71.5,35.5"/>
	<path style="fill:#00969C;" d="M71.5,40.4h-5c-0.6,0-1.1-0.5-1.1-1.1c0-0.6,0.5-1.1,1.1-1.1h5c0.6,0,1.1,0.5,1.1,1.1
		C72.6,39.9,72.1,40.4,71.5,40.4"/>
	<path style="fill:#00969C;" d="M71.5,45.2h-5c-0.6,0-1.1-0.5-1.1-1.1c0-0.6,0.5-1.1,1.1-1.1h5c0.6,0,1.1,0.5,1.1,1.1
		C72.6,44.8,72.1,45.2,71.5,45.2"/>
	<path style="fill:#00969C;" d="M86.3,46.6c-0.4,0-0.8-0.2-1-0.6l-4.2-9l-1.9,2.6c-0.2,0.3-0.5,0.4-0.8,0.4h-4.1
		c-0.6,0-1.1-0.5-1.1-1.1c0-0.6,0.5-1.1,1.1-1.1h3.6l2.7-3.5c0.2-0.3,0.6-0.5,1-0.4c0.4,0,0.7,0.3,0.9,0.6l3.5,7.6l0.7-4.1
		c0.1-0.4,0.4-0.7,0.7-0.8c0.4-0.1,0.8,0,1.1,0.3l1.1,1.1l2.8-4.7c0.2-0.4,0.7-0.6,1.2-0.5c0.5,0.1,0.8,0.5,0.8,1v3.5h2.8
		c0.6,0,1.1,0.5,1.1,1.1c0,0.6-0.5,1.1-1.1,1.1h-3.9c-0.6,0-1.1-0.5-1.1-1.1v-0.8l-1.5,2.6c-0.2,0.3-0.5,0.5-0.8,0.5
		c-0.3,0-0.7-0.1-0.9-0.3l-0.6-0.6l-0.9,5.3c-0.1,0.5-0.4,0.8-0.9,0.9C86.4,46.6,86.4,46.6,86.3,46.6"/>
	<path style="fill:#12395F;" d="M102,72.9H18.5c-0.6,0-1.1-0.5-1.1-1.1v-3.1c0-3.1,2.5-5.7,5.7-5.7h29.1c0.6,0,1.1,0.5,1.1,1.1
		c0,0.6-0.5,1.1-1.1,1.1H23.1c-1.9,0-3.5,1.6-3.5,3.5v2.1H101v-2.1c0-1.9-1.6-3.5-3.5-3.5H56.9c-0.6,0-1.1-0.5-1.1-1.1
		c0-0.6,0.5-1.1,1.1-1.1h40.5c3.1,0,5.7,2.5,5.7,5.7v3.1C103.1,72.4,102.6,72.9,102,72.9"/>
	<path style="fill:#12395F;" d="M34,65.2H23.5c-0.6,0-1.1-0.5-1.1-1.1v-2.6c0-1.4,1.2-2.6,2.6-2.6h7.3c1.4,0,2.6,1.2,2.6,2.6v2.6
		C35,64.7,34.5,65.2,34,65.2 M24.6,63h8.3v-1.5c0-0.3-0.2-0.5-0.5-0.5h-7.3c-0.3,0-0.5,0.2-0.5,0.5V63z"/>
	<path style="fill:#12395F;" d="M92.8,78H39.5c-0.6,0-1.1-0.5-1.1-1.1c0-0.6,0.5-1.1,1.1-1.1h53.3c1.3,0,2.4-1.1,2.4-2.4v-0.5H25.4
		v0.5c0,1.3,1.1,2.4,2.4,2.4H35c0.6,0,1.1,0.5,1.1,1.1c0,0.6-0.5,1.1-1.1,1.1h-7.1c-2.5,0-4.6-2-4.6-4.6v-1.6c0-0.6,0.5-1.1,1.1-1.1
		h72c0.6,0,1.1,0.5,1.1,1.1v1.6C97.4,76,95.3,78,92.8,78"/>
	<path style="fill:#12395F;" d="M82.9,95.8c-0.6,0-1.1-0.5-1.1-1.1v-3.3c0-1-0.8-1.8-1.8-1.8H37.5c-1,0-1.8,0.8-1.8,1.8v3.3
		c0,0.6-0.5,1.1-1.1,1.1s-1.1-0.5-1.1-1.1v-3.3c0-2.2,1.8-3.9,3.9-3.9h42.5c2.2,0,3.9,1.8,3.9,3.9v3.3C84,95.3,83.5,95.8,82.9,95.8"
		/>
	<path style="fill:#12395F;" d="M34.7,102.2c-2.3,0-4.2-1.9-4.2-4.2c0-2.3,1.9-4.2,4.2-4.2c2.3,0,4.2,1.9,4.2,4.2
		C38.9,100.3,37,102.2,34.7,102.2 M34.7,95.9c-1.1,0-2.1,0.9-2.1,2.1s0.9,2.1,2.1,2.1c1.1,0,2.1-0.9,2.1-2.1S35.8,95.9,34.7,95.9"/>
	<path style="fill:#12395F;" d="M82.9,102.2c-2.3,0-4.2-1.9-4.2-4.2c0-2.3,1.9-4.2,4.2-4.2c2.3,0,4.2,1.9,4.2,4.2
		C87.1,100.3,85.2,102.2,82.9,102.2 M82.9,95.9c-1.1,0-2.1,0.9-2.1,2.1s0.9,2.1,2.1,2.1C84,100,85,99.1,85,98S84,95.9,82.9,95.9"/>
	<path style="fill:#12395F;" d="M69.3,89.7c-0.2,0-0.4-0.1-0.6-0.2L50.5,77.8c-0.5-0.3-0.6-1-0.3-1.5c0.3-0.5,1-0.6,1.5-0.3
		l18.2,11.7c0.5,0.3,0.6,1,0.3,1.5C70,89.5,69.7,89.7,69.3,89.7"/>
	<path style="fill:#12395F;" d="M48.8,89.7c-0.6,0-1.1-0.5-1.1-1.1v-4.2c0-0.4,0.3-0.8,0.7-1l19.8-7.5c0.5-0.2,1.2,0.1,1.4,0.6
		c0.2,0.5-0.1,1.2-0.6,1.4l-19.2,7.3v3.4C49.9,89.2,49.4,89.7,48.8,89.7"/>
</g>
</svg>
