<?xml version="1.0" encoding="utf-8"?>
<!-- Generator: Adobe Illustrator 25.2.0, SVG Export Plug-In . SVG Version: 6.00 Build 0)  -->
<svg version="1.1" id="Layer_1" xmlns="http://www.w3.org/2000/svg" xmlns:xlink="http://www.w3.org/1999/xlink" x="0px" y="0px"
	 viewBox="0 0 120.5 120" style="enable-background:new 0 0 120.5 120;" xml:space="preserve">
<g>
	<path style="fill:#00969C;" d="M32,39.9c-0.7,0-1.3-0.6-1.3-1.3V24.1c0-0.3,0.2-2.8,2.1-4.4c1.2-1,2.7-1.3,4.5-1
		c0.7,0.1,1.2,0.8,1.1,1.5c-0.1,0.7-0.8,1.2-1.5,1.1c-1-0.2-1.8,0-2.4,0.4c-1,0.8-1.1,2.4-1.1,2.4l0,14.4
		C33.3,39.3,32.7,39.9,32,39.9"/>
	<path style="fill:#00969C;" d="M60.1,39.9c-0.7,0-1.3-0.6-1.3-1.3V24.1c0,0-0.1-1.5-1.1-2.3c-0.6-0.5-1.4-0.6-2.4-0.4
		c-0.7,0.1-1.4-0.4-1.5-1.1c-0.1-0.7,0.4-1.4,1.1-1.5c1.8-0.3,3.3,0.1,4.5,1c1.9,1.5,2,4,2.1,4.3l0,14.5
		C61.4,39.3,60.8,39.9,60.1,39.9"/>
	<path style="fill:#00969C;" d="M45.6,81.5c-3.2,0-5.6-0.9-7.2-2.7c-2.1-2.3-2-5.2-1.9-5.8v-6.8c-7.8-3.8-8.6-12-8.6-12.3
		c0,0,0-0.1,0-0.1V40.2c0-1.9,1.6-3.5,3.5-3.5c1.9,0,3.5,1.6,3.5,3.5v10.1c0,6.3,4.4,10.9,10.9,11.4c6.5-0.5,10.9-5.1,10.9-11.4
		V40.2c0-1.9,1.6-3.5,3.5-3.5s3.5,1.6,3.5,3.5v13.7c0,0,0,0.1,0,0.1c0,0.4-0.8,8.6-8.6,12.3v6.8c0.1,0.6,0.2,3.5-1.8,5.7
		c-1.6,1.8-4.1,2.7-7.3,2.7H45.6z M45.7,78.9c0,0,0.1,0,0.1,0c2.5,0,4.3-0.6,5.3-1.8c1.4-1.6,1.2-3.7,1.2-3.7c0-0.1,0-0.1,0-0.2
		v-7.7c0-0.5,0.3-1,0.8-1.2c6.8-2.8,7.7-9.8,7.8-10.4V40.2c0-0.4-0.4-0.8-0.8-0.8c-0.4,0-0.8,0.4-0.8,0.8v10.1
		c0,7.7-5.6,13.5-13.5,14c-0.1,0-0.1,0-0.2,0c-8-0.6-13.5-6.3-13.5-14V40.2c0-0.4-0.4-0.8-0.8-0.8c-0.4,0-0.8,0.4-0.8,0.8v13.6
		c0.1,0.7,0.9,7.6,7.8,10.4c0.5,0.2,0.8,0.7,0.8,1.2v7.7c0,0,0,0.1,0,0.1c0,0-0.2,2.2,1.3,3.8C41.5,78.3,43.3,78.9,45.7,78.9
		L45.7,78.9z"/>
	<path style="fill:#00969C;" d="M45.6,76.6c-2.8,0-5.1-2.3-5.1-5.1v-4.1c0-0.7,0.6-1.3,1.3-1.3h7.5c0.7,0,1.3,0.6,1.3,1.3v4.1
		C50.7,74.3,48.4,76.6,45.6,76.6 M43.2,68.8v2.7c0,1.3,1.1,2.4,2.4,2.4s2.4-1.1,2.4-2.4v-2.7H43.2z"/>
	<path style="fill:#12395F;" d="M62.5,96.5h-1.8c-9,0-16.3-7.3-16.3-16.3c0-0.7,0.6-1.3,1.3-1.3c0.7,0,1.3,0.6,1.3,1.3
		c0,7.5,6.1,13.6,13.6,13.6h1.8c7.5,0,13.6-6.1,13.6-13.6V58.3c0-0.5-0.1-4,2.3-6.4c1.9-1.9,4.9-2.6,8.7-2.1
		c0.7,0.1,1.3,0.8,1.2,1.5c-0.1,0.7-0.8,1.3-1.5,1.2c-3-0.4-5.1,0.1-6.5,1.4c-1.7,1.7-1.6,4.3-1.6,4.3c0,0,0,0.1,0,0.1v22
		C78.8,89.2,71.4,96.5,62.5,96.5"/>
	<path style="fill:#00969C;" d="M94.6,59.9c-4.9,0-8.9-4-8.9-8.9c0-4.9,4-8.9,8.9-8.9c4.9,0,8.9,4,8.9,8.9
		C103.5,55.9,99.5,59.9,94.6,59.9 M94.6,44.8c-3.4,0-6.2,2.8-6.2,6.2c0,3.4,2.8,6.2,6.2,6.2c3.4,0,6.2-2.8,6.2-6.2
		C100.8,47.6,98,44.8,94.6,44.8"/>
	<path style="fill:#12395F;" d="M94.6,54.6c-2,0-3.6-1.6-3.6-3.6c0-2,1.6-3.6,3.6-3.6c2,0,3.6,1.6,3.6,3.6
		C98.2,53,96.6,54.6,94.6,54.6 M94.6,48.5c-1.4,0-2.5,1.1-2.5,2.5s1.1,2.5,2.5,2.5c1.4,0,2.5-1.1,2.5-2.5S96,48.5,94.6,48.5"/>
	<path style="fill:#12395F;" d="M43.7,23.8H37c-0.7,0-1.3-0.6-1.3-1.3v-4.8c0-0.7,0.6-1.3,1.3-1.3h6.7c0.7,0,1.3,0.6,1.3,1.3v4.8
		C45.1,23.2,44.5,23.8,43.7,23.8 M38.4,21.1h4V19h-4V21.1z"/>
	<path style="fill:#12395F;" d="M55,23.8h-6.7c-0.7,0-1.3-0.6-1.3-1.3v-4.8c0-0.7,0.6-1.3,1.3-1.3H55c0.7,0,1.3,0.6,1.3,1.3v4.8
		C56.4,23.2,55.8,23.8,55,23.8 M49.7,21.1h4V19h-4V21.1z"/>
</g>
</svg>
