<?xml version="1.0" encoding="utf-8"?>
<!-- Generator: Adobe Illustrator 25.2.0, SVG Export Plug-In . SVG Version: 6.00 Build 0)  -->
<svg version="1.1" id="Layer_1" xmlns="http://www.w3.org/2000/svg" xmlns:xlink="http://www.w3.org/1999/xlink" x="0px" y="0px"
	 viewBox="0 0 120.5 120" style="enable-background:new 0 0 120.5 120;" xml:space="preserve">
<g>
	<path style="fill:#12395F;" d="M84.2,32.1c-0.3,0-0.7-0.1-0.9-0.3c-2.7-2-5.1-2.9-10.1-1.5c-5.2,1.4-10-2.1-11.5-5.2
		c-1.2-2.6-0.9-9-0.8-9.8c0-0.7,0.7-1.2,1.5-1.2c0.8,0,1.4,0.6,1.3,1.3c-0.1,2.5-0.1,7.1,0.6,8.7c1,2.2,4.5,4.8,8,3.8
		c5.4-1.5,9-0.9,12.8,2c0.6,0.5,0.7,1.2,0.1,1.8C85,32,84.6,32.1,84.2,32.1"/>
	<path style="fill:#12395F;" d="M73.3,102.1c-0.8,0-1.4-0.6-1.4-1.2c0-3.1-1.5-5.2-4.5-6.4c-1.1-0.4-2.4-0.7-3.7-0.7h-22
		c-5.1,0-9.2-3.6-9.2-8.1c0-4.5,4.1-8.1,9.2-8.1h38.5c0.7,0,1.2-0.5,1.2-1.1c0-0.6-0.5-1.1-1.2-1.1l-34.7-0.3
		c-1.6,0-3.2-0.3-4.6-0.9c-3.6-1.4-6.2-4.2-7.5-8c-1.7-4.8-1-10.8,1.6-14.7c1.8-2.6,3.7-4.1,6-4.5c3.1-0.6,6.1,1.1,8.8,2.8
		c1.5,1,3.6,1.3,5.9,0.9c2.9-0.5,5.7-2.1,7.3-4.3c2.7-3.6,4-8.6-0.2-11.9c-7.6-6.2-7.4-11.9-7.4-12.2l0-7.2c0-0.7,0.6-1.2,1.4-1.2
		c0.8,0,1.4,0.6,1.4,1.2v7.2c0,0.1,0,4.9,6.5,10.2c4.6,3.5,4.9,9.4,0.7,15.1c-2.1,2.8-5.5,4.8-9.1,5.4c-3,0.5-5.9,0-8.1-1.4
		c-2.7-1.7-4.7-2.7-6.6-2.4c-1.4,0.3-2.8,1.3-4.1,3.3c-2.2,3.2-2.8,8.5-1.3,12.6c0.7,2.1,2.4,5,6,6.4c1,0.4,2.2,0.6,3.4,0.6L80.2,73
		c2.2,0,4,1.6,4,3.6c0,2-1.8,3.6-4.1,3.6H41.7c-3.5,0-6.3,2.5-6.3,5.6c0,3.1,2.8,5.6,6.3,5.6h22c1.7,0,3.4,0.3,4.9,0.9
		c4,1.5,6.2,4.6,6.2,8.6C74.7,101.6,74.1,102.1,73.3,102.1L73.3,102.1z"/>
	<path style="fill:#12395F;" d="M77.9,102.1c-0.8,0-1.4-0.5-1.4-1.2C76.3,90,66.2,89.6,65.7,89.6l-22.2,0c-2.2,0-4-1.6-4-3.6
		c0-2,1.8-3.6,4-3.6h38.3c3.5,0,6.3-2.5,6.3-5.6s-2.8-5.6-6.3-5.6H51.2c-3.5,0-6.8-1.4-9.1-3.8c-2.2-2.4-3.1-5.4-2.4-8.4
		c0.4-1.8,1.3-3,2.4-3.4c0.7-0.2,1.4,0.1,1.7,0.6c1.2,2.2,7.9,8,16.3,8.3c18,0.2,23.2-8.3,23.4-8.6c0.4-0.6,1.2-0.9,1.9-0.5
		c0.7,0.3,1,1.1,0.6,1.7c-0.2,0.4-5.9,10-25.2,10c-0.3,0-0.5,0-0.8,0c-7.8-0.2-14.5-4.6-17.5-8c0,0.1-0.1,0.3-0.1,0.4
		c-0.5,2.2,0.2,4.5,1.8,6.3c1.7,1.8,4.2,2.9,6.9,2.9h30.6c5.1,0,9.2,3.6,9.2,8.1c0,4.5-4.1,8.1-9.2,8.1H43.5c-0.7,0-1.2,0.5-1.2,1.1
		c0,0.6,0.5,1.1,1.2,1.1h22.3c0.2,0,13.3,0.5,13.5,13.8C79.3,101.5,78.7,102.1,77.9,102.1L77.9,102.1z"/>
	<path style="fill:#009492;stroke:#00969C;stroke-width:0.75;stroke-miterlimit:10;" d="M91.4,54.9H81.1c-1,0-1.7-0.7-1.7-1.5v-3.6
		h-4.1c-1,0-1.7-0.7-1.7-1.5v-9.1c0-0.8,0.8-1.5,1.7-1.5h4.1v-3.6c0-0.8,0.8-1.5,1.7-1.5h10.3c1,0,1.7,0.7,1.7,1.5v3.6h4.1
		c1,0,1.7,0.7,1.7,1.5v9.1c0,0.9-0.8,1.5-1.7,1.5h-4.1v3.6C93.2,54.2,92.4,54.9,91.4,54.9 M82.2,52.4h8.1v-3.6
		c0-0.9,0.8-1.5,1.7-1.5h4.1V40h-4.1c-1,0-1.7-0.7-1.7-1.5v-3.6h-8.1v3.6c0,0.9-0.8,1.5-1.7,1.5h-4.1v7.2h4.1c1,0,1.7,0.7,1.7,1.5
		V52.4z"/>
</g>
</svg>
