<?xml version="1.0" encoding="utf-8"?>
<!-- Generator: Adobe Illustrator 25.2.0, SVG Export Plug-In . SVG Version: 6.00 Build 0)  -->
<svg version="1.1" id="Layer_1" xmlns="http://www.w3.org/2000/svg" xmlns:xlink="http://www.w3.org/1999/xlink" x="0px" y="0px"
	 viewBox="0 0 120.5 120" style="enable-background:new 0 0 120.5 120;" xml:space="preserve">
<g>
	<path style="fill:#12395F;" d="M38.8,60.1c-0.2,0-0.4,0-0.6-0.1c-0.6-0.3-0.9-1.1-0.5-1.7c0,0,2.1-4.6-1.2-15.4
		c-3.2-10.4-2.1-15.2-2.1-15.4c0.2-0.7,0.8-1.1,1.5-0.9c0.7,0.2,1.1,0.8,0.9,1.5c0,0.1-0.9,4.4,2,14c3.7,11.9,1.2,17,1.1,17.3
		C39.7,59.9,39.3,60.1,38.8,60.1"/>
	<path style="fill:#12395F;" d="M31.8,87.9c-0.7,0-1.2-0.5-1.2-1.2c-0.5-10.5,4.6-20,4.8-20.4c0.3-0.6,1.1-0.8,1.7-0.5
		c0.6,0.3,0.8,1.1,0.5,1.7c0,0.1-5,9.3-4.5,19.1C33.1,87.3,32.5,87.8,31.8,87.9C31.8,87.9,31.8,87.9,31.8,87.9"/>
	<path style="fill:#12395F;" d="M97,87.9C97,87.9,96.9,87.9,97,87.9c-0.7,0-1.3-0.6-1.2-1.3c0.2-4.9-2.2-14.5-5.3-20.8
		C87.2,59,86.7,52.6,89,44.3c3.5-12.6,2.6-15.7,2.6-15.9c-0.3-0.6,0-1.3,0.5-1.6c0.6-0.3,1.4-0.1,1.7,0.5c0.4,0.7,1.4,4.1-2.4,17.7
		c-2.1,7.7-1.7,13.5,1.3,19.7c3.2,6.8,5.7,16.6,5.5,22C98.2,87.3,97.6,87.9,97,87.9"/>
	<path style="fill:#00969C;" d="M74.4,45.2c-5.5,0-7.5-5.1-7.9-7.9c-0.1-0.7,0.4-1.3,1.1-1.4c0.7-0.1,1.3,0.4,1.4,1.1
		c0,0.2,0.8,6,5.8,5.7c0.7,0,1.3,0.5,1.3,1.2c0,0.7-0.5,1.3-1.2,1.3C74.7,45.2,74.6,45.2,74.4,45.2"/>
	<path style="fill:#00969C;" d="M70.3,42.6c-0.3,0-0.6-0.1-0.9-0.4c-0.5-0.5-0.5-1.3,0-1.8L89,21c0.5-0.5,1.3-0.5,1.8,0l2.3,2.3
		l8.2-7.8c0.5-0.5,1.3-0.5,1.8,0c0.5,0.5,0.5,1.3,0,1.8l-9,8.6c-0.5,0.5-1.3,0.5-1.7,0l-2.3-2.3L71.2,42.3
		C71,42.5,70.7,42.6,70.3,42.6"/>
	<path style="fill:#00969C;" d="M89.9,23.2c-0.3,0-0.6-0.1-0.9-0.4l-2.8-2.9c-0.2-0.2-0.4-0.6-0.4-0.9c0-0.3,0.2-0.7,0.4-0.9
		l3.6-3.2c0.5-0.5,1.3-0.4,1.8,0.1c0.5,0.5,0.4,1.3-0.1,1.8l-2.6,2.3l1.9,1.9c0.5,0.5,0.5,1.3,0,1.8C90.5,23,90.2,23.2,89.9,23.2"/>
	<path style="fill:#00969C;" d="M88.8,29.1c-0.3,0-0.6-0.1-0.9-0.4L83,23.9c-0.5-0.5-0.5-1.3,0-1.8c0.5-0.5,1.3-0.5,1.8,0l4.9,4.9
		c0.5,0.5,0.5,1.3,0,1.8C89.5,29,89.2,29.1,88.8,29.1"/>
	<path style="fill:#12395F;" d="M49,69.5c-0.3,0-0.7-0.1-0.9-0.4c-0.5-0.5-0.4-1.3,0.1-1.8c3.7-3.3,0.2-7.9,0.1-8.1
		c-0.4-0.5-0.3-1.3,0.2-1.8c0.5-0.4,1.3-0.3,1.8,0.2c1.8,2.3,4,7.6-0.4,11.5C49.6,69.4,49.3,69.5,49,69.5"/>
	<path style="fill:#12395F;" d="M27.1,69.1h-5.3c-0.7,0-1.2-0.6-1.2-1.2c0-0.7,0.6-1.2,1.2-1.2h4.1v-3.2c0-0.7,0.6-1.2,1.2-1.2
		l23.4-0.1h0c0.7,0,1.2,0.6,1.2,1.2c0,0.7-0.6,1.3-1.2,1.3l-22.1,0v3.2C28.3,68.5,27.8,69.1,27.1,69.1"/>
	<path style="fill:#12395F;" d="M27.1,64.6c-0.7,0-1.2-0.6-1.2-1.2v-2.8h-3.2c-0.7,0-1.2-0.6-1.2-1.2c0-0.7,0.6-1.2,1.2-1.2h4.5
		c0.7,0,1.2,0.6,1.2,1.2v4C28.3,64.1,27.8,64.6,27.1,64.6"/>
	<path style="fill:#12395F;" d="M32,68L32,68c-0.7,0-1.3-0.6-1.2-1.3l0-6.9c0-0.7,0.6-1.2,1.2-1.2h0c0.7,0,1.2,0.6,1.2,1.3l0,6.9
		C33.3,67.5,32.7,68,32,68"/>
	<path style="fill:#00969C;" d="M69.4,76.1c0,0-0.1,0-0.1,0c-0.7-0.1-1.2-0.7-1.1-1.4c0.6-5.8,6.2-7.1,9.1-7c0.7,0,1.2,0.6,1.2,1.3
		c0,0.7-0.6,1.2-1.3,1.2c-0.2,0-6-0.1-6.5,4.8C70.6,75.6,70,76.1,69.4,76.1"/>
	<path style="fill:#00969C;" d="M88.4,101.7c-0.4,0-0.8-0.2-1-0.5l-3.3-4.7c-0.4-0.6-0.3-1.3,0.3-1.7l2.6-1.9L71.6,71.5
		c-0.4-0.6-0.3-1.3,0.3-1.7c0.6-0.4,1.3-0.3,1.7,0.3l16.1,22.4c0.4,0.6,0.3,1.3-0.3,1.7l-2.6,1.9l2.6,3.7c0.4,0.6,0.3,1.3-0.3,1.7
		C88.9,101.6,88.7,101.7,88.4,101.7"/>
	<path style="fill:#00969C;" d="M83.1,92.4c-0.4,0-0.8-0.2-1-0.5c-0.4-0.6-0.3-1.3,0.3-1.7l5.6-4.1c0.6-0.4,1.3-0.3,1.7,0.3
		c0.4,0.6,0.3,1.3-0.3,1.7l-5.6,4.1C83.6,92.3,83.3,92.4,83.1,92.4"/>
	<path style="fill:#12395F;" d="M70.3,60.9c0,0-0.1,0-0.1,0c-0.7-0.1-1.2-0.7-1.1-1.4c0.4-4.3-4.9-5.6-5.1-5.6
		c-0.7-0.1-1.1-0.8-1-1.5c0.1-0.7,0.8-1.1,1.5-1c2.7,0.6,7.6,3.1,7.1,8.3C71.5,60.4,71,60.9,70.3,60.9"/>
	<path style="fill:#12395F;" d="M64.6,62.8c-1.8,0-3.4-1.7-3.4-3.9c0-2.1,1.5-3.9,3.4-3.9c1.8,0,3.3,1.7,3.3,3.9
		C68,61,66.5,62.8,64.6,62.8 M64.6,57.5c-0.4,0-0.9,0.6-0.9,1.4c0,0.8,0.5,1.4,0.9,1.4c0.4,0,0.8-0.6,0.8-1.4
		C65.5,58.1,65,57.5,64.6,57.5"/>
</g>
</svg>
