<?xml version="1.0" encoding="utf-8"?>
<!-- Generator: Adobe Illustrator 25.2.0, SVG Export Plug-In . SVG Version: 6.00 Build 0)  -->
<svg version="1.1" id="Layer_1" xmlns="http://www.w3.org/2000/svg" xmlns:xlink="http://www.w3.org/1999/xlink" x="0px" y="0px"
	 viewBox="0 0 120.5 120" style="enable-background:new 0 0 120.5 120;" xml:space="preserve">
<g>
	<path style="fill:#00969C;" d="M37.4,99.7c-1.3,0-3.8-0.2-5.5-1.9c-1.3-1.2-1.9-3-1.7-5.2c-0.2-3.1-2.2-4.2-2.3-4.2
		c-0.4-0.2-0.6-0.5-0.7-0.9c-0.1-0.4,0.1-0.8,0.4-1.1l1.6-1.5l-2.9-1.6c-0.5-0.3-0.8-0.8-0.6-1.4l1.8-7c0.2-0.7,0.9-1.1,1.5-0.9
		c0.7,0.2,1.1,0.8,0.9,1.5l-1.5,6.1l3.6,1.9c0.4,0.2,0.6,0.5,0.6,0.9c0.1,0.4-0.1,0.8-0.4,1.1l-1.8,1.7c1,1,2.2,2.7,2.3,5.4
		c0,0.1,0,0.1,0,0.2c-0.1,1.5,0.2,2.5,0.9,3.3c1.5,1.5,4.4,1.2,4.4,1.2l15.1-1.3c4.2-0.6,7.3-5.4,7.8-6.3L64,78.8
		c0.2-0.7,0.9-1,1.5-0.9c0.7,0.2,1,0.9,0.9,1.5l-3.1,10.9c0,0.1-0.1,0.2-0.1,0.3c-0.2,0.3-4,6.8-9.8,7.6l-15.2,1.4
		C38.2,99.7,37.9,99.7,37.4,99.7"/>
	<path style="fill:#00969C;" d="M87.3,100.7c-0.3,0-0.7-0.1-0.9-0.4c-2.6-2.8-4.8-13.9-4.7-23.7c0-0.4,0.2-0.8,0.6-1.1
		C91.7,70,97.8,61.3,99.6,51c0.8-7.5-1.1-14.1-5.6-19.5c-6.3-7.6-17.7-12.6-31.3-13.8c-25.6-2-33.1,16.8-35.1,25
		c-1.3,5.1,0.3,6.6,1.5,7.8c0.7,0.7,1.5,1.4,1.4,2.6c-0.2,2.2-2.2,5.1-4.5,8.6c-2,2.9-4.5,6.6-4.4,8.1c0.1,1.6,5.6,3.2,10.3,3.6
		c0.7,0.1,1.2,0.7,1.1,1.4s-0.7,1.2-1.4,1.1c-2.9-0.3-12.2-1.5-12.6-5.9c-0.2-2.4,2.2-6,4.8-9.7c1.9-2.7,4-5.9,4.1-7.3
		c0-0.1-0.4-0.4-0.6-0.6c-1.4-1.4-3.8-3.7-2.2-10.2c2.2-8.8,10.2-29,37.7-26.9c14.3,1.2,26.3,6.6,33,14.7c4.9,6,7,13.2,6.2,21.4
		c-1.8,10.9-8.1,20.1-17.8,26c0,9.4,2.2,19.3,4,21.3c0.5,0.5,0.4,1.3-0.1,1.8C87.9,100.6,87.6,100.7,87.3,100.7"/>
	<path style="fill:#12395F;" d="M84.3,55.1c-0.5,0-0.9-0.3-1.1-0.7c-0.3-0.6-0.1-1.4,0.6-1.7c2.9-1.4,4.2-3.5,3.7-5.8
		c-0.5-2.2-2.4-3.9-3.8-4c-0.4,0-0.8-0.2-1-0.6c-0.2-0.3-0.3-0.8-0.1-1.1c1-2.6,0.8-4.9-0.8-6.4c-1.5-1.5-3.9-2-5.9-1.3
		c-0.6,0.2-1.4-0.1-1.6-0.7c-0.9-2.3-2.3-3.7-4-4.2c-1.8-0.5-3.9,0.2-5.6,1.7c-0.3,0.3-0.7,0.4-1.1,0.3c-0.4-0.1-0.7-0.4-0.9-0.8
		c-1.1-3.2-3.2-3.6-4.8-3.4c-2.4,0.3-4.4,2.1-4.6,3.4c0,0.4-0.2,0.7-0.5,0.9c-0.3,0.2-0.7,0.3-1,0.2c-3-0.9-5.3-0.4-6.6,1.3
		c-1.5,1.9-1.3,4.5-1,5.2c0.2,0.3,0.2,0.7,0.1,1.1c-0.1,0.4-0.4,0.6-0.8,0.7c-3.1,1-4.5,2.6-4.4,5.4c-0.1,4.2,4.9,4.9,5.5,5h6.6
		c0.7,0,1.2,0.6,1.2,1.2c0,0.7-0.6,1.2-1.2,1.2h-6.6c0,0-0.1,0-0.1,0c-2.8-0.3-8-2.1-7.9-7.5c-0.1-3.4,1.6-5.9,5-7.4
		c-0.4-1.9,0.1-4.6,1.6-6.6c1.1-1.3,3.4-3.3,8.1-2.4c1-2.1,3.6-3.9,6.4-4.2c2.9-0.3,5.3,1,6.8,3.6c2.1-1.3,4.4-1.7,6.5-1.2
		c1.6,0.4,3.7,1.5,5.2,4.6c2.6-0.6,5.5,0.3,7.4,2.2c1.9,2,2.6,4.7,1.8,7.7c2.1,0.8,4,3.1,4.6,5.7c0.3,1.7,0.5,5.8-5,8.6
		C84.7,55.1,84.5,55.1,84.3,55.1"/>
	<path style="fill:#12395F;" d="M47.1,44.4c-0.4,0-0.7-0.2-1-0.5c-0.4-0.5-0.3-1.3,0.2-1.8c0.8-0.6,3-2.8,2.4-4.4
		c-0.2-0.5,0-1.2,0.5-1.5c0.5-0.3,1.1-0.3,1.6,0.1c1,0.9,3.5,1.1,5.2,0.3c1.1-0.5,1.7-1.2,1.7-2.1c0-0.5,0.3-1,0.7-1.2
		c0.5-0.2,1-0.1,1.4,0.2c0.8,0.8,3.8,3.2,6.4,0.5c0.5-0.5,1.3-0.5,1.8,0c0.5,0.5,0.5,1.3,0,1.8c-2.6,2.6-5.8,2.3-8.3,0.7
		c-0.5,1-1.4,1.8-2.7,2.3c-1.8,0.8-4,0.9-5.7,0.4c-0.6,2.6-3.2,4.7-3.4,4.8C47.7,44.4,47.4,44.4,47.1,44.4"/>
	<path style="fill:#12395F;" d="M75.1,49c-0.7,0-1.2-0.6-1.2-1.2c0-0.2-0.1-2.2-2.3-3c-0.5-0.2-0.8-0.6-0.8-1.1
		c0-0.5,0.2-0.9,0.6-1.2c1.6-0.9,1.5-3.2,1.5-3.2c0-0.7,0.5-1.3,1.2-1.3c0.7-0.1,1.3,0.5,1.3,1.2c0,0.1,0.1,2.4-1.2,4.2
		c2.2,1.7,2.2,4.3,2.2,4.4C76.4,48.4,75.8,49,75.1,49"/>
	<path style="fill:#12395F;" d="M59,58.8c-0.7,0-3.9-0.1-6.2-2.3c-1.5-1.5-2.3-3.5-2.3-6c0-2.5,0.8-4.5,2.3-6
		c2.5-2.4,6.2-2.3,6.4-2.3l12.4,0c0.7,0,1.2,0.6,1.2,1.2c0,0.7-0.6,1.2-1.2,1.2H59.1c-0.1,0-2.8-0.1-4.6,1.6c-1,1-1.5,2.4-1.5,4.2
		c0,1.8,0.5,3.2,1.5,4.2c1.7,1.7,4.5,1.6,4.5,1.6l2,0c0.7,0,1.2,0.6,1.2,1.2c0,0.7-0.6,1.2-1.2,1.2h-1.9
		C59.1,58.8,59.1,58.8,59,58.8"/>
	<path style="fill:#12395F;" d="M74.5,78.8c-0.1,0-0.1,0-0.2,0c-0.7-0.1-1.2-0.7-1.1-1.4c0-0.1,1.2-9.3-4.9-10.6
		c-2.2-0.4-8.9-1.8-8.2-9c0.3-4.5,3.8-6,6.7-5.9c2.3,0.1,13.4,0,13.6,0c1.6,0,4.6,1.1,4.7,4.8c0.1,1.5-0.3,2.7-1.2,3.5
		c-1.2,1.2-2.8,1.1-2.9,1.1l-9.8,0c-0.7,0-1.2-0.6-1.2-1.2c0-0.7,0.6-1.2,1.2-1.2h9.8c0.1,0,0.7,0,1.1-0.4c0.4-0.4,0.5-1.1,0.4-1.6
		c-0.1-2.3-2-2.4-2.3-2.4c-0.4,0-11.3,0.1-13.6,0c-1.1,0-3.8,0.2-4.1,3.6c-0.3,3.5,1.6,5.4,6.2,6.4c6.7,1.4,7.4,9.4,6.8,13.4
		C75.7,78.3,75.1,78.8,74.5,78.8"/>
</g>
</svg>
