<?xml version="1.0" encoding="utf-8"?>
<!-- Generator: Adobe Illustrator 25.2.0, SVG Export Plug-In . SVG Version: 6.00 Build 0)  -->
<svg version="1.1" id="Layer_1" xmlns="http://www.w3.org/2000/svg" xmlns:xlink="http://www.w3.org/1999/xlink" x="0px" y="0px"
	 viewBox="0 0 120.5 120" style="enable-background:new 0 0 120.5 120;" xml:space="preserve">
<g>
	<path style="fill:none;stroke:#00969C;stroke-width:2.5;stroke-linecap:round;stroke-linejoin:round;stroke-miterlimit:10;" d="
		M53,53.2c0,0-6.8-7.4-1.1-14.4c5.7-7,15.3-4.9,18.5-0.6c3.2,4.3,4.6,8.9,2.4,12.4c-2.3,3.4,0.7,6.7,2.6,9.4
		c1.9,2.7,8.1,16.4-6.5,22c-6.8,1.8-11.2-1.4-12.4-3.4c-1.2-2-3.3-3.4-4.6-0.5c-1.3,3-1.9,4.9-5.2,4.4c-3.3-0.5-4.3-3-2.5-3.4
		c1.8-0.5,3.7,0.4,4-3.3c0.4-3.7,1.9-6.3,4.8-6.3c2.9,0,3.9-0.6,4.3-2.1c-1-2.1-2.4-6.7-0.1-7.7c2.3-1.1,2.1,1.8,2.1,1.8
		s3.2-0.5,3.2-2.6c0-2.1-4-0.5-5.5-0.6C55.6,57.9,54,58.5,53,53.2z"/>
	<path style="fill:none;stroke:#00969C;stroke-width:2.5;stroke-linecap:round;stroke-linejoin:round;stroke-miterlimit:10;" d="
		M86.9,51.3c0,0,4,9.3-0.1,19"/>
	<path style="fill:none;stroke:#00969C;stroke-width:2.5;stroke-linecap:round;stroke-linejoin:round;stroke-miterlimit:10;" d="
		M57.2,67.2c0,0-8.3-1.5-12.7-4.2c-4.4-2.6-6.3-6.8-10.5-12.7c-2.7-3.8-5.6-4.9-5.6-4.9"/>
	<path style="fill:none;stroke:#00969C;stroke-width:2.5;stroke-linecap:round;stroke-linejoin:round;stroke-miterlimit:10;" d="
		M95.1,60c0,19.2-15.6,34.8-34.8,34.8C41,94.8,25.4,79.2,25.4,60c0-19.2,15.6-34.8,34.8-34.8C79.5,25.2,95.1,40.8,95.1,60z"/>
</g>
</svg>
