<?xml version="1.0" encoding="utf-8"?>
<!-- Generator: Adobe Illustrator 25.2.0, SVG Export Plug-In . SVG Version: 6.00 Build 0)  -->
<svg version="1.1" id="Layer_1" xmlns="http://www.w3.org/2000/svg" xmlns:xlink="http://www.w3.org/1999/xlink" x="0px" y="0px"
	 viewBox="0 0 120.5 120" style="enable-background:new 0 0 120.5 120;" xml:space="preserve">
<g>
	<path style="fill:none;stroke:#00969C;stroke-width:2.5;stroke-miterlimit:10;" d="M58.1,28.2c0,0.1,0,0.3,0,0.4
		c0,9.7-7.9,17.6-17.6,17.6c-0.1,0-0.3,0-0.4,0c0.2,9.5,8,17.2,17.6,17.2c9.7,0,17.6-7.9,17.6-17.6C75.3,36.2,67.7,28.4,58.1,28.2z"
		/>
	<path style="fill:none;stroke:#00969C;stroke-width:2.5;stroke-miterlimit:10;" d="M40.1,46.2c0-0.1,0-0.3,0-0.4
		c0-9.7,7.9-17.6,17.6-17.6c0.1,0,0.3,0,0.4,0"/>
	<path style="fill:none;stroke:#00969C;stroke-width:2.5;stroke-miterlimit:10;" d="M62.7,63.5c0,2.8-2.2,5-5,5c-2.8,0-5-2.2-5-5
		c0-2.8,2.2-5,5-5C60.5,58.5,62.7,60.7,62.7,63.5z"/>
	<path style="fill:none;stroke:#00969C;stroke-width:2.5;stroke-miterlimit:10;" d="M69.7,84.6v-8.9h8.8v-8.8h4.6v-23
		c0-14-11.4-25.4-25.4-25.4c-14,0-25.4,11.4-25.4,25.4v32.2c0,14,11.4,25.4,25.4,25.4c8.6,0,16.2-4.3,20.8-10.8v-6H69.7z"/>
	<polyline style="fill:none;stroke:#00969C;stroke-width:2.5;stroke-miterlimit:10;" points="78.5,90.7 78.5,93.4 87.4,93.4 
		87.4,84.6 96.2,84.6 96.2,75.7 87.4,75.7 87.4,66.9 83.1,66.9 	"/>
</g>
</svg>
