<?xml version="1.0" encoding="utf-8"?>
<!-- Generator: Adobe Illustrator 25.2.0, SVG Export Plug-In . SVG Version: 6.00 Build 0)  -->
<svg version="1.1" id="Layer_1" xmlns="http://www.w3.org/2000/svg" xmlns:xlink="http://www.w3.org/1999/xlink" x="0px" y="0px"
	 viewBox="0 0 120.5 120" style="enable-background:new 0 0 120.5 120;" xml:space="preserve">
<g>
	<path style="fill:#12395F;" d="M79.8,35.6c-0.7,0-1.4-0.2-2.1-0.5c0,0-0.1,0-0.1-0.1c-1.6-1-5.5-4.6-6.4-6.2
		c-1.7-2.9-0.1-5.1,1.5-7.2c0,0,0.1-0.1,0.1-0.1c0.1-0.1,2.5-2.9,6.2-5.8c3-2.3,6.6-1.6,10.2,2c3.3,3.3,3.3,7.5,0,11.6
		C86.5,32.6,83,35.6,79.8,35.6 M78.7,33.1c2,0.9,5.5-1.2,8.7-5.1c2.6-3.2,2.6-6.1,0.1-8.6c-1.9-1.9-4.7-3.8-7.2-1.9
		c-3.3,2.6-5.6,5.2-5.8,5.5c0,0,0,0,0,0c-1.6,2.1-2.3,3.1-1.4,4.6C73.8,28.8,77.2,32.2,78.7,33.1"/>
	<path style="fill:#12395F;" d="M88.9,29c-0.3,0-0.6-0.1-0.8-0.3l-5.6-5.3l-4.1,3.8c-0.2,0.2-0.5,0.3-0.8,0.3h-6.1
		c-0.6,0-1.1-0.5-1.1-1.1c0-0.6,0.5-1.1,1.1-1.1h5.6l4.6-4.3c0.4-0.4,1.1-0.4,1.5,0l6.3,6c0.4,0.4,0.5,1.1,0,1.6
		C89.5,28.9,89.2,29,88.9,29"/>
	<path style="fill:#12395F;" d="M46.5,47.1c-2.5,0-3.8-2-4-3.4c0-0.1-0.9-5.6-2.5-18.6c0-0.1,0-0.2,0-0.3c0.4-2.2,1.4-3.7,2.9-4.6
		c2.7-1.5,5.9-0.3,6.1-0.2l18,6.4c0,0,0.1,0,0.1,0.1c2.1,1,4.2,0.5,4.2,0.5c0.6-0.2,1.2,0.2,1.4,0.8c0.2,0.6-0.2,1.2-0.8,1.4
		c-0.1,0-2.9,0.8-5.8-0.6L48.1,22c0,0-2.5-0.9-4.2,0.1c-0.9,0.5-1.5,1.5-1.8,2.8c1.6,12.8,2.5,18.3,2.5,18.4c0.1,0.4,0.4,1.7,2,1.5
		c1.6-0.2,1.8-0.4,1.9-2c0.1-1.9-0.1-13.1-0.1-13.2c0-0.4,0.2-0.7,0.5-1c0.3-0.2,0.7-0.2,1.1-0.1l9.6,4.2c0.6,0.2,0.8,0.9,0.6,1.5
		c-0.2,0.6-0.9,0.8-1.5,0.6l-8-3.5c0,3.3,0.1,10.1,0.1,11.6c-0.1,2.7-1.2,3.9-3.9,4.2C46.8,47.1,46.6,47.1,46.5,47.1"/>
	<path style="fill:#12395F;" d="M49.8,40c-0.3,0-0.5-0.1-0.8-0.3c-0.5-0.4-0.5-1.1-0.1-1.6l6-6.7c0.4-0.5,1.1-0.5,1.6-0.1
		c0.5,0.4,0.5,1.1,0.1,1.6l-6,6.7C50.4,39.9,50.1,40,49.8,40"/>
	<path style="fill:#12395F;" d="M53.2,32.2c-0.1,0-0.3,0-0.4-0.1c-0.6-0.2-0.8-0.9-0.6-1.5l3.1-7.4c0.2-0.6,0.9-0.8,1.5-0.6
		c0.6,0.2,0.8,0.9,0.6,1.5l-3.1,7.4C54,31.9,53.6,32.2,53.2,32.2"/>
	<path style="fill:#12395F;" d="M69.4,63.8c-0.5,0-1-0.4-1.1-0.9l-1.7-9.7c0-0.3,0-0.5,0.1-0.8l4.2-7.1c2.4-3.5,1.9-5.7,1.4-8
		c-0.1-0.6-0.3-1.3-0.4-1.9c-0.2-1.4,0.3-2.4,0.8-2.9c1.1-1.3,2.9-1.4,3.1-1.4c0.6,0,1.1,0.5,1.2,1.1c0,0.6-0.5,1.1-1.1,1.2
		c-0.3,0-1.1,0.2-1.5,0.6c-0.2,0.3-0.3,0.7-0.2,1.2c0.1,0.6,0.2,1.1,0.3,1.7c0.5,2.4,1.2,5.4-1.7,9.7l-3.9,6.7l1.6,9.3
		c0.1,0.6-0.3,1.2-0.9,1.3C69.6,63.8,69.5,63.8,69.4,63.8"/>
	<path style="fill:#12395F;" d="M72.3,97.8c0,0-0.1,0-0.1,0c-0.6-0.1-1.1-0.6-1-1.2c0.6-6.2,1.9-23.1,0.5-27.4
		C70.2,65.5,61.1,52.7,61,52.6c-0.3-0.4-0.3-0.8-0.1-1.2l6.7-11.5c0.3-0.5,1-0.7,1.5-0.4c0.5,0.3,0.7,1,0.4,1.5l-6.4,10.9
		c1.9,2.6,9.2,13,10.5,16.5c1.9,5.7-0.3,27.5-0.4,28.4C73.3,97.3,72.9,97.8,72.3,97.8"/>
	<path style="fill:#12395F;" d="M70.2,49.8c-0.2,0-0.3,0-0.5-0.1l-5-2.5c-0.6-0.3-0.8-1-0.5-1.5c0.3-0.6,1-0.8,1.5-0.5l5,2.5
		c0.6,0.3,0.8,1,0.5,1.5C71,49.6,70.7,49.8,70.2,49.8"/>
	<path style="fill:#12395F;" d="M58.5,100.3c-0.6,0-1.1-0.5-1.1-1.1V76.8c0-1.7-0.6-3.4-1.7-4.7c-2.8-3.5-8-9.9-10.9-14
		c-2.5-3.5-2.4-7.2-1.9-9.7c0.4-2,1.1-3.4,1.2-3.4c0.3-0.5,1-0.7,1.5-0.4c0.5,0.3,0.7,1,0.5,1.5c0,0-0.6,1.1-0.9,2.8
		c-0.4,2-0.5,5.1,1.6,8c2.9,4,8,10.4,10.8,13.9c1.4,1.7,2.2,3.9,2.2,6.1v22.4C59.6,99.8,59.1,100.3,58.5,100.3"/>
	<path style="fill:#12395F;" d="M66.5,100.6C66.5,100.6,66.5,100.6,66.5,100.6c-0.7,0-1.2-0.6-1.1-1.2l1.5-22.7
		c0.2-3.4-0.8-6.9-2.8-9.6L58,59c-0.4-0.5-0.3-1.2,0.2-1.6c0.5-0.4,1.2-0.3,1.6,0.2l6,8.1c2.4,3.2,3.6,7.2,3.3,11.1l-1.5,22.7
		C67.6,100.2,67.1,100.6,66.5,100.6"/>
	<path style="fill:#12395F;" d="M70.5,107.1H57.2c-0.5,0-1-0.3-1.1-0.8c-0.1-0.2-1.2-4.9,1.6-7.6c0.2-0.2,0.5-0.3,0.8-0.3h8.1
		c0.2,0,0.3,0,0.5,0.1c0.2,0.1,5.1,2.6,4.6,7.6C71.6,106.7,71.1,107.1,70.5,107.1 M58.2,104.9h11.3c-0.3-2.4-2.4-3.8-3.1-4.2H59
		C58,101.9,58,103.8,58.2,104.9"/>
	<path style="fill:#12395F;" d="M76.5,103.9h-6.3c-0.6,0-1.1-0.5-1.1-1.1c0-0.6,0.5-1.1,1.1-1.1h5.2c-0.3-2.4-2.8-3.6-3.5-3.9h-5.2
		c-0.6,0-1.1-0.5-1.1-1.1c0-0.6,0.5-1.1,1.1-1.1h5.4c0.1,0,0.3,0,0.4,0.1c2,0.7,5.7,3.2,5.1,7.3C77.6,103.5,77.1,103.9,76.5,103.9"
		/>
	<path style="fill:#12395F;" d="M58.8,53.3c-4.1,0-10.7-0.9-15.4-3.7c-0.5-0.3-0.7-1-0.4-1.5c0.3-0.5,1-0.7,1.5-0.4
		c6,3.7,15.5,3.6,16.8,3.2c0.5-0.3,1.1-0.1,1.4,0.4c0.4,0.5,0.2,1.2-0.3,1.6C62.2,53.2,60.8,53.3,58.8,53.3 M61.3,51
		C61.3,51,61.3,51,61.3,51C61.3,51,61.3,51,61.3,51"/>
	<path style="fill:#00969C;" d="M77.1,65.5c-0.1,0-0.1-0.1-0.2-0.2c-0.1-0.2,0-0.3,0.2-0.4l3-0.9l-0.9-1.6c0-0.1-0.1-0.2,0-0.3
		s0.1-0.1,0.2-0.2l3-1.1c0.2-0.1,0.3,0,0.4,0.2c0.1,0.2,0,0.3-0.2,0.4l-2.6,0.9l0.9,1.6c0,0.1,0.1,0.2,0,0.3c0,0.1-0.1,0.1-0.2,0.2
		l-3.3,1.1C77.3,65.5,77.2,65.5,77.1,65.5"/>
	<path style="fill:#00969C;" d="M77.2,65.9c-0.1,0-0.2,0-0.3-0.1c-0.2-0.1-0.4-0.3-0.4-0.5c-0.1-0.4,0.1-0.8,0.5-0.9l2.4-0.8
		l-0.6-1.1c-0.1-0.2-0.1-0.4,0-0.6c0.1-0.2,0.2-0.4,0.5-0.4l3-1.1c0.2-0.1,0.4-0.1,0.6,0c0.2,0.1,0.3,0.2,0.4,0.4
		c0.1,0.2,0.1,0.4,0,0.6c-0.1,0.2-0.2,0.3-0.4,0.4l-2.1,0.8l0.6,1.1c0.1,0.2,0.1,0.4,0,0.6c-0.1,0.2-0.3,0.4-0.5,0.4l-3.3,1.1
		C77.4,65.9,77.3,65.9,77.2,65.9 M77.2,65L77.2,65L77.2,65z M82.5,61.3L82.5,61.3C82.5,61.3,82.5,61.3,82.5,61.3"/>
	<path style="fill:#00969C;" d="M78.9,70.2c-0.1,0-0.2-0.2-0.2-0.3c0-0.2,0.1-0.3,0.3-0.3l3.1,0.1L81.9,68c0-0.1,0-0.2,0.1-0.2
		c0.1-0.1,0.1-0.1,0.2-0.1l3.2,0c0.2,0,0.3,0.1,0.3,0.3s-0.1,0.3-0.3,0.3l-2.8,0l0.3,1.8c0,0.1,0,0.2-0.1,0.2
		c-0.1,0.1-0.1,0.1-0.2,0.1L78.9,70.2C79,70.2,78.9,70.2,78.9,70.2"/>
	<path style="fill:#00969C;" d="M82.5,70.8C82.5,70.8,82.5,70.8,82.5,70.8L79,70.7c-0.1,0-0.2,0-0.2,0l0,0c-0.3-0.1-0.5-0.4-0.5-0.7
		c0-0.2,0.1-0.4,0.2-0.5c0.1-0.1,0.3-0.2,0.5-0.2l2.6,0.1l-0.2-1.2c0-0.2,0-0.4,0.2-0.6c0.1-0.2,0.4-0.3,0.6-0.3l3.2,0
		c0.2,0,0.4,0.1,0.5,0.2c0.1,0.1,0.2,0.3,0.2,0.5c0,0.2-0.1,0.4-0.2,0.5c-0.1,0.1-0.3,0.2-0.5,0.2h0l-2.3,0l0.2,1.3
		c0,0.2,0,0.5-0.2,0.6C82.9,70.7,82.7,70.8,82.5,70.8 M79,70.1L79,70.1L79,70.1z M79,69.8L79,69.8L79,69.8z M85.4,68.1L85.4,68.1
		L85.4,68.1z"/>
	<path style="fill:#00969C;" d="M81.2,77C81.2,77,81.1,77,81.2,77l-2.8-2.3c-0.1-0.1-0.1-0.3,0-0.4c0.1-0.1,0.3-0.1,0.4,0l2.4,2
		l0.9-1.6c0-0.1,0.1-0.1,0.2-0.1c0.1,0,0.2,0,0.2,0.1l2.5,2c0.1,0.1,0.2,0.3,0,0.4c-0.1,0.1-0.3,0.2-0.4,0l-2.2-1.8l-0.9,1.6
		c0,0.1-0.1,0.1-0.2,0.1C81.3,77,81.2,77,81.2,77"/>
	<path style="fill:#00969C;" d="M84.9,77.6c-0.2,0-0.3-0.1-0.5-0.2L82.6,76L82,77.1c-0.1,0.2-0.3,0.3-0.5,0.4c-0.1,0-0.3,0-0.4,0
		l-0.2-0.1L78.1,75c-0.3-0.3-0.4-0.7-0.1-1.1c0.3-0.3,0.7-0.4,1.1-0.1l2,1.7l0.6-1.1c0.1-0.2,0.3-0.3,0.5-0.4c0.2,0,0.4,0,0.6,0.1
		l2.5,2c0.3,0.3,0.4,0.7,0.1,1.1C85.3,77.5,85.1,77.6,84.9,77.6"/>
	<path style="fill:#00969C;" d="M38,58.1c0.1,0,0.1,0.1,0.2,0.2c0.1,0.2,0,0.3-0.2,0.4l-3,0.9l0.9,1.6c0,0.1,0.1,0.2,0,0.3
		c0,0.1-0.1,0.1-0.2,0.2l-3,1.1c-0.2,0.1-0.3,0-0.4-0.2c-0.1-0.2,0-0.3,0.2-0.4l2.6-0.9l-0.9-1.6c0-0.1-0.1-0.2,0-0.3
		c0-0.1,0.1-0.1,0.2-0.2l3.3-1.1C37.8,58.1,37.9,58.1,38,58.1"/>
	<path style="fill:#00969C;" d="M32.6,63.2c-0.1,0-0.2,0-0.3-0.1c-0.2-0.1-0.3-0.2-0.4-0.4c-0.1-0.4,0.1-0.8,0.5-1l2.1-0.8l-0.6-1.1
		c-0.1-0.2-0.1-0.4,0-0.6c0.1-0.2,0.3-0.4,0.5-0.4l3.3-1.1c0.2-0.1,0.3,0,0.5,0l0,0c0.2,0.1,0.4,0.3,0.4,0.5
		c0.1,0.4-0.1,0.8-0.5,0.9l-2.4,0.8l0.6,1.1c0.1,0.2,0.1,0.4,0,0.6c-0.1,0.2-0.2,0.4-0.5,0.4l-3,1.1C32.8,63.1,32.7,63.2,32.6,63.2
		 M32.6,62.3C32.6,62.3,32.6,62.3,32.6,62.3L32.6,62.3z"/>
	<path style="fill:#00969C;" d="M36.2,53.3c0.1,0,0.2,0.2,0.2,0.3c0,0.2-0.1,0.3-0.3,0.3l-3.1-0.1l0.3,1.8c0,0.1,0,0.2-0.1,0.2
		c-0.1,0.1-0.1,0.1-0.2,0.1l-3.2,0c-0.2,0-0.3-0.1-0.3-0.3s0.1-0.3,0.3-0.3l2.8,0l-0.3-1.8c0-0.1,0-0.2,0.1-0.2
		c0.1-0.1,0.1-0.1,0.2-0.1l3.5,0.1C36.1,53.3,36.2,53.3,36.2,53.3"/>
	<path style="fill:#00969C;" d="M32.9,56.4L32.9,56.4l-3.2,0c-0.2,0-0.4-0.1-0.5-0.2C29.1,56,29,55.8,29,55.6c0-0.4,0.3-0.7,0.8-0.7
		l2.3,0l-0.2-1.3c0-0.2,0-0.4,0.2-0.6c0.1-0.2,0.4-0.2,0.6-0.3l3.5,0.1c0.1,0,0.2,0,0.3,0.1c0.3,0.1,0.5,0.4,0.5,0.7
		c0,0.4-0.4,0.7-0.8,0.7l-2.6-0.1l0.2,1.2c0,0.2,0,0.4-0.2,0.6C33.4,56.3,33.1,56.4,32.9,56.4 M29.7,55.5L29.7,55.5L29.7,55.5z
		 M36.1,53.8L36.1,53.8L36.1,53.8z"/>
	<path style="fill:#00969C;" d="M33.9,46.6C33.9,46.6,34,46.6,33.9,46.6l2.8,2.3c0.1,0.1,0.1,0.3,0,0.4c-0.1,0.1-0.3,0.1-0.4,0
		l-2.4-2L33,48.9c0,0.1-0.1,0.1-0.2,0.1c-0.1,0-0.2,0-0.2-0.1L30,47c-0.1-0.1-0.2-0.3,0-0.4c0.1-0.1,0.3-0.2,0.4,0l2.2,1.8l0.9-1.6
		c0-0.1,0.1-0.1,0.2-0.1C33.8,46.6,33.9,46.6,33.9,46.6"/>
	<path style="fill:#00969C;" d="M36.5,49.9c-0.2,0-0.3-0.1-0.5-0.2L34,48l-0.6,1.1c-0.1,0.2-0.3,0.3-0.5,0.4c-0.2,0-0.4,0-0.6-0.1
		l-2.5-2c-0.3-0.3-0.4-0.7-0.1-1.1c0.3-0.3,0.7-0.4,1.1-0.1l1.8,1.4l0.6-1.1c0.1-0.2,0.3-0.3,0.5-0.4c0.1,0,0.3,0,0.4,0l0.2,0.1
		l2.7,2.3c0.2,0.1,0.2,0.3,0.3,0.5c0,0.2,0,0.4-0.2,0.5C36.9,49.8,36.7,49.9,36.5,49.9"/>
</g>
</svg>
