<?xml version="1.0" encoding="utf-8"?>
<!-- Generator: Adobe Illustrator 25.2.0, SVG Export Plug-In . SVG Version: 6.00 Build 0)  -->
<svg version="1.1" id="Layer_1" xmlns="http://www.w3.org/2000/svg" xmlns:xlink="http://www.w3.org/1999/xlink" x="0px" y="0px"
	 viewBox="0 0 200 200" style="enable-background:new 0 0 200 200;" xml:space="preserve">
<style type="text/css">
	.st0{fill:#37A0A5;}
	.st1{fill:#113A60;}
	.st2{fill:#12395F;}
	.st3{fill:#00969C;}
	.st4{fill:#35A0A5;}
</style>
<path class="st4" d="M141.5,69.9c-0.4,0-0.7-0.2-0.9-0.5c-0.3-0.5-0.1-1.1,0.4-1.4l5.5-3l-2.2-2.7c-0.2-0.2-0.3-0.5-0.2-0.8
	c0.1-0.3,0.2-0.5,0.5-0.7l5.9-3.5c0.5-0.3,1.1-0.1,1.4,0.4c0.3,0.5,0.1,1.1-0.4,1.4l-4.9,2.9l2.2,2.8c0.2,0.2,0.3,0.5,0.2,0.8
	c-0.1,0.3-0.2,0.5-0.5,0.7l-6.6,3.6C141.8,69.8,141.6,69.9,141.5,69.9"/>
<path class="st4" d="M146.9,79.3c-0.5,0-0.9-0.4-1-0.8c-0.1-0.5,0.3-1.1,0.8-1.1l6.2-1l-1.1-3.3c-0.1-0.3-0.1-0.6,0.1-0.8
	c0.1-0.3,0.4-0.4,0.7-0.5l6.7-1.3c0.5-0.1,1.1,0.3,1.2,0.8c0.1,0.5-0.3,1.1-0.8,1.2l-5.6,1l1.1,3.3c0.1,0.3,0.1,0.6-0.1,0.8
	c-0.2,0.3-0.4,0.4-0.7,0.5l-7.4,1.1C147,79.3,147,79.3,146.9,79.3"/>
<path class="st4" d="M154.3,92.9c-0.2,0-0.3,0-0.5-0.1l-6.5-3.8c-0.5-0.3-0.6-0.9-0.4-1.4c0.3-0.5,0.9-0.6,1.4-0.4l5.5,3.2l1.1-3.3
	c0.1-0.3,0.3-0.5,0.6-0.6c0.3-0.1,0.6-0.1,0.8,0.1l6,3.3c0.5,0.3,0.7,0.9,0.4,1.4c-0.3,0.5-0.9,0.7-1.4,0.4l-5-2.7l-1.1,3.3
	c-0.1,0.3-0.3,0.5-0.6,0.6C154.5,92.8,154.4,92.9,154.3,92.9"/>
<path class="st2" d="M111.1,85.6c-0.4,0-0.7-0.2-0.9-0.5c-0.3-0.5-0.1-1.1,0.4-1.3c3.2-1.6,5-3.7,5.4-6.1c0.8-4.3-3-8.5-3.1-8.5
	c-0.4-0.4-0.3-1,0.1-1.4c0.4-0.4,1-0.3,1.4,0.1c0.2,0.2,4.5,5,3.6,10.2c-0.5,3.1-2.7,5.6-6.4,7.5C111.4,85.5,111.3,85.6,111.1,85.6"
	/>
<path class="st2" d="M75.6,158.4c-1,0-1.9-0.1-2.7-0.3c-3.9-0.9-6.8-3.7-7.8-5.9c-0.6-1.4-0.1-3,1.2-3.8
	c17.1-10.9,19.4-34.6,19.2-47.8c-0.1-6,0.2-10.9,0.7-15.4c2.3-18.6-1.7-39.5-1.8-39.7c-0.1-0.5,0.2-1.1,0.8-1.2
	c0.5-0.1,1.1,0.2,1.2,0.8c0,0.2,4.1,21.4,1.8,40.3c-0.5,4.5-0.8,9.3-0.7,15.2c0.1,13.6-2.3,38.2-20.2,49.6c-0.5,0.3-0.6,0.9-0.4,1.3
	c0.7,1.5,2.9,4,6.4,4.8c4,0.9,8.4-0.7,12.9-4.5c0.8-0.7,1.8-1,2.6-1.1c4.5-0.9,19.2-5.6,21.9-25.3l0.1-0.7
	c2.1-8.9,7.6-16.8,15.2-21.6c4.5-2.9,12.1-8.8,12.8-16.3c0.4-4.7-2-9.6-7.1-14.3l-7.1-7.2c-0.7-0.7-1.3-1.2-1.9-1.8
	c-2.3-2.2-4.1-3.9-5-7.7c0,0,0-0.1,0-0.1l-1-10.2c-0.1-0.6,0.3-1,0.9-1.1c0.6,0,1,0.3,1.1,0.9l1,10.1c0.8,3.2,2.2,4.5,4.4,6.6
	c0.6,0.6,1.2,1.2,1.9,1.8l7.1,7.2c5.6,5.2,8.2,10.5,7.7,15.9c-0.7,8-7.8,14.1-13.7,17.8c-7.1,4.5-12.3,12-14.3,20.4l-0.1,0.6
	c-2.8,21-18.7,25.9-23.4,26.9c-0.5,0.1-1.2,0.3-1.7,0.7C82.8,157.2,78.7,158.4,75.6,158.4"/>
<path class="st4" d="M134.2,83.5c0,2.4-1.9,4.3-4.3,4.3c-2.4,0-4.3-1.9-4.3-4.3c0-2.4,1.9-4.3,4.3-4.3
	C132.3,79.1,134.2,81.1,134.2,83.5"/>
</svg>
