<?xml version="1.0" encoding="utf-8"?>
<!-- Generator: Adobe Illustrator 25.2.0, SVG Export Plug-In . SVG Version: 6.00 Build 0)  -->
<svg version="1.1" id="Layer_1" xmlns="http://www.w3.org/2000/svg" xmlns:xlink="http://www.w3.org/1999/xlink" x="0px" y="0px"
	 viewBox="0 0 200 200" style="enable-background:new 0 0 200 200;" xml:space="preserve">
<style type="text/css">
	.st0{fill:#37A0A5;}
	.st1{fill:#113A60;}
	.st2{fill:#12395F;}
	.st3{fill:#00969C;}
	.st4{fill:#35A0A5;}
</style>
<path class="st2" d="M175.1,61.3c-0.7-0.4-1.5-0.1-1.9,0.5c-0.3,0.5-30.5,53.7-65.1,70.6c-5.5,2.7-12.1,2.4-17.2-0.9
	c-12.4-8-37.1-27.9-63.8-71.5c-0.4-0.7-1.3-0.9-1.9-0.5c-0.7,0.4-0.9,1.3-0.5,1.9c27,44.1,52.1,64.3,64.7,72.4
	c3.3,2.1,7.1,3.2,10.9,3.2c3.1,0,6.2-0.7,9-2.1c35.4-17.3,65-69.6,66.3-71.8C176,62.6,175.8,61.7,175.1,61.3"/>
<path class="st2" d="M99.6,102c0.4,0.7,3.3,6,3.2,11.3c0,0.8,0.6,1.4,1.4,1.4h0c0.8,0,1.4-0.6,1.4-1.4c0.1-5.6-2.6-11-3.4-12.5
	c0.7-4.5,7.1-43.4,36.3-59.2c0.7-0.4,0.9-1.2,0.6-1.9c-0.4-0.7-1.2-1-1.9-0.6c-27.4,14.8-35.6,48.9-37.4,59L47.7,44.8
	c-0.5-0.6-1.4-0.6-2,0c-0.6,0.5-0.6,1.4,0,2L99.6,102z"/>
<path class="st4" d="M90.5,148.3c0.1,0.3,0,0.5-0.2,0.7l-5.1,5.7l3.4,2.1c0.2,0.1,0.3,0.3,0.4,0.6c0,0.2,0,0.5-0.2,0.7l-5.5,6.3
	c-0.3,0.3-0.8,0.4-1.1,0.1c-0.3-0.3-0.4-0.8-0.1-1.1l4.8-5.6l-3.4-2.1c-0.2-0.1-0.3-0.3-0.4-0.6c0-0.2,0-0.5,0.2-0.7l5.7-6.4
	c0.3-0.3,0.8-0.4,1.1-0.1C90.4,148,90.4,148.1,90.5,148.3"/>
<path class="st4" d="M105.2,157.7c0,0.1,0,0.1,0,0.2l-0.1,8.2c0,0.4-0.4,0.8-0.8,0.8c-0.4,0-0.8-0.4-0.8-0.8l0.1-7.3l-4,0.4
	c-0.2,0-0.5-0.1-0.7-0.2c-0.2-0.2-0.3-0.4-0.2-0.6l0.7-8.6c0-0.4,0.4-0.8,0.9-0.7c0.4,0,0.8,0.4,0.7,0.9l-0.6,7.6l3.9-0.4
	c0.2,0,0.5,0,0.6,0.2C105.1,157.4,105.2,157.5,105.2,157.7"/>
<path class="st4" d="M121.9,159.9c0.1,0.4-0.1,0.8-0.5,1c-0.4,0.1-0.9-0.1-1-0.5l-2.4-7l-3.9,1.7c-0.2,0.1-0.5,0.1-0.7,0
	c-0.2-0.1-0.4-0.3-0.4-0.5l-2-7.9c-0.1-0.4,0.1-0.9,0.6-1c0.4-0.1,0.9,0.1,1,0.6l1.8,7l3.8-1.6c0.2-0.1,0.4-0.1,0.6,0
	c0.2,0.1,0.4,0.3,0.4,0.5L121.9,159.9C121.9,159.9,121.9,159.9,121.9,159.9"/>
<path class="st4" d="M104.9,125.6c0,2.6-2.1,4.7-4.7,4.7s-4.7-2.1-4.7-4.7c0-2.6,2.1-4.7,4.7-4.7S104.9,123,104.9,125.6"/>
</svg>
