<?xml version="1.0" encoding="utf-8"?>
<!-- Generator: Adobe Illustrator 25.2.0, SVG Export Plug-In . SVG Version: 6.00 Build 0)  -->
<svg version="1.1" id="Layer_1" xmlns="http://www.w3.org/2000/svg" xmlns:xlink="http://www.w3.org/1999/xlink" x="0px" y="0px"
	 viewBox="0 0 200 200" style="enable-background:new 0 0 200 200;" xml:space="preserve">
<style type="text/css">
	.st0{fill:#37A0A5;}
	.st1{fill:#113A60;}
	.st2{fill:#12395F;}
	.st3{fill:#00969C;}
</style>
<path class="st2" d="M72.5,169.4c-0.5,0-0.9-0.4-1-0.9c0-0.5-2.3-48-4.2-72.1c-1.8-23.7,8.2-43,27-51.7c27.1-13,33.2-16.1,33.3-16.1
	c0.5-0.2,1.1,0,1.3,0.4c0.2,0.5,0,1.1-0.4,1.3c-0.1,0-6.2,3.1-33.3,16.1c-18,8.3-27.6,26.9-25.9,49.8c1.9,24,4.2,71.6,4.2,72.1
	C73.4,168.9,73,169.3,72.5,169.4C72.5,169.4,72.5,169.4,72.5,169.4"/>
<path class="st2" d="M123.3,76.9c-5,0-8.1-0.8-8.4-0.8c-0.5-0.1-0.8-0.7-0.7-1.2c0.1-0.5,0.7-0.8,1.2-0.7c0.2,0,15.5,3.7,33-5.8
	c0.5-0.3,1.1-0.1,1.3,0.4c0.3,0.5,0.1,1.1-0.4,1.3C139.1,75.6,129.7,76.9,123.3,76.9"/>
<path class="st2" d="M98.8,170.8c-0.5,0-0.9-0.4-1-0.8c-0.1-0.5-1.6-12.1,0-22.8c1.1-7.6,3.9-12.2,6-16c0.9-1.6,1.7-3,2.3-4.4
	c2.9-7.3,4.9-16.3-4.4-37.9c-0.1-0.3-0.1-0.6,0-0.8c2.3-4.9,15.8-4.1,16-4.1c14,1.2,38.7-2.1,49.6-13.4c0.4-0.4,1-0.4,1.4,0
	c0.4,0.4,0.4,1,0,1.4c-10.7,11-34.3,15.4-51.2,14c-3.3-0.3-11.9,0.1-13.8,2.6c9.5,22,7.3,31.3,4.3,38.9c-0.6,1.5-1.5,3-2.4,4.6
	c-2.1,3.6-4.7,8.1-5.8,15.3c-1.6,10.4,0,22.1,0,22.3c0.1,0.5-0.3,1-0.8,1.1C98.9,170.8,98.9,170.8,98.8,170.8"/>
<path class="st3" d="M63.1,64.4c-0.3,0-0.6-0.2-0.8-0.4l-5.1-7.6l-3.5,3.3c-0.2,0.2-0.5,0.3-0.8,0.3c-0.3,0-0.5-0.2-0.7-0.4
	l-5.7-8.2c-0.3-0.4-0.2-1,0.2-1.4c0.4-0.3,1-0.2,1.3,0.2l5.1,7.3l3.5-3.3c0.2-0.2,0.5-0.3,0.8-0.3c0.3,0,0.5,0.2,0.7,0.4l5.7,8.5
	c0.3,0.4,0.2,1-0.3,1.3C63.5,64.3,63.3,64.4,63.1,64.4"/>
<path class="st3" d="M47.8,78.7c-0.1,0-0.2,0-0.2,0l-9.5-2.5c-0.5-0.1-0.8-0.7-0.7-1.2s0.7-0.8,1.2-0.7l8.4,2.3l0.7-4.7
	c0-0.3,0.2-0.5,0.5-0.7c0.2-0.2,0.5-0.2,0.8-0.1l9.8,3.4c0.5,0.2,0.8,0.7,0.6,1.2c-0.2,0.5-0.7,0.8-1.2,0.6l-8.7-3l-0.7,4.6
	c0,0.3-0.2,0.5-0.4,0.7C48.2,78.7,48,78.7,47.8,78.7"/>
<path class="st3" d="M40.2,97.4c-0.5,0-0.9-0.4-1-0.9c0-0.5,0.4-1,0.9-1l8.9-0.7l-0.8-5c0-0.3,0-0.6,0.2-0.8
	c0.2-0.2,0.5-0.3,0.7-0.3H59c0.5,0,1,0.4,1,1c0,0.5-0.4,1-1,1h-8.7l0.8,4.9c0,0.3,0,0.5-0.2,0.8c-0.2,0.2-0.4,0.3-0.7,0.4L40.2,97.4
	C40.3,97.4,40.2,97.4,40.2,97.4"/>
<path class="st3" d="M87.3,78.9c0,3-2.5,5.5-5.5,5.5c-3,0-5.5-2.5-5.5-5.5c0-3,2.5-5.5,5.5-5.5C84.8,73.4,87.3,75.9,87.3,78.9"/>
</svg>
