<?xml version="1.0" encoding="utf-8"?>
<!-- Generator: Adobe Illustrator 25.2.0, SVG Export Plug-In . SVG Version: 6.00 Build 0)  -->
<svg version="1.1" id="Layer_1" xmlns="http://www.w3.org/2000/svg" xmlns:xlink="http://www.w3.org/1999/xlink" x="0px" y="0px"
	 viewBox="0 0 200 200" style="enable-background:new 0 0 200 200;" xml:space="preserve">
<style type="text/css">
	.st0{fill:#37A0A5;}
	.st1{fill:#113A60;}
	.st2{fill:#12395F;}
	.st3{fill:#00969C;}
</style>
<path class="st3" d="M121.7,51.5c-0.4,0-0.8-0.1-1.1-0.4c-0.6-0.6-0.6-1.5,0-2.1l5.3-5.3l-3.3-2.3c-0.4-0.2-0.6-0.6-0.6-1.1
	c0-0.4,0.1-0.9,0.4-1.2l5.8-6.2c0.6-0.6,1.5-0.6,2.1-0.1c0.6,0.6,0.6,1.5,0.1,2.1l-4.6,4.9l3.4,2.3c0.4,0.3,0.6,0.7,0.6,1.1
	c0,0.4-0.1,0.9-0.4,1.2l-6.6,6.6C122.5,51.4,122.1,51.5,121.7,51.5"/>
<path class="st3" d="M131.7,60.8c-0.6,0-1.1-0.3-1.4-0.9c-0.3-0.8,0-1.6,0.7-2l6.9-3.2l-2.4-3.2c-0.3-0.4-0.3-0.8-0.2-1.2
	c0.1-0.4,0.4-0.8,0.8-1l7.6-3.9c0.7-0.4,1.6-0.1,2,0.7c0.4,0.7,0.1,1.6-0.7,2l-6.1,3.1l2.4,3.3c0.3,0.4,0.3,0.8,0.2,1.3
	c-0.1,0.4-0.4,0.8-0.8,1l-8.5,4C132.1,60.8,131.9,60.8,131.7,60.8"/>
<path class="st3" d="M145.3,74.3c-0.1,0-0.2,0-0.4,0l-9.2-2.2c-0.8-0.2-1.3-1-1.1-1.8c0.2-0.8,1-1.3,1.8-1.1l7.4,1.8l0.2-4
	c0-0.4,0.2-0.9,0.6-1.1c0.3-0.3,0.8-0.4,1.2-0.3l8.4,1.7c0.8,0.2,1.3,1,1.2,1.8c-0.2,0.8-1,1.3-1.8,1.2l-6.7-1.4l-0.2,4
	c0,0.4-0.2,0.9-0.6,1.1C146,74.2,145.7,74.3,145.3,74.3"/>
<path class="st2" d="M131.5,142.6c-0.1,0-0.3,0-0.4-0.1c-0.8-0.2-1.2-1.1-1-1.9c3.5-11.3,5.6-24.5,5.1-33.5
	c-0.8-15.8-7.7-31.8-19.1-43.7c-10-10.5-20-12.7-33.8-12.8c-19.7-0.1-32.2-15.1-32.8-15.7c-0.5-0.6-0.4-1.6,0.2-2.1
	c0.6-0.5,1.6-0.4,2.1,0.2c0.1,0.1,12.2,14.5,30.5,14.6c14.6,0.1,25.2,2.4,35.9,13.7c11.9,12.5,19.1,29.1,19.9,45.6
	c0.5,9.5-1.6,22.7-5.3,34.5C132.8,142.2,132.2,142.6,131.5,142.6"/>
<path class="st2" d="M80.2,167.6c-0.2,0-0.5-0.1-0.7-0.2c-0.7-0.4-1-1.3-0.6-2c8.6-15.3,7-36.9,7-37.1c0-0.3,0.1-0.6,0.2-0.9
	c4.7-7.3,7.3-15.2,8.7-20.1c0.6-2.8,1.1-4.6,1.2-4.9c0.2-0.8,1-1.2,1.8-1.1c0.8,0.2,1.3,0.9,1.1,1.7c0,0.2-0.4,2.1-1.1,4.9
	c-1.6,8-4,23.9,1.5,32.4c0.4,0.7,0.2,1.6-0.5,2.1c-0.7,0.4-1.6,0.2-2.1-0.5c-3.5-5.5-4.2-13.5-3.8-20.8c-1.1,2.4-2.5,4.9-4,7.4
	c0.2,3.5,0.9,23.4-7.4,38.3C81.2,167.3,80.7,167.6,80.2,167.6"/>
<path class="st2" d="M50.7,142.3c-0.8,0-1.5-0.6-1.5-1.4c0-0.8,0.6-1.5,1.4-1.6c29.1-1.5,35.4-11.9,35.4-12c0.4-0.7,1.3-1,2-0.6
	c0.7,0.4,1,1.3,0.6,2C88.4,129.3,81.8,140.6,50.7,142.3C50.8,142.3,50.7,142.3,50.7,142.3"/>
<path class="st3" d="M116.3,73.9c0.6,3.4-1.7,6.6-5.1,7.2c-3.4,0.6-6.6-1.7-7.2-5.1c-0.6-3.4,1.7-6.6,5.1-7.2
	C112.4,68.3,115.7,70.5,116.3,73.9"/>
<path class="st2" d="M56.2,77.2c-0.4,0-0.8-0.2-1.1-0.5c-0.6-0.6-0.5-1.6,0.1-2.1c0.3-0.3,8.5-7.7,25.8-9.8c0.8-0.1,1.6,0.5,1.7,1.3
	c0.1,0.8-0.5,1.6-1.3,1.7c-16.3,1.9-24.1,8.9-24.1,9C56.9,77,56.6,77.2,56.2,77.2"/>
</svg>
