<?xml version="1.0" encoding="utf-8"?>
<!-- Generator: Adobe Illustrator 25.2.0, SVG Export Plug-In . SVG Version: 6.00 Build 0)  -->
<svg version="1.1" id="Layer_1" xmlns="http://www.w3.org/2000/svg" xmlns:xlink="http://www.w3.org/1999/xlink" x="0px" y="0px"
	 viewBox="0 0 200 200" style="enable-background:new 0 0 200 200;" xml:space="preserve">
<style type="text/css">
	.st0{fill:#37A0A5;}
	.st1{fill:#113A60;}
	.st2{fill:#12395F;}
	.st3{fill:#00969C;}
</style>
<path class="st3" d="M126.1,59.2c-0.3,0-0.6-0.1-0.8-0.4c-0.3-0.4-0.3-1.1,0.1-1.4l8-6.6l-4.7-3.8c-0.2-0.2-0.4-0.5-0.4-0.8
	c0-0.3,0.1-0.6,0.3-0.8l7.9-6.9c0.4-0.4,1-0.3,1.4,0.1c0.4,0.4,0.3,1-0.1,1.4l-7,6.1l4.7,3.8c0.2,0.2,0.4,0.5,0.4,0.8
	c0,0.3-0.1,0.6-0.4,0.8l-9,7.3C126.5,59.2,126.3,59.2,126.1,59.2"/>
<path class="st3" d="M137.4,71.8c-0.4,0-0.8-0.3-0.9-0.7c-0.2-0.5,0.1-1.1,0.6-1.3l9.8-3.5l-3.1-5.1c-0.2-0.3-0.2-0.6-0.1-0.8
	c0.1-0.3,0.3-0.5,0.6-0.6l9.9-3.9c0.5-0.2,1.1,0.1,1.3,0.6c0.2,0.5-0.1,1.1-0.6,1.3l-8.8,3.4l3.1,5.2c0.2,0.3,0.2,0.6,0.1,0.9
	c-0.1,0.3-0.3,0.5-0.6,0.6l-11,3.9C137.6,71.7,137.5,71.8,137.4,71.8"/>
<path class="st3" d="M152.7,89.8c-0.1,0-0.2,0-0.3-0.1L141.3,86c-0.5-0.2-0.8-0.7-0.6-1.3c0.2-0.5,0.7-0.8,1.3-0.6l10,3.4l0.8-5.9
	c0-0.3,0.2-0.5,0.4-0.7c0.2-0.2,0.6-0.2,0.8-0.1l10.2,3.1c0.5,0.2,0.8,0.7,0.7,1.2c-0.2,0.5-0.7,0.8-1.2,0.7l-9.1-2.7l-0.8,5.9
	c0,0.3-0.2,0.6-0.5,0.7C153.1,89.8,152.9,89.8,152.7,89.8"/>
<path class="st3" d="M126.6,79.7c0.8,4.4-2.1,8.6-6.5,9.3c-4.4,0.8-8.6-2.1-9.3-6.5c-0.8-4.4,2.1-8.6,6.5-9.3
	C121.6,72.4,125.8,75.3,126.6,79.7"/>
<path class="st2" d="M76.2,132.3c-6.5,0-15.1-4.7-25.5-13.9c-0.9-0.8-2.4-0.8-3.3,0l-2.6,2.3c-0.4,0.4-1,0.3-1.4-0.1
	c-0.4-0.4-0.3-1,0.1-1.4l2.6-2.3c1.7-1.5,4.3-1.5,5.9,0c14.9,13.2,23,14.4,27.2,13c4.6-1.5,6.1-6.5,6.6-8.5c0.2-0.8,0.6-1.5,1.1-2.1
	l3.3-3.5c0.3-0.3,0.4-0.6,0.6-0.9l2.9-8.4c0.2-0.7,0.7-1.3,1.2-1.9l6.3-6.1c0.8-0.8,1.1-1.9,0.6-2.9c-3.1-6.6-9.1-23.1,2.8-33.9
	c2.2-2,4.2-3.4,6-4.7c2.7-1.9,4.7-3.3,5.2-5.2c1.2-4.3-3.2-11.5-7.4-14c-8.3-4.8-15.8-1.3-20.6,2.5c-5.8,4.5-14.6,6.4-23.6,5
	c-8.2-1.2-15.1-5-18.8-10.3c-1.4-1.9-2-3.3-2.1-3.4c-0.2-0.5,0-1.1,0.4-1.3c0.5-0.2,1.1,0,1.3,0.4c0,0,0.7,1.3,1.9,3.1
	c3.4,4.9,9.8,8.3,17.5,9.5c8.5,1.3,16.7-0.5,22-4.6c5.3-4.2,13.6-8,22.9-2.7c5,2.9,9.9,10.9,8.4,16.2c-0.7,2.5-3,4.2-6,6.2
	c-1.7,1.2-3.7,2.7-5.8,4.5c-11,9.9-5.3,25.4-2.4,31.5c0.8,1.8,0.5,3.8-1,5.2l-6.3,6.1c-0.3,0.3-0.6,0.7-0.7,1.1l-2.9,8.4
	c-0.2,0.6-0.5,1.2-1,1.7l-3.3,3.5c-0.3,0.4-0.5,0.8-0.6,1.2c-0.5,2.4-2.3,8.2-7.9,10C78.8,132.1,77.6,132.3,76.2,132.3"/>
<path class="st2" d="M102.7,166.7c-0.1,0-0.1,0-0.2,0c-0.5-0.1-0.9-0.6-0.8-1.1l4-25.8c0.1-0.9-0.2-1.8-0.8-2.6
	c-1.2-1.5-2.6-3.8-2.4-6.3c0.5-6,0-9.1-4.2-11.3l-7-3.6c-0.4-0.2-0.6-0.7-0.5-1.2l2.9-8.4c0.2-0.7,0.7-1.3,1.2-1.9l5.8-5.6
	c0.3-0.3,0.8-0.4,1.2-0.1l6.7,4.4c2.9,1.9,6.6,2,9.4,0.2c4.7-3,9.1-2.8,12.9,0.7c0.2,0.2,4.2,4,4.2,9.6c0,3.8-1.7,7.5-5.2,10.9
	c-1.9,1.9-3.3,4.3-4.3,7.1l-1.1,3.3l-4.5,30.8c-0.1,0.5-0.6,0.9-1.1,0.8c-0.5-0.1-0.9-0.6-0.8-1.1l4.5-30.9c0-0.1,0-0.1,0-0.2
	l1.2-3.4c1.1-3.2,2.7-5.8,4.8-7.9c3.1-3,4.6-6.2,4.6-9.4c-0.1-4.8-3.6-8.2-3.6-8.2c-3.1-2.8-6.6-2.9-10.5-0.4
	c-3.5,2.2-8,2.2-11.6-0.2l-6.1-4l-5.2,5c-0.3,0.3-0.6,0.7-0.7,1.1l-2.6,7.6l6.2,3.2c5.6,2.9,5.7,7.7,5.3,13.2c-0.1,1.9,1,3.7,2,4.9
	c0.9,1.2,1.4,2.6,1.2,4.1l-4,25.8C103.6,166.4,103.1,166.7,102.7,166.7"/>
<path class="st2" d="M44.1,101.2c-0.4,0-0.8-0.3-1-0.7c-0.1-0.5,0.2-1.1,0.7-1.2C58.6,95.2,73.3,76,76.1,72.2
	c0.6-0.8,0.7-1.8,0.3-2.7c-0.3-0.8-0.9-1.2-1.7-1.3c-2.3-0.3-4.4-1.2-6.1-2.6c-0.5-0.4-1.2-0.6-1.8-0.4c-0.7,0.1-1.2,0.6-1.5,1.2
	c-2.9,5.7-9.7,10.4-20.7,14.3c-0.5,0.2-1.1-0.1-1.3-0.6c-0.2-0.5,0.1-1.1,0.6-1.3c10.6-3.7,17-8.1,19.6-13.3c0.6-1.2,1.6-2,2.9-2.3
	c1.2-0.3,2.5,0,3.5,0.8c1.5,1.2,3.2,1.9,5.1,2.2c1.4,0.2,2.6,1.1,3.2,2.5c0.7,1.5,0.5,3.3-0.5,4.7c-2.9,3.9-17.9,23.6-33.3,27.8
	C44.3,101.2,44.2,101.2,44.1,101.2"/>
<path class="st2" d="M70.4,118.8c-0.1,0-0.3,0-0.4,0c-2.8-0.1-5.1-1.6-6.3-3.9c-0.5-1.1-0.9-2.2-0.9-3.3c-0.2-2,0.6-3.9,2.1-5.2
	c0,0,0.1,0,0.1-0.1l11-7.5c1.5-1.2,3.6-1.5,5.2-0.8c0.8,0.4,1.5,0.9,2,1.6c1.2,1.5,1.2,3.6,0.1,5.3L77,115.3
	C75.6,117.5,73.1,118.8,70.4,118.8 M66.2,108c-1.4,1.2-1.4,2.9-1.3,3.4c0.1,0.8,0.3,1.7,0.7,2.6c0.8,1.7,2.6,2.7,4.6,2.8
	c2.1,0.1,4.1-0.9,5.2-2.6l6.4-10.3c0.6-1,0.6-2.2,0-3c-0.3-0.4-0.7-0.7-1.2-1c-1-0.4-2.3-0.2-3.2,0.5L66.2,108z"/>
</svg>
