<?xml version="1.0" encoding="utf-8"?>
<!-- Generator: Adobe Illustrator 25.2.0, SVG Export Plug-In . SVG Version: 6.00 Build 0)  -->
<svg version="1.1" id="Layer_1" xmlns="http://www.w3.org/2000/svg" xmlns:xlink="http://www.w3.org/1999/xlink" x="0px" y="0px"
	 viewBox="0 0 120.5 120" style="enable-background:new 0 0 120.5 120;" xml:space="preserve">
<path style="fill:#12395F;" d="M34.7,86.1c-0.4,4-0.8,7.9-1.2,11.8c-0.1,1.1-0.5,1.5-1.7,1.5c-1,0-2.1,0-3.1,0
	c-1.5,0-1.9-0.4-1.9-1.9c0-3.5,0-7,0-10.4v-1h-2c-1.5,0-3,0-4.4,0c-1.1,0-1.6-0.5-1.6-1.5c0-1.7,0-3.3,0-5c0-1,0.5-1.5,1.5-1.5
	c0.3,0,0.6,0,0.8,0h1c-0.2-0.3-0.4-0.6-0.6-0.8c-1.7-2.6-2-5.4-0.5-8.2c1.4-2.8,3.8-4.2,6.9-4.3c1.3,0,2.6-0.1,3.8,0.1
	c2.9,0.4,5,2,6.3,4.6c0.2-0.3,0.3-0.5,0.4-0.7c1.6-2.6,3.9-4,7-4c4.1,0,8.2,0,12.4,0h1v-4c-0.8,0-1.7,0-2.5,0
	c-2.4,0-4.1-1.7-4.1-4.1c0-2.8-0.1-5.5,0.2-8.3c0.3-3.3,2.2-5.7,5-7.3c1.9-1.1,3.8-2.1,5.7-3.2c0.2-0.1,0.5-0.3,0.8-0.5
	c-0.2-0.2-0.4-0.3-0.6-0.5c-2-1.9-3.1-4.2-3.1-6.9c0-2.6,0-5.3,0-7.9c0-3.1,2.3-5.4,5.4-5.4c2.1,0,4.3,0,6.4,0c1.8,0,3,0.8,3.8,2.4
	c0.1,0.3,0.4,0.5,0.7,0.7c1.5,0.8,2.3,2,2.3,3.8c0,1.8,0,3.5,0,5.3c0,4.2-0.6,5.7-3.6,8.7c0.2,0.1,0.4,0.3,0.7,0.4
	c1.9,1.1,3.9,2.1,5.8,3.2c3.4,2,5.1,4.9,5.2,8.8c0,0.7,0,1.4,0,2.2c0,0.1,0,0.1,0.1,0.3c1.6-1.3,3.4-0.9,5.2-0.9
	c0.9,0,1.4,0.5,1.4,1.4c0,3.5,0,7,0,10.4c0,1-0.5,1.5-1.5,1.5c-2,0-4.1,0-6.1,0c-0.4,0-0.7,0.1-0.9,0.5c-0.8,1.4-2,2.1-3.6,2.2
	c-1.6,0.1-3.1-0.1-4.3-1.4c-0.3-0.4-0.6-0.8-0.9-1.4V70h0.8c5.5,0,11.1,0,16.6,0c0.4,0,0.9-0.1,1.2-0.4c1.8-1.2,3.7-1.1,5.7-0.9
	c0.8,0.1,1,0.8,1,1.6c0,3.3,0,6.7,0,10c0,1.4,0,2.7,0,4.1c0,1.1-0.5,1.6-1.6,1.6c-2.1,0-4.2,0-6.4,0v1c0,3.5,0,7.1,0,10.6
	c0,1.4-0.4,1.8-1.8,1.8c-1.1,0-2.2,0-3.3,0c-1,0-1.5-0.4-1.6-1.5c-0.4-3.9-0.8-7.9-1.2-11.8h-5.5c0,1.4,0,2.8,0,4.2
	c0,0.2,0.2,0.4,0.4,0.6c1.9,1.5,2.4,3.6,2.3,5.9c-0.1,0.7-0.5,1.1-1.2,1.2c-0.2,0-0.4,0-0.7,0c-7.6,0-15.3,0-22.9,0
	c-1.5,0-1.9-0.4-1.9-1.9c0-2.1,0.7-3.9,2.4-5.3c0.2-0.1,0.3-0.4,0.3-0.6c0-1.4,0-2.7,0-4.1H34.7z M84.3,54c0-1.4,0-2.7,0-4.1
	c0-2.9-1.3-5.1-3.8-6.6c-1.8-1-3.6-2-5.4-3c-0.2-0.1-0.3-0.1-0.5-0.2c-1.1,2-2.7,3.2-4.9,3.2c-2.3,0-3.9-1.2-5-3.3
	c-2.2,1.2-4.3,2.3-6.4,3.6c-1.8,1.1-3,2.8-3.2,4.9c-0.2,2.8-0.2,5.6-0.1,8.3c0,0.8,0.6,1.2,1.4,1.2c0.9,0,1.8,0,2.7,0
	c1.3,0,2.6,0,3.9,0v-4h-5.2v-2.7h1.3v-3.9h2.7v4c1.5,0,3,0,4.4,0c1.8,0,3.2,0.7,4.2,2.2c0.1,0.2,0.3,0.4,0.5,0.4c2.3,0,4.5,0,6.9,0
	v-6.6h2.7V54H84.3z M74.5,78h19.1v-5.3h-3.5c-5,0-9.9,0-14.9,0c-1.1,0-1.6-0.4-1.6-1.4c0-2.7,0-5.3,0-8c0-0.8,0.5-1.3,1.3-1.3
	c0.3,0,0.6,0,0.8,0c0.5,0.1,0.7-0.2,1-0.6c0.5-0.7,1.1-1.3,1.8-1.7c2.5-1.3,5.4-0.3,6.7,2.1c0,0.1,0.1,0.1,0.2,0.1v-5.3
	c-4.8,0-9.5,0-14.2,0c-0.2,0-0.6,0.3-0.6,0.5c-0.4,1.1-1,2.1-2,2.7c-0.4,0.3-0.5,0.6-0.5,1c0,3.3,0,6.5,0,9.8c0,0.2,0,0.4,0,0.7
	c1.9-0.1,3.8-0.2,5.3,1.4C75,74.3,75.3,76,74.5,78 M65.6,67.4c-0.1,0-0.2-0.1-0.2-0.1c-6.7,0-13.4,0-20,0c-1.6,0-2.9,0.7-3.8,1.9
	c-1.4,1.7-1.7,3.6-0.7,5.6c0.9,2,2.6,3.1,4.8,3.1c6.9,0,13.9,0,20.8,0c0.2,0,0.4,0,0.5-0.1v-4H45.6v-2.7h19.9V67.4z M21.5,83.3H99
	v-2.6H21.5V83.3z M72.2,27.3c-1.6,0.8-2.9,1.7-4.4,2.2c-1.5,0.5-3.2,0.5-4.8,0.7c0.1,2.3,1.1,4.3,3.3,5.5c2.4,1.4,4.8,1.3,7.1-0.1
	c2-1.3,3-3.3,3-5.7C74.5,29.4,73.1,28.5,72.2,27.3 M76.3,27c0-1.4,0-2.6,0-3.8c0-0.7-0.5-1.2-1.2-1.2c-0.9-0.1-1.3-0.5-1.4-1.4
	c-0.1-0.8-0.6-1.2-1.4-1.2c-2.3,0-4.5,0-6.8,0c-1.2,0-2.4,1-2.5,2.2c-0.1,1.9,0,3.8,0,5.7c1,0,1.9,0.1,2.9,0
	c2.2-0.3,3.9-1.3,5.2-3.1c0.4-0.5,0.8-0.9,1.5-0.8c0.7,0.1,1,0.6,1.2,1.2c0.1,0.2,0.2,0.5,0.3,0.7C74.5,26,75.2,26.7,76.3,27
	 M33.6,77.2c-0.4-0.3-0.8-0.6-1.1-1c-1.3-1.8-3.1-2.5-5.3-2.2c-1.2,0.2-1.7-0.4-1.7-1.7c0-1.4,0-2.7,0-4.2c-0.3,0.2-0.5,0.3-0.7,0.5
	c-2.7,2.1-2.6,6.2,0.1,8.3C26.8,78.4,31.4,78.5,33.6,77.2 M28.2,71.4c0.6,0,1.2,0.1,1.8,0c1-0.1,1.7,0.3,2.4,1c0.9,1,2,2,3,3
	c1.8-3.1,0.2-7.1-3.3-7.8c-1.2-0.3-2.6-0.2-3.9-0.3V71.4z M61.6,90h6.6v-3.9h-6.6V90z M77.6,86.1H71V90h6.6V86.1z M58.8,95.4h9.4
	v-2.6c-2.3,0-4.6,0-6.8,0c-0.7,0-1.3,0.2-1.6,0.8C59.4,94,59.1,94.6,58.8,95.4 M71,95.4h9.3c-0.3-1.9-1.1-2.6-2.9-2.6H71V95.4z
	 M29.6,86.1v10.6H31c0.4-3.5,0.7-7.1,1.1-10.6H29.6z M90.9,86.1h-2.5c0.4,3.6,0.7,7.1,1.1,10.6h1.4V86.1z M90.9,62v-8
	c-0.5,0-0.9,0-1.4,0c-0.7,0.1-1.2,0.5-1.2,1.2c0,2.2,0,4.5,0,6.8H90.9z M99,78v-6.6c-0.4,0-0.7,0-1,0c-1.3,0.1-1.6,0.4-1.6,1.7v1.4
	V78H99z M65.6,60.7h-3.9v3.9h3.9V60.7z M80.9,64.7L80.9,64.7c0.2,0,0.5,0,0.8,0c0.8-0.1,1.3-0.6,1.3-1.3c0-0.7-0.5-1.3-1.3-1.3
	c-0.5,0-0.9,0-1.4,0c-0.7,0.1-1.2,0.6-1.2,1.3c0,0.7,0.5,1.2,1.3,1.3C80.4,64.7,80.7,64.7,80.9,64.7 M69.6,78c1,0.1,1.8-0.1,2.4-1
	c0.4-0.7,0.4-1.4-0.1-2.1c-0.6-0.8-1.3-1-2.3-0.8V78z M65.7,54V58c1.6,0.1,2.6-0.7,2.6-2C68.2,54.7,67.2,53.9,65.7,54 M71.9,39.2
	h-4.7c0.5,0.9,1.3,1.4,2.4,1.5C70.7,40.6,71.5,40.1,71.9,39.2 M39.5,78c-0.5-0.7-0.9-1.3-1.3-2c-0.4,0.7-0.8,1.3-1.2,2H39.5z"/>
</svg>
