<?xml version="1.0" encoding="utf-8"?>
<!-- Generator: Adobe Illustrator 25.2.0, SVG Export Plug-In . SVG Version: 6.00 Build 0)  -->
<svg version="1.1" id="Layer_1" xmlns="http://www.w3.org/2000/svg" xmlns:xlink="http://www.w3.org/1999/xlink" x="0px" y="0px"
	 viewBox="0 0 120.5 120" style="enable-background:new 0 0 120.5 120;" xml:space="preserve">
<g>
	<path style="fill:none;stroke:#00969C;stroke-width:2.5;stroke-miterlimit:10;" d="M33.4,46.8c0,0,6.2,2.8,12-6.4
		c5.8-9.2,15.2-9,20-1.8c4.2-1,6.4,2.2,7,4c0.6,1.8,3,4.8,6.6,4.6"/>
	<path style="fill:none;stroke:#00969C;stroke-width:2.5;stroke-miterlimit:10;" d="M35.2,47.2c0,0-9.9,39,21,45.3
		C65.5,90.3,83,86.1,77.3,47"/>
	<path style="fill:none;stroke:#00969C;stroke-width:2.5;stroke-miterlimit:10;" d="M35.4,73.5c0,0-5.4,1.1-8.2-6.8
		c-0.3-1-0.5-2-0.3-3c0.8-4.8,6.5-4.4,6.5-4.4"/>
	<path style="fill:none;stroke:#00969C;stroke-width:2.5;stroke-miterlimit:10;" d="M30,64.7c0,0,3.9-1.8,4,2.5"/>
	<path style="fill:none;stroke:#00969C;stroke-width:2.5;stroke-miterlimit:10;" d="M77.7,73.5c0,0,5.6,2.2,8.3-7.2
		c0.4-1.5,0.3-3.1-0.4-4.5c-2.1-4-7.1-2.1-7.1-2.1"/>
	<path style="fill:none;stroke:#00969C;stroke-width:2.5;stroke-miterlimit:10;" d="M83.1,64.7c0,0-3.9-1.8-4,2.5"/>
	<path style="fill:none;stroke:#00969C;stroke-width:2.5;stroke-miterlimit:10;" d="M29.1,60.3c0,0-7.6-36.6,27.7-39.5
		c9.4,0.2,31.6,8.1,26.8,38.9"/>
	<path style="fill:none;stroke:#00969C;stroke-width:2.5;stroke-miterlimit:10;" d="M37,56.1c0,0,3.5-1.7,6.3-1.1
		c2.8,0.6,8.1,1.1,8.1,1.1"/>
	<path style="fill:none;stroke:#00969C;stroke-width:2.5;stroke-miterlimit:10;" d="M38.9,62.5c0,0,1.4-0.7,2.3-0.4
		c0.9,0.3,2.1,2.9,8.7,1.2"/>
	<path style="fill:none;stroke:#00969C;stroke-width:2.5;stroke-miterlimit:10;" d="M75.5,56.1c0,0-3.5-1.7-6.3-1.1
		c-2.8,0.6-8.1,1.1-8.1,1.1"/>
	<path style="fill:none;stroke:#00969C;stroke-width:2.5;stroke-miterlimit:10;" d="M73.6,62.5c0,0-1.4-0.7-2.3-0.4
		c-0.9,0.3-2.1,2.9-8.7,1.2"/>
	<path style="fill:none;stroke:#00969C;stroke-width:2.5;stroke-miterlimit:10;" d="M53.2,70.7l1.2,0.8c1.2,0.8,2.7,0.7,3.8-0.2
		l0.8-0.7"/>
	<path style="fill:none;stroke:#00969C;stroke-width:2.5;stroke-miterlimit:10;" d="M49.1,77.4c0,0,2.2,2,5.4,0.6
		c1.1,1.4,3.4,0.5,3.7-0.1c1.9,1.1,4.5,0.1,5.1-0.5"/>
	<path style="fill:none;stroke:#00969C;stroke-width:2.5;stroke-miterlimit:10;" d="M54.5,82c0,0,1.8,1.1,3.6,0"/>
	<line style="fill:none;stroke:#00969C;stroke-width:2.5;stroke-miterlimit:10;" x1="48.1" y1="84.7" x2="49.8" y2="86"/>
	<line style="fill:none;stroke:#00969C;stroke-width:2.5;stroke-miterlimit:10;" x1="51.9" y1="87.1" x2="53.9" y2="87.8"/>
	<line style="fill:none;stroke:#00969C;stroke-width:2.5;stroke-miterlimit:10;" x1="64.4" y1="84.7" x2="62.6" y2="86.1"/>
	<line style="fill:none;stroke:#00969C;stroke-width:2.5;stroke-miterlimit:10;" x1="60.6" y1="87.1" x2="58.6" y2="87.8"/>
	<path style="fill:none;stroke:#312F8F;stroke-width:2.5;stroke-miterlimit:10;" d="M46.2,47.8c0,0,0.6-0.3,1.6-0.6"/>
	<path style="fill:none;stroke:#312F8F;stroke-width:2.5;stroke-miterlimit:10;" d="M50.6,46.4c0,0,0.8-0.2,1.9-0.2"/>
	<path style="fill:none;stroke:#312F8F;stroke-width:2.5;stroke-miterlimit:10;" d="M66.5,47.8c0,0-0.6-0.3-1.6-0.6"/>
	<path style="fill:none;stroke:#312F8F;stroke-width:2.5;stroke-miterlimit:10;" d="M62.1,46.4c0,0-0.8-0.2-1.9-0.2"/>
	<line style="fill:none;stroke:#312F8F;stroke-width:2.5;stroke-miterlimit:10;" x1="55.3" y1="45.8" x2="57.2" y2="45.8"/>
	<path style="fill:none;stroke:#00969C;stroke-width:2.5;stroke-miterlimit:10;" d="M51.3,65.8c0,0-0.5,0.5-1.4,1.1"/>
	<path style="fill:none;stroke:#00969C;stroke-width:2.5;stroke-miterlimit:10;" d="M47.5,68.5c0,0-0.7,0.4-1.7,0.8"/>
	<path style="fill:none;stroke:#00969C;stroke-width:2.5;stroke-miterlimit:10;" d="M37.2,69.2c0,0,0.1,0.1,1.1,0.4"/>
	<line style="fill:none;stroke:#00969C;stroke-width:2.5;stroke-miterlimit:10;" x1="42.7" y1="69.8" x2="41.1" y2="69.8"/>
	<path style="fill:none;stroke:#00969C;stroke-width:2.5;stroke-miterlimit:10;" d="M61.3,65.8c0,0,0.5,0.5,1.4,1.1"/>
	<path style="fill:none;stroke:#00969C;stroke-width:2.5;stroke-miterlimit:10;" d="M65.1,68.5c0,0,0.7,0.4,1.7,0.8"/>
	<path style="fill:none;stroke:#00969C;stroke-width:2.5;stroke-miterlimit:10;" d="M75.4,69.2c0,0-0.1,0.1-1.1,0.4"/>
	<line style="fill:none;stroke:#00969C;stroke-width:2.5;stroke-miterlimit:10;" x1="69.9" y1="69.8" x2="71.5" y2="69.8"/>
	<line style="fill:none;stroke:#00969C;stroke-width:2.5;stroke-miterlimit:10;" x1="56.3" y1="53.3" x2="56.3" y2="54.8"/>
	<line style="fill:none;stroke:#00969C;stroke-width:2.5;stroke-miterlimit:10;" x1="56.3" y1="58.2" x2="56.3" y2="59.7"/>
	<line style="fill:none;stroke:#00969C;stroke-width:2.5;stroke-miterlimit:10;" x1="56.3" y1="63" x2="56.3" y2="64.6"/>
	<line style="fill:none;stroke:#00969C;stroke-width:2.5;stroke-miterlimit:10;" x1="56.3" y1="67.9" x2="56.3" y2="69.4"/>
	<path style="fill:none;stroke:#00969C;stroke-width:2.5;stroke-miterlimit:10;" d="M39.9,104c0,0,8.7-4.4,8.6-14.1"/>
	<path style="fill:none;stroke:#00969C;stroke-width:2.5;stroke-miterlimit:10;" d="M73,104c0,0-8.7-4.4-8.6-14.1"/>
</g>
</svg>
