<?xml version="1.0" encoding="utf-8"?>
<!-- Generator: Adobe Illustrator 25.2.0, SVG Export Plug-In . SVG Version: 6.00 Build 0)  -->
<svg version="1.1" id="Layer_1" xmlns="http://www.w3.org/2000/svg" xmlns:xlink="http://www.w3.org/1999/xlink" x="0px" y="0px"
	 viewBox="0 0 120.5 120" style="enable-background:new 0 0 120.5 120;" xml:space="preserve">
<g>
	<path style="fill:#12395F;" d="M43.5,63.9c-0.8,0-1.8-0.2-2.9-0.5c-6-2-16.8-9.3-14.6-22.1c0.9-4.9,4.5-9.9,9.4-13
		c3.7-2.4,7.5-3.3,10.4-2.6c0.1,0,0.1,0,0.2,0.1c1.9,0.8,2.7,2.1,3,3c0.5,1.4,0.3,3.1-0.7,4.9c-1.3,2.3-2.6,14.1,0.2,23.1v0
		c0.5,1.7,0.3,3.4-0.5,4.8C47.4,62.5,46,63.9,43.5,63.9 M43.7,27.9c-2.1,0-4.5,0.9-7,2.4c-4.3,2.8-7.5,7.2-8.3,11.4
		C26.6,52.9,36.1,59.2,41.4,61c3.3,1.1,4.2-0.4,4.5-0.9c0.5-0.8,0.6-1.8,0.3-2.8c-3-9.4-1.8-21.9,0-25c0.6-1.1,0.8-2.1,0.5-2.9
		c-0.2-0.6-0.7-1.1-1.5-1.4C44.7,27.9,44.2,27.9,43.7,27.9"/>
	<path style="fill:#12395F;" d="M60.1,71.3c-0.7,0-1.2-0.6-1.2-1.2V53.2c-0.4-5.7-6.3-6.9-7.1-7.1h-5.9c-0.7,0-1.2-0.6-1.2-1.2
		c0-0.7,0.6-1.2,1.2-1.2h6c0.1,0,0.1,0,0.2,0c3,0.4,8.8,2.9,9.3,9.5l0,17C61.3,70.8,60.8,71.3,60.1,71.3"/>
	<path style="fill:#12395F;" d="M80.3,63.9c-2.5,0-3.9-1.4-4.5-2.5c-0.8-1.4-1-3.2-0.5-4.8c2.8-9,1.5-20.7,0.2-23.1
		c-1-1.8-1.2-3.5-0.7-4.9c0.3-0.9,1.1-2.2,3-3c0.1,0,0.1,0,0.2-0.1c4.7-1.1,11.4,2,15.8,7.5c0.4,0.5,0.4,1.3-0.2,1.8
		c-0.5,0.4-1.3,0.4-1.8-0.2c-3.8-4.6-9.4-7.5-13.2-6.6c-0.8,0.4-1.3,0.8-1.5,1.4c-0.3,0.8-0.1,1.7,0.5,2.9c1.8,3.2,2.9,15.6,0,25
		c-0.3,1-0.2,2,0.3,2.8c0.3,0.5,1.2,2,4.5,0.9c5.3-1.8,14.8-8.2,12.9-19.4c-0.1-0.7,0.3-1.3,1-1.4c0.7-0.1,1.3,0.3,1.4,1
		c2.2,12.8-8.6,20.1-14.6,22.1C82.1,63.8,81.1,63.9,80.3,63.9"/>
	<path style="fill:#12395F;" d="M63.7,71.3c-0.7,0-1.2-0.6-1.2-1.2V53.2c0.5-6.6,6.3-9.1,9.3-9.5c0.1,0,0.1,0,0.2,0h6
		c0.7,0,1.2,0.6,1.2,1.2c0,0.7-0.6,1.2-1.2,1.2H72c-0.8,0.1-6.7,1.3-7.1,7.1l0,16.8C65,70.8,64.4,71.3,63.7,71.3"/>
	<path style="fill:#12395F;" d="M62.2,98.1c-2.3,0-4.1-1.8-4.1-4.1v-0.4c0-1.3-0.5-2.5-1.4-3.5l-8.4-9.1c-0.7-0.8-1.3-1.8-1.6-2.8
		c-1-3.3,0.2-6.2,3.1-8c1.3-0.8,2.9-1.2,4.5-1.2h15.4c2,0,4,0.7,5.5,1.9c1.8,1.4,2.6,3.3,2.4,5.4c-0.1,1.4-0.7,2.8-1.7,4l-8.4,9.9
		c-0.8,0.9-1.2,2.1-1.2,3.3V94C66.3,96.2,64.4,98.1,62.2,98.1 M49.1,77.4c0.2,0.7,0.6,1.3,1.1,1.8l8.4,9.1c1.3,1.4,2,3.3,2,5.2V94
		c0,0.9,0.7,1.6,1.6,1.6c0.9,0,1.6-0.7,1.6-1.6v-0.6c0-1.8,0.6-3.6,1.8-4.9l8.4-9.9c0.7-0.8,1-1.7,1.1-2.6c0.1-1.3-0.4-2.3-1.5-3.3
		c-1-0.9-2.4-1.3-3.9-1.3H54.3c-1.1,0-2.2,0.3-3.2,0.9C49.1,73.5,48.4,75.2,49.1,77.4"/>
	<path style="fill:#12395F;" d="M65,85.6h-5.9c-0.4,0-0.7-0.1-0.9-0.4l-5.7-6.4c-0.7-0.7-1-1.6-1-2.6c0-1.4,0.8-3,3-3.2
		c0,0,0.1,0,0.1,0h14.6c0.1,0,0.1,0,0.2,0c0.2,0,2,0.4,2.8,1.8c0.3,0.5,0.6,1.4,0.2,2.6c-0.1,0.5-0.4,0.9-0.7,1.3L66,85.1
		C65.7,85.4,65.4,85.6,65,85.6 M59.6,83.1h4.8l5.4-6.1c0.1-0.1,0.2-0.3,0.2-0.4c0.1-0.3,0-0.4,0-0.5c-0.2-0.3-0.7-0.5-1-0.6H54.6
		c-0.3,0-0.7,0.1-0.7,0.8c0,0.3,0.1,0.6,0.3,0.8L59.6,83.1z"/>
</g>
</svg>
