<?xml version="1.0" encoding="utf-8"?>
<!-- Generator: Adobe Illustrator 25.2.0, SVG Export Plug-In . SVG Version: 6.00 Build 0)  -->
<svg version="1.1" id="Layer_1" xmlns="http://www.w3.org/2000/svg" xmlns:xlink="http://www.w3.org/1999/xlink" x="0px" y="0px"
	 viewBox="0 0 200 200" style="enable-background:new 0 0 200 200;" xml:space="preserve">
<style type="text/css">
	.st0{fill:#37A0A5;}
	.st1{fill:#113A60;}
</style>
<g>
	<path class="st0" d="M101.7,166.3c-36.3,0-65.9-29.6-65.9-65.9s29.6-65.9,65.9-65.9s65.9,29.6,65.9,65.9S138.1,166.3,101.7,166.3
		 M101.7,36.3c-35.3,0-64.1,28.8-64.1,64.1s28.8,64.1,64.1,64.1s64.1-28.8,64.1-64.1C165.8,65,137.1,36.3,101.7,36.3"/>
	<path class="st0" d="M63.9,137.2c-2.4,0-4.9-0.4-7.5-1.2c-8.6-2.7-15.1-9.3-15.5-10.2c-0.2-0.4,0-1,0.4-1.2s1,0,1.2,0.4
		c1.2,1.8,16,15.8,30.7,8.1c5-2.6,7.8-6.3,8.4-10.7c0.7-6-2.8-12.1-6.3-15.2c-6.5-5.8-13.2-12.5-13.4-18.2c-0.1-1.8,0.5-3.4,1.8-4.7
		c1.5-1.5,3.8-2.1,6.4-1.7c3.8,0.7,7.9,3.5,9.2,6.4v0.1c2.6,8,8.4,10.4,8.4,10.5l23,10.3c0.2,0.1,0.4,0.3,0.5,0.5l2.7,8.1l7.1,3.5
		c5.3,1.5,8.9-1.9,9.4-2.5c0.6-1.1,5.6-10.4,7.7-16.5c1.9-5.5-2-10.6-2.7-11.5l-7.3-3.4l-9.4,3.5c-0.2,0.1-0.5,0.1-0.7,0
		s-15.4-7-19.9-9.2c-0.6-0.3-1.2-0.6-1.7-0.8c-3.5-1.7-5.4-2.7-11-0.4c-5.2,2.2-9.1,1.3-12.5,0.4c-2.5-0.6-4.7-1.2-7.1-0.5
		c-2.9,0.8-5.1,3.2-5.6,6.2c-0.8,4.6,2.8,8.8,8.8,15.8c1.2,1.4,2.5,2.9,3.9,4.6c7.5,9,8.3,15.8,2.5,20.9c-2.5,2.1-5.5,3.5-8.9,4
		c-20.3,2.7-30-25.8-30.4-27c-0.2-0.5,0.1-1,0.6-1.1c0.5-0.2,1,0.1,1.1,0.6c0.1,0.3,9.6,28.2,28.4,25.8c3-0.4,5.8-1.6,8-3.5
		c3.2-2.8,6.3-7.7-2.7-18.4c-1.4-1.6-2.7-3.1-3.9-4.6c-6.2-7.1-10.2-11.8-9.2-17.3c0.7-3.6,3.4-6.6,6.9-7.6c2.9-0.8,5.3-0.2,8,0.5
		c3.3,0.8,6.7,1.7,11.3-0.3c6.4-2.7,8.9-1.4,12.5,0.4c0.5,0.3,1.1,0.5,1.7,0.8c4.1,2,17.3,8,19.6,9l9.4-3.5c0.2-0.1,0.5-0.1,0.7,0
		l7.8,3.6c0.1,0.1,0.2,0.1,0.3,0.2c0.2,0.3,5.6,6.4,3.2,13.4c-2.3,6.6-7.7,16.5-7.9,16.9c0,0.1-0.1,0.1-0.1,0.2
		c-0.2,0.2-4.6,5-11.4,3c-0.1,0-0.1,0-0.2-0.1l-7.5-3.7c-0.2-0.1-0.4-0.3-0.5-0.5l-2.6-8.1L87,101.1c-0.2-0.1-6.5-2.7-9.4-11.5
		c-1.1-2.4-4.6-4.8-7.8-5.3c-1.4-0.2-3.4-0.2-4.8,1.2c-0.9,1-1.4,2.1-1.3,3.4c0.2,5.7,9,13.5,12.8,16.9c3.9,3.4,7.7,10.2,6.9,16.8
		c-0.6,5-3.8,9.2-9.3,12.1C70.8,136.3,67.4,137.2,63.9,137.2"/>
	<path class="st1" d="M130.6,129.6c7.9-6.6,13.8-15.7,15.9-25.9c0.7-3.4,1-6.8,1-10.3c0-0.3,0.2-0.5,0.5-0.5c0.2,0,0.4,0.2,0.5,0.4
		c2,10.7-1.7,22.2-9.1,30.1c-1.2,1.3-2.5,2.6-3.9,3.7s-2.9,2.2-4.5,3C130.6,130.4,130.3,129.9,130.6,129.6"/>
	<path class="st1" d="M133.3,134.7c9.6-7.6,16.6-18.6,18.4-30.8c0.6-4,0.7-8.1,0.4-12.3c0-0.3,0.2-0.5,0.5-0.5
		c0.2,0,0.5,0.1,0.5,0.4c2.9,12.6-0.8,26.2-9.6,35.8c-1.4,1.6-3,3.1-4.6,4.4c-1.7,1.3-3.4,2.6-5.3,3.6
		C133.3,135.4,133,134.9,133.3,134.7"/>
	<path class="st1" d="M135.9,139.7c11.4-8.9,20.2-21.9,21.2-36.6c0.3-4.8-0.1-9.7-1-14.5c-0.1-0.3,0.1-0.5,0.4-0.6
		c0.2,0,0.5,0.1,0.6,0.3c5.1,14.8,1.2,31-9.3,42.4c-1.7,1.9-3.5,3.6-5.4,5.2c-1.9,1.6-4,3.1-6.2,4.3
		C135.9,140.5,135.6,140,135.9,139.7"/>
</g>
</svg>
