<?xml version="1.0" encoding="utf-8"?>
<!-- Generator: Adobe Illustrator 25.2.0, SVG Export Plug-In . SVG Version: 6.00 Build 0)  -->
<svg version="1.1" id="Layer_1" xmlns="http://www.w3.org/2000/svg" xmlns:xlink="http://www.w3.org/1999/xlink" x="0px" y="0px"
	 viewBox="0 0 120.5 120" style="enable-background:new 0 0 120.5 120;" xml:space="preserve">
<g>
	<path style="fill:#00969C;" d="M54.1,103.5c-0.5,0-1-0.3-1.2-0.8c0-0.1-1.2-3.3-2.1-6.7c-0.7-2.6-1.7-3.7-6.3-4.3
		c-1.6-0.2-3.1-0.1-4.5,0c-2.7,0.2-5.6,0.4-7.6-2c-1.9-2.3-1.1-5.1-0.5-7c0.1-0.3,0.2-0.6,0.2-0.9c-0.9-0.4-1.4-1.3-1.6-2.4
		c-0.2-1.3,0.4-2.5,1.5-3c0.1-0.1,0.3-0.1,0.4-0.2c-1.2-0.9-1.1-2-1-2.1c0.1-0.7,0.8-1.1,1.4-1c0.6,0.1,1,0.6,1,1.1
		c0.1,0.1,0.4,0.3,1.1,0.5c0.4,0.1,1.6,0.5,1.7,1.6c0,1.2-1.2,1.6-2.5,2c-0.4,0.1-0.8,0.2-1,0.3c0,0-0.1,0.3,0,0.6
		c0.1,0.2,0.2,0.2,0.2,0.2c0.5,0.1,0.9,0.4,1.1,0.8c0.5,0.8,0.2,1.8-0.1,3c-0.4,1.6-1,3.5,0,4.7c1.1,1.4,2.7,1.3,5.5,1.1
		c1.5-0.1,3.2-0.2,5,0c5.2,0.7,7.4,2.2,8.4,6.1c0.9,3.3,2,6.5,2,6.5c0.2,0.7-0.1,1.4-0.8,1.6C54.4,103.4,54.2,103.5,54.1,103.5
		 M33.8,74.6L33.8,74.6L33.8,74.6z M33.8,74.6"/>
	<path style="fill:#12395F;" d="M33.3,72.7c-0.1,0-0.3,0-0.4-0.1c-0.6-0.2-1-1-0.7-1.6c0.1-0.2,0-0.3-0.2-0.4
		c-0.2-0.1-0.7-0.2-1.1-0.3c-1.6-0.3-3.7-0.8-4.5-2.5c-0.5-0.9-0.4-2,0.2-3.2c1.2-2.6,6.6-8.8,8-10.4l-0.1-1.7
		c0-0.7,0.5-1.3,1.2-1.3c0.7,0,1.3,0.5,1.3,1.2l0.1,2.2c0,0.3-0.1,0.6-0.3,0.9c-1.9,2.1-6.9,8-7.9,10.2c-0.1,0.3-0.3,0.8-0.2,1.1
		c0.3,0.6,1.9,0.9,2.8,1.1c0.6,0.1,1.1,0.2,1.6,0.4c1.9,0.8,2,2.6,1.6,3.5C34.2,72.4,33.8,72.7,33.3,72.7"/>
	<path style="fill:#12395F;" d="M69.7,97c-0.5,0-1-0.3-1.2-0.8c-1-2.3-9.3-22.7-9.1-27.8c0.2-3.7-1.6-4.1-4-4.7l-0.5-0.1
		c-2.3-0.5-3.8-2.5-4.9-4.1c-0.4-0.5-0.8-1-1.1-1.4c-0.8-0.8-4.4,0.1-7,0.8L41.6,59c-2.6,0.6-5.3,4.9-6.2,6.5
		c-0.3,0.6-1.1,0.8-1.7,0.5c-0.6-0.3-0.8-1.1-0.5-1.7c0.4-0.7,3.7-6.7,7.8-7.7l0.3-0.1c4.1-1,7.6-1.9,9.4-0.1c0.4,0.4,0.9,1,1.3,1.6
		c1,1.3,2.1,2.8,3.5,3.2l0.4,0.1c2.5,0.6,6.2,1.4,6,7.2c-0.2,3.9,6.4,20.7,8.9,26.8c0.3,0.6,0,1.4-0.7,1.6C70,97,69.9,97,69.7,97"/>
	<path style="fill:#12395F;" d="M57.6,77.5c-1.1,0-2.3-1.2-3.8-2.7c-1.1-1.1-5.4-4.4-14.1-0.3c-0.6,0.3-1.4,0-1.7-0.6
		c-0.3-0.6,0-1.4,0.6-1.7c10.2-4.8,15.5-0.6,16.9,0.8c0.2,0.2,0.3,0.3,0.5,0.5c-0.8-1.5-2.4-3.1-3.9-4c-1.6-0.9-6.5-0.3-9.2,0
		c-0.6,0.1-1.1,0.1-1.5,0.2c-3.3,0.3-6.2-1.1-6.3-1.2c-0.6-0.3-0.9-1.1-0.6-1.7c0.3-0.6,1.1-0.9,1.7-0.6c0.1,0,2.4,1.2,5,0.9
		c0.4,0,0.9-0.1,1.5-0.2c4.5-0.5,8.7-0.9,10.8,0.3c2.6,1.5,5.5,5,5.7,7.6c0.1,1.2-0.2,1.9-1,2.3C58.1,77.5,57.8,77.5,57.6,77.5"/>
	<path style="fill:#12395F;" d="M61.6,99.9c-0.6,0-1.1-0.4-1.2-0.9c-1.3-5.1-5.3-18.8-8.5-21.4c-3.5-2.9-10.4,0.4-10.5,0.5
		c-0.6,0.3-1.4,0.1-1.7-0.6c-0.3-0.6-0.1-1.4,0.6-1.7c0.3-0.2,8.4-4.1,13.2-0.2c4.4,3.6,8.9,20.8,9.3,22.7c0.2,0.7-0.2,1.3-0.9,1.5
		C61.8,99.9,61.7,99.9,61.6,99.9"/>
	<path style="fill:#12395F;" d="M68.1,70.5c-1.3,0-3.3-0.6-4.1-4c-0.2-0.7,0.3-1.3,0.9-1.5c0.7-0.2,1.3,0.3,1.5,0.9
		c0.5,2.2,1.5,2.1,1.8,2.1c2.7-0.2,7.4-5.7,7.8-9.1c0.5-3.4,0.1-5.8-1.2-7.1c-1.1-1.1-3-1.5-5.5-1.1c-0.9,0.1-1.6,0.5-2,1.1
		c-1.1,1.6-0.4,4.4-0.4,4.4c0.2,0.7-0.2,1.4-0.9,1.5c-0.7,0.2-1.3-0.2-1.5-0.9c0-0.2-1-3.9,0.7-6.4c0.8-1.2,2.1-2,3.7-2.2
		c3.3-0.5,5.9,0.1,7.6,1.8c1.9,1.9,2.5,5,1.9,9.2c-0.5,4.3-5.9,11.1-10.2,11.3C68.3,70.5,68.2,70.5,68.1,70.5"/>
	<path style="fill:#12395F;" d="M68.5,64.3c-0.6,0-1.2-0.1-1.6-0.2c-0.7-0.2-1.1-0.8-0.9-1.5c0.2-0.7,0.8-1.1,1.5-0.9
		c0,0,2.9,0.6,3.5-1.1c0.2-0.5,0.1-0.7,0-0.9c-0.4-0.6-1.5-0.9-2-1c-0.7-0.1-1.1-0.7-1-1.4c0.1-0.7,0.7-1.1,1.4-1
		c0.3,0,2.6,0.5,3.7,2.2c0.4,0.6,0.7,1.6,0.3,2.9C72.5,63.7,70.3,64.3,68.5,64.3"/>
	<path style="fill:#00969C;" d="M45.5,38.2c-0.3,0-0.5-0.1-0.8-0.3c-0.5-0.4-0.7-1.2-0.2-1.8c0.2-0.2,1.8-2.4,3.1-3.2
		c0.6-0.4,1.4-0.2,1.7,0.4c0.4,0.6,0.2,1.4-0.4,1.7c-0.7,0.4-1.9,1.8-2.4,2.6C46.2,38,45.9,38.2,45.5,38.2"/>
	<path style="fill:#00969C;" d="M51.5,33.4c-0.4,0-0.8-0.2-1.1-0.6c-0.4-0.6-0.2-1.3,0.4-1.7c0.2-0.2,6-3.8,15.6-3.3
		c0.7,0,1.2,0.6,1.2,1.3c0,0.7-0.6,1.2-1.3,1.2c-8.8-0.5-14.1,2.8-14.1,2.9C52,33.4,51.8,33.4,51.5,33.4"/>
	<path style="fill:#00969C;" d="M88.3,90.2c-0.1,0-0.2,0-0.4-0.1c-0.5-0.2-2.1-0.6-3.5-9.7c-0.8-4.7,1.3-7.6,3.6-11
		c2.2-3.1,4.9-6.9,6.3-13.5c3-13.5-4.5-24.4-13.3-29.3c-8.5-4.8-25.9-4.8-36.5,2.3c-10.1,6.8-8.5,19.4-8.5,19.5
		c0.1,0.7-0.4,1.3-1.1,1.4c-0.7,0.1-1.3-0.4-1.4-1.1c-0.1-0.6-1.8-14.3,9.6-21.9c11.7-7.8,30-7.5,39.1-2.4
		c9.5,5.4,17.7,17.3,14.5,32.1c-1.6,7.1-4.4,11.2-6.7,14.4c-2.3,3.3-3.8,5.4-3.2,9.1c1,6.2,1.9,7.6,2.1,7.9c0.5,0.3,0.7,0.9,0.5,1.4
		C89.3,89.9,88.8,90.2,88.3,90.2 M88.7,87.8L88.7,87.8L88.7,87.8 M88.7,87.8L88.7,87.8L88.7,87.8z M88.7,87.8L88.7,87.8L88.7,87.8z
		 M88.7,87.8L88.7,87.8L88.7,87.8"/>
</g>
</svg>
