<?xml version="1.0" encoding="utf-8"?>
<!-- Generator: Adobe Illustrator 25.2.0, SVG Export Plug-In . SVG Version: 6.00 Build 0)  -->
<svg version="1.1" id="Layer_1" xmlns="http://www.w3.org/2000/svg" xmlns:xlink="http://www.w3.org/1999/xlink" x="0px" y="0px"
	 viewBox="0 0 120.5 120" style="enable-background:new 0 0 120.5 120;" xml:space="preserve">
<g>
	
		<polyline style="fill:none;stroke:#12395F;stroke-width:2.428;stroke-linecap:round;stroke-linejoin:round;stroke-miterlimit:10;" points="
		88.3,55 73,69.9 73,77.3 88.3,62.4 	"/>
	<path style="fill:none;stroke:#12395F;stroke-width:2.428;stroke-linecap:round;stroke-linejoin:round;stroke-miterlimit:10;" d="
		M79.4,88.7c0.4,0.1,0.8,0.1,1.3,0.1c4.2,0,7.6-3.4,7.6-7.6V50.9"/>
	<path style="fill:none;stroke:#12395F;stroke-width:2.428;stroke-linecap:round;stroke-linejoin:round;stroke-miterlimit:10;" d="
		M70.4,48.3c0-1.4,1.2-2.6,2.6-2.6h8.1V22.4H56.8V34h4.4v3.3h1.5c1.4,0,2.6,1.2,2.6,2.6s-1.2,2.6-2.6,2.6h-1.5v15.9l9.8,16.2
		l2.1,3.5v-0.9v-7.4v-19C71.6,50.9,70.4,49.7,70.4,48.3z"/>
	
		<polygon style="fill:none;stroke:#12395F;stroke-width:2.428;stroke-linecap:round;stroke-linejoin:round;stroke-miterlimit:10;" points="
		61.2,34 56.8,34 51.8,34 51.8,37.3 61.2,37.3 	"/>
	<path style="fill:none;stroke:#12395F;stroke-width:2.428;stroke-linecap:round;stroke-linejoin:round;stroke-miterlimit:10;" d="
		M73,78.2v3.1c0,3.8,2.8,6.9,6.4,7.5"/>
	<path style="fill:none;stroke:#12395F;stroke-width:2.428;stroke-linecap:round;stroke-linejoin:round;stroke-miterlimit:10;" d="
		M61.2,42.5h1.5c1.4,0,2.6-1.2,2.6-2.6c0-1.4-1.2-2.6-2.6-2.6h-1.5"/>
	<path style="fill:none;stroke:#12395F;stroke-width:2.428;stroke-linecap:round;stroke-linejoin:round;stroke-miterlimit:10;" d="
		M51.8,37.3h-1.4c-1.4,0-2.6,1.2-2.6,2.6c0,1.4,1.2,2.6,2.6,2.6h1.4"/>
	<path style="fill:none;stroke:#12395F;stroke-width:2.428;stroke-linecap:round;stroke-linejoin:round;stroke-miterlimit:10;" d="
		M70.4,48.3c0,1.4,1.2,2.6,2.6,2.6h15.2c1.4,0,2.6-1.2,2.6-2.6c0-1.4-1.2-2.6-2.6-2.6h-7.1H73C71.6,45.7,70.4,46.9,70.4,48.3z"/>
	<path style="fill:none;stroke:#00959A;stroke-width:2.388;stroke-linecap:round;stroke-linejoin:round;stroke-miterlimit:10;" d="
		M62.9,80.4c-1.4,0-2.5,1.1-2.5,2.5c0,1.4,1.1,2.5,2.5,2.5c1.4,0,2.5-1.1,2.5-2.5C65.4,81.5,64.3,80.4,62.9,80.4z"/>
	<path style="fill:none;stroke:#00959A;stroke-width:2.388;stroke-linecap:round;stroke-linejoin:round;stroke-miterlimit:10;" d="
		M51.2,87c-1.8,0-3.2,1.5-3.2,3.2s1.5,3.2,3.2,3.2c1.8,0,3.2-1.4,3.2-3.2S53,87,51.2,87z"/>
	<path style="fill:#00959A;" d="M50.1,80.6c0-1.1-0.9-2-2-2s-2,0.9-2,2c0,1.1,0.9,2,2,2S50.1,81.6,50.1,80.6"/>
	<path style="fill:#00959A;" d="M67.4,87.8c-1.1,0-2,0.9-2,2s0.9,2,2,2c1.1,0,2-0.9,2-2S68.4,87.8,67.4,87.8"/>
	<path style="fill:none;stroke:#00959A;stroke-width:2.388;stroke-linecap:round;stroke-linejoin:round;stroke-miterlimit:10;" d="
		M70.9,74.7c-1.4,1.1-3.7-0.2-4.5-1.2c-3.7,4.1-6.9,0-6.9,0c-2,2.6-4.8,2-6.6,0c-2.3,2.6-5.5,1.6-6.9,0c-1.5,2.1-3.8,1.4-3.8,1.4"/>
	
		<polyline style="fill:none;stroke:#12395F;stroke-width:2.428;stroke-linecap:round;stroke-linejoin:round;stroke-miterlimit:10;" points="
		70.9,74.7 61.2,58.4 61.2,42.5 51.8,42.5 51.8,58.4 42.2,74.9 	"/>
	<path style="fill:none;stroke:#12395F;stroke-width:2.428;stroke-linecap:round;stroke-linejoin:round;stroke-miterlimit:10;" d="
		M42.2,74.9l-8.9,15.3c-2.5,4.3,0.6,9.6,5.5,9.6h35.9c5,0,8-5.4,5.5-9.7l-0.8-1.4C75.8,88.1,73,85,73,81.2v-3.1l-2.1-3.5 M51.2,93.5
		c-1.8,0-3.2-1.4-3.2-3.2c0-1.8,1.5-3.2,3.2-3.2c1.8,0,3.2,1.5,3.2,3.2C54.5,92.1,53,93.5,51.2,93.5z M62.9,85.4
		c-1.4,0-2.5-1.1-2.5-2.5c0-1.4,1.1-2.5,2.5-2.5c1.4,0,2.5,1.1,2.5,2.5C65.4,84.3,64.3,85.4,62.9,85.4z"/>
</g>
</svg>
