<?xml version="1.0" encoding="utf-8"?>
<!-- Generator: Adobe Illustrator 25.2.0, SVG Export Plug-In . SVG Version: 6.00 Build 0)  -->
<svg version="1.1" id="Layer_1" xmlns="http://www.w3.org/2000/svg" xmlns:xlink="http://www.w3.org/1999/xlink" x="0px" y="0px"
	 viewBox="0 0 120.5 120" style="enable-background:new 0 0 120.5 120;" xml:space="preserve">
<g>
	<path style="fill:#12395F;" d="M80.9,99.6c-0.6,0-1.1-0.5-1.1-1.1v-8.7c0-0.6,0.5-1.1,1.1-1.1c0.6,0,1.1,0.5,1.1,1.1v8.7
		C81.9,99.1,81.4,99.6,80.9,99.6"/>
	<path style="fill:#12395F;" d="M80.9,70.6C80.8,70.6,80.8,70.6,80.9,70.6c-0.6,0-1.1-0.5-1.1-1.1c1-28.3-13.4-36.8-19.5-40.5
		c-7.1-4.2-10.7-6.5-10.8-6.5c-0.5-0.3-0.6-1-0.3-1.5c0.3-0.5,1-0.6,1.5-0.3c0,0,3.7,2.3,10.7,6.5c6.4,3.8,21.5,12.9,20.5,42.4
		C81.9,70.2,81.4,70.6,80.9,70.6"/>
	<path style="fill:#12395F;" d="M52.2,99.6L52.2,99.6c-0.6,0-1.1-0.5-1.1-1.1c0-6.3-0.5-12-1.5-16.8c-0.1-0.6,0.2-1.1,0.8-1.3
		c0.6-0.1,1.1,0.2,1.3,0.8c1,4.9,1.6,10.7,1.5,17.2C53.3,99.1,52.8,99.6,52.2,99.6"/>
	<path style="fill:#12395F;" d="M48.9,76.3c-0.4,0-0.8-0.3-1-0.7c-2.8-7.8-7.3-13.3-14.3-17.5c-10.5-6.4-12.5-19.9-12.5-20.5
		c-0.1-0.6,0.3-1.1,0.9-1.2c0.6-0.1,1.1,0.3,1.2,0.9c0,0.1,1.9,13.1,11.5,18.9c7.3,4.4,12.2,10.5,15.2,18.6c0.2,0.5-0.1,1.2-0.6,1.4
		C49.2,76.2,49,76.3,48.9,76.3"/>
	<path style="fill:#00969C;" d="M53.5,61.4c-0.3,0-0.7-0.1-1.1-0.2c-5.4-1.5-4.6-7-4.3-9.1c0-0.1,0-0.3,0.1-0.4
		c-1.3-2.4-16.9-18-26.6-27.4c-0.4-0.4-0.4-1.1,0-1.5c0.4-0.4,1.1-0.4,1.5,0c0.1,0.1,6.9,6.7,13.6,13.4c13.9,14,13.8,14.8,13.7,15.6
		c0,0.2-0.1,0.4-0.1,0.7c-0.4,2.9-0.6,5.8,2.7,6.7c1.4,0.4,2.2-0.9,3.1-3.3c0.6-1.6,1.8-2.8,3.3-3.4c1.3-0.5,2.1-1.1,2.4-1.7
		c0.2-0.5,0.2-1.2-0.2-2c-1.2-2.7-6-1.6-6.2-1.5c-2.3,0.5-4.5-2-4.9-2.5L28.2,22.3c-0.4-0.4-0.4-1.1,0-1.5c0.4-0.4,1.1-0.4,1.5,0
		L52,43.4c0,0,0.1,0.1,0.1,0.1c0.7,0.8,2,1.9,2.8,1.8c3.1-0.7,7.3-0.5,8.7,2.7c0.6,1.4,0.6,2.6,0.2,3.7c-0.5,1.3-1.7,2.2-3.6,2.9
		c-0.9,0.3-1.7,1.1-2.1,2.1C57.4,58.2,56.2,61.4,53.5,61.4"/>
	<path style="fill:#00969C;" d="M68.9,99.6c-0.6,0-1.1-0.5-1.1-1.1V68.7c0-0.3,0.1-0.6,0.4-0.8c4.9-4.2,5.9-9.4,4.8-12.7
		c-0.4-1.3-1.2-2.2-2-2.3c-2.3-0.2-3.2,1.2-5.3,5.2c-0.3,0.7-0.7,1.4-1.1,2.1c-2.1,3.9-6.8,7.3-9.4,9c-0.9,0.6-1.3,1.7-0.9,2.6
		c0.5,1.1,1.9,1.2,3.8,1.1c0.6,0,1.1,0,1.5,0c2.6,0.2,3.2,3.3,3,5.1v20.4c0,0.6-0.5,1.1-1.1,1.1s-1.1-0.5-1.1-1.1V78.1
		c0,0,0,0,0-0.1c0,0,0.1-2.8-1.1-2.9c-0.3,0-0.8,0-1.3,0c-1.9,0.1-4.8,0.2-5.8-2.4c-0.8-1.8-0.1-4,1.7-5.2c2-1.3,6.8-4.7,8.7-8.2
		c0.4-0.7,0.8-1.4,1.1-2.1c2-3.9,3.5-6.6,7.3-6.4c1.7,0.1,3.2,1.5,3.9,3.7c1.2,3.6,0.6,9.5-5.1,14.6v29.3
		C70,99.1,69.5,99.6,68.9,99.6"/>
	<path style="fill:#12395F;" d="M86.7,92.6c-7,0-12.8-5.7-12.8-12.8c0-7,5.7-12.8,12.8-12.8c7,0,12.8,5.7,12.8,12.8
		C99.4,86.9,93.7,92.6,86.7,92.6 M86.7,69.2C80.8,69.2,76,74,76,79.9s4.8,10.6,10.6,10.6c5.9,0,10.6-4.8,10.6-10.6
		S92.6,69.2,86.7,69.2"/>
	<path style="fill:#00969C;" d="M89.2,88.2h-5c-0.6,0-1.1-0.5-1.1-1.1v-3.1H80c-0.6,0-1.1-0.5-1.1-1.1v-5c0-0.6,0.5-1.1,1.1-1.1h3.1
		v-3.1c0-0.6,0.5-1.1,1.1-1.1h5c0.6,0,1.1,0.5,1.1,1.1V77h3.1c0.6,0,1.1,0.5,1.1,1.1v5c0,0.6-0.5,1.1-1.1,1.1h-3.1v3.1
		C90.2,87.8,89.8,88.2,89.2,88.2 M85.2,86.1h2.9V83c0-0.6,0.5-1.1,1.1-1.1h3.1v-2.9h-3.1c-0.6,0-1.1-0.5-1.1-1.1v-3.1h-2.9V78
		c0,0.6-0.5,1.1-1.1,1.1h-3.1V82h3.1c0.6,0,1.1,0.5,1.1,1.1V86.1z"/>
</g>
</svg>
