<?xml version="1.0" encoding="utf-8"?>
<!-- Generator: Adobe Illustrator 25.2.0, SVG Export Plug-In . SVG Version: 6.00 Build 0)  -->
<svg version="1.1" id="Layer_1" xmlns="http://www.w3.org/2000/svg" xmlns:xlink="http://www.w3.org/1999/xlink" x="0px" y="0px"
	 viewBox="0 0 120.5 120" style="enable-background:new 0 0 120.5 120;" xml:space="preserve">
<g>
	<path style="fill:#12395F;" d="M34.1,83.8c-0.7,0-1.2-0.6-1.2-1.2V30.5c0-1.9,1.5-3.5,3.5-3.5h38.7c1.9,0,3.5,1.5,3.5,3.5v14.8
		c0,0.7-0.6,1.2-1.2,1.2c-0.7,0-1.2-0.6-1.2-1.2V30.5c0-0.5-0.4-1-1-1H36.3c-0.5,0-1,0.4-1,1v52.1C35.4,83.3,34.8,83.8,34.1,83.8"/>
	<path style="fill:#12395F;" d="M86.6,101.2H46.3c-3.6,0-6.5-2.9-6.5-6.5V54.1c0-3.6,2.9-6.5,6.5-6.5h40.2c3.6,0,6.5,2.9,6.5,6.5
		v40.6C93.1,98.2,90.1,101.2,86.6,101.2 M46.3,50.1c-2.2,0-4,1.8-4,4v40.6c0,2.2,1.8,4,4,4h40.2c2.2,0,4-1.8,4-4V54.1
		c0-2.2-1.8-4-4-4H46.3z"/>
	<path style="fill:#12395F;" d="M69.1,26.2h-26c-0.7,0-1.2-0.6-1.2-1.2c0-0.7,0.6-1.2,1.2-1.2h26c0.7,0,1.2,0.6,1.2,1.2
		C70.4,25.6,69.8,26.2,69.1,26.2"/>
	<path style="fill:#12395F;" d="M46.1,26c-0.7,0-1.2-0.6-1.2-1.2v-3c0-1.6,1.3-2.9,2.9-2.9h16.8c1.6,0,2.9,1.3,2.9,2.9v2.9
		c0,0.7-0.6,1.2-1.2,1.2c-0.7,0-1.2-0.6-1.2-1.2v-2.9c0-0.2-0.2-0.4-0.4-0.4H47.8c-0.2,0-0.4,0.2-0.4,0.4v3
		C47.4,25.4,46.8,26,46.1,26"/>
	<path style="fill:#12395F;" d="M63.9,36.9H53.5c-0.7,0-1.2-0.6-1.2-1.2c0-0.7,0.6-1.2,1.2-1.2h10.4c0.7,0,1.2,0.6,1.2,1.2
		C65.2,36.3,64.6,36.9,63.9,36.9"/>
	<path style="fill:#12395F;" d="M71.7,42.5H53.5c-0.7,0-1.2-0.6-1.2-1.2c0-0.7,0.6-1.2,1.2-1.2h18.3c0.7,0,1.2,0.6,1.2,1.2
		C73,42,72.4,42.5,71.7,42.5"/>
	<path style="fill:#12395F;" d="M71.7,36.9h-3.6c-0.7,0-1.2-0.6-1.2-1.2c0-0.7,0.6-1.2,1.2-1.2h3.6c0.7,0,1.2,0.6,1.2,1.2
		C73,36.3,72.4,36.9,71.7,36.9"/>
	<path style="fill:#12395F;" d="M46.1,45.3h-3.8c-0.7,0-1.2-0.6-1.2-1.2v-2.5h-2.5c-0.7,0-1.2-0.6-1.2-1.2v-3.8
		c0-0.7,0.6-1.2,1.2-1.2h2.5v-2.5c0-0.7,0.6-1.2,1.2-1.2h3.8c0.7,0,1.2,0.6,1.2,1.2v2.5h2.5c0.7,0,1.2,0.6,1.2,1.2v3.8
		c0,0.7-0.6,1.2-1.2,1.2h-2.5V44C47.3,44.7,46.8,45.3,46.1,45.3 M43.6,42.8h1.3v-2.5c0-0.7,0.6-1.2,1.2-1.2h2.5v-1.3h-2.5
		c-0.7,0-1.2-0.6-1.2-1.2V34h-1.3v2.5c0,0.7-0.6,1.2-1.2,1.2h-2.5V39h2.5c0.7,0,1.2,0.6,1.2,1.2V42.8z"/>
	<path style="fill:#12395F;" d="M66.1,55.9c-0.7,0-1.2-0.6-1.2-1.2v-2.5c0-0.7,0.6-1.2,1.2-1.2c0.7,0,1.2,0.6,1.2,1.2v2.5
		C67.3,55.4,66.7,55.9,66.1,55.9"/>
	<path style="fill:#12395F;" d="M66.1,86.4c-0.7,0-1.2-0.6-1.2-1.2V57.7c0-0.7,0.6-1.2,1.2-1.2c0.7,0,1.2,0.6,1.2,1.2v27.4
		C67.3,85.8,66.7,86.4,66.1,86.4"/>
	<path style="fill:#12395F;" d="M71.7,96.3c-0.7,0-1.2-0.6-1.2-1.2c0-0.7,0.6-1.2,1.2-1.2c0.9,0,1.8-0.3,2.4-0.9
		c0.5-0.5,1.3-0.4,1.8,0.1c0.5,0.5,0.4,1.3-0.1,1.8C74.7,95.7,73.2,96.3,71.7,96.3"/>
	<path style="fill:#12395F;" d="M60.4,96.3c-3.4,0-6.2-2.8-6.2-6.2c0-3.4,2.8-6.2,6.2-6.2h11.3c3.4,0,6.2,2.8,6.2,6.2
		c0,0.7-0.6,1.2-1.2,1.2c-0.7,0-1.2-0.6-1.2-1.2c0-2-1.6-3.7-3.7-3.7H60.4c-2,0-3.7,1.6-3.7,3.7c0,2,1.6,3.7,3.7,3.7
		c0.7,0,1.2,0.6,1.2,1.2C61.6,95.7,61.1,96.3,60.4,96.3"/>
	<path style="fill:#12395F;" d="M80.5,71.2c-0.7,0-1.2-0.6-1.2-1.2c0-3.7-6-6.9-13.2-6.9c-7.2,0-13.2,3.2-13.2,6.9
		c0,0.7-0.6,1.2-1.2,1.2c-0.7,0-1.2-0.6-1.2-1.2c0-5.3,6.9-9.4,15.7-9.4c8.8,0,15.7,4.1,15.7,9.4C81.8,70.7,81.2,71.2,80.5,71.2"/>
	<path style="fill:#12395F;" d="M75.7,75.6c-0.7,0-1.2-0.6-1.2-1.2c0-2-3.4-4.2-8.4-4.2c-4.9,0-8.4,2.2-8.4,4.2
		c0,0.7-0.6,1.2-1.2,1.2c-0.7,0-1.2-0.6-1.2-1.2c0-3.7,4.8-6.7,10.9-6.7c6.1,0,10.9,2.9,10.9,6.7C76.9,75.1,76.4,75.6,75.7,75.6"/>
	<path style="fill:#12395F;" d="M71,81.3c-0.7,0-1.2-0.6-1.2-1.2c0-0.6-0.3-1.6-1-2.4c-0.7-0.7-1.6-1-2.7-1c0,0,0,0-0.1,0
		c-1.1,0-2,0.3-2.7,1c-0.7,0.7-1,1.7-1,2.4c0,0.7-0.6,1.2-1.2,1.2s-1.2-0.6-1.2-1.2c0-1.1,0.5-2.8,1.8-4.1c1.1-1.1,2.7-1.7,4.4-1.7
		h0.1c1.8,0,3.3,0.6,4.4,1.7c1.3,1.3,1.8,3,1.8,4.1C72.3,80.8,71.7,81.3,71,81.3"/>
</g>
</svg>
