<?xml version="1.0" encoding="utf-8"?>
<!-- Generator: Adobe Illustrator 25.2.0, SVG Export Plug-In . SVG Version: 6.00 Build 0)  -->
<svg version="1.1" id="Layer_1" xmlns="http://www.w3.org/2000/svg" xmlns:xlink="http://www.w3.org/1999/xlink" x="0px" y="0px"
	 viewBox="0 0 120.5 120" style="enable-background:new 0 0 120.5 120;" xml:space="preserve">
<g>
	<path style="fill:#12395F;" d="M69.1,88.7c-8.7,0-16.3-3.1-19.9-8.1c-0.4-0.6-0.3-1.3,0.3-1.7c0.6-0.4,1.3-0.3,1.7,0.3
		c3.2,4.4,10.4,7.2,18.3,7c10.2-0.1,19.3-4.7,24.5-12.3c5.6-8.2,6.8-19.8,3-30.4c-3.3-9.1-9.5-15.6-17.2-17.8
		c-12-3.5-17.4,0.4-20.6,2.7c-1.4,1-2.4,1.7-3.6,1.6c-3-0.4-3.8-4-3.8-6.1v-7.7c0-0.7,0.6-1.2,1.2-1.2c0.7,0,1.2,0.6,1.2,1.2v7.7
		c0,0.7,0.3,3.5,1.6,3.7c0.3,0,1.2-0.7,1.9-1.1c3.3-2.4,9.5-6.8,22.7-3c8.5,2.4,15.4,9.5,18.9,19.4c4,11.3,2.8,23.8-3.3,32.6
		c-5.7,8.3-15.6,13.3-26.6,13.4C69.4,88.7,69.2,88.7,69.1,88.7"/>
	<path style="fill:#12395F;" d="M54.5,46.4c-0.2,0-0.4-0.1-0.6-0.2c-18.7-11.2-14-30.2-14-30.4c0.2-0.7,0.9-1.1,1.5-0.9
		c0.7,0.2,1.1,0.9,0.9,1.5c-0.2,0.7-4.2,17.5,12.9,27.7c0.6,0.4,0.8,1.1,0.4,1.7C55.3,46.1,54.9,46.4,54.5,46.4"/>
	<path style="fill:#12395F;" d="M45,97.5c-0.2,0-0.4,0-0.6-0.1c-0.6-0.3-0.9-1.1-0.5-1.7c1.9-3.7,0.2-5.9-2.3-8.8
		c-2.3-2.8-5.1-6.2-4.6-11.7c0.3-3.6,1.8-6.3,4.3-7.9c4.2-2.6,9.8-1.5,11.6-0.9c0.7,0.3,1.5,0.8,2.3,1.3c2.5,1.7,5.1,3.5,8.5,0.1
		c4.6-4.5-1.6-13.4-1.7-13.4c-0.4-0.6-0.3-1.3,0.3-1.7c0.6-0.4,1.3-0.3,1.7,0.3c0.3,0.4,7.4,10.7,1.4,16.7
		c-4.9,4.8-9.1,1.9-11.7,0.2c-0.7-0.5-1.3-0.9-1.8-1c-1.7-0.6-6.3-1.3-9.4,0.6c-1.9,1.2-2.9,3.2-3.2,6c-0.4,4.4,1.9,7.2,4.1,9.9
		c2.6,3.1,5.3,6.4,2.6,11.6C45.9,97.2,45.5,97.5,45,97.5"/>
	<path style="fill:#12395F;" d="M60,97.5c-0.1,0-0.2,0-0.2,0c-0.7-0.1-1.1-0.8-1-1.5c0.8-4.2-1-9.7-1.1-9.8
		c-0.2-0.7,0.1-1.4,0.8-1.6c0.7-0.2,1.4,0.1,1.6,0.8c0.1,0.3,2.1,6.2,1.1,11C61.1,97,60.6,97.5,60,97.5"/>
	<path style="fill:#12395F;" d="M71.6,81c-0.6,0-1.1-0.4-1.2-1c-0.1-0.7,0.3-1.3,1-1.5c0.1,0,11.3-2.2,16.9-11.1
		c1.4-2.3,2.4-4.9,2.9-8c1.2-7.8-0.1-14.3-3.8-19.3c-6-8-16.4-9.6-16.5-9.6c-0.7-0.1-1.2-0.7-1.1-1.4c0.1-0.7,0.7-1.2,1.4-1.1
		c0.5,0.1,11.5,1.7,18.2,10.6c4.2,5.6,5.6,12.7,4.3,21.2c-0.5,3.4-1.6,6.3-3.2,8.9C84.2,78.7,72.4,80.9,71.9,81
		C71.8,81,71.7,81,71.6,81"/>
	<path style="fill:#00969C;" d="M60.1,52.2c-0.4,0-0.7-0.1-1-0.4c-0.4-0.5-0.4-1.3,0.1-1.8c0.1-0.1,2.6-2.2,6.1-3c0.1,0,0.1,0,0.2,0
		c5.8-0.5,9.8-2.1,11.8-4.8c1-1.4,1.3-2.8,1.4-3.8L59.5,48.6c-0.6,0.3-1.4,0.1-1.7-0.5c-0.3-0.6-0.1-1.4,0.5-1.7l21.1-11.1
		c0.3-0.2,0.7-0.2,1.1,0c0.4,0.2,0.6,0.5,0.7,0.8c0,0.2,0.9,4-1.7,7.6c-2.4,3.4-7,5.3-13.6,5.9c-2.9,0.6-4.9,2.4-5,2.4
		C60.7,52.1,60.4,52.2,60.1,52.2"/>
	<path style="fill:#00969C;" d="M23.1,71c-0.5,0-1-0.1-1.4-0.2c-1.1-0.4-1.9-1.1-2.4-2.2c-0.5-1-0.5-2.2-0.2-3.2
		c0.4-1.1,1.1-1.9,2.2-2.4l36.4-17.2c0.6-0.3,1.4,0,1.7,0.6l2.5,5.3c0.1,0.3,0.2,0.6,0,1c-0.1,0.3-0.3,0.6-0.6,0.7L24.9,70.6
		C24.3,70.9,23.7,71,23.1,71 M57.6,48.6L22.4,65.3c-0.4,0.2-0.7,0.5-0.9,1c-0.2,0.4-0.1,0.9,0.1,1.3c0.2,0.4,0.5,0.7,1,0.9
		c0.4,0.2,0.9,0.1,1.3-0.1l35.2-16.7L57.6,48.6z"/>
	<path style="fill:#12395F;" d="M45.1,60.7c-0.7,0-1.2-0.5-1.2-1.2l-0.3-6.2c0-0.7,0.5-1.3,1.2-1.3c0.7,0,1.3,0.5,1.3,1.2l0.3,6.2
		C46.4,60.1,45.8,60.7,45.1,60.7C45.1,60.7,45.1,60.7,45.1,60.7"/>
	<path style="fill:#12395F;" d="M49.1,58.9c-0.7,0-1.2-0.5-1.2-1.2l-0.3-6.2c0-0.7,0.5-1.3,1.2-1.3c0.7-0.1,1.3,0.5,1.3,1.2l0.3,6.2
		C50.4,58.3,49.8,58.9,49.1,58.9C49.1,58.9,49.1,58.9,49.1,58.9"/>
	<path style="fill:#12395F;" d="M53.1,57.1c-0.7,0-1.2-0.5-1.2-1.2l-0.3-6.2c0-0.7,0.5-1.3,1.2-1.3c0.7,0,1.3,0.5,1.3,1.2l0.3,6.2
		C54.4,56.5,53.8,57.1,53.1,57.1C53.1,57.1,53.1,57.1,53.1,57.1"/>
</g>
</svg>
